<?xml version="1.0" encoding="utf-8"?>
<!-- Generator: Adobe Illustrator 25.2.3, SVG Export Plug-In . SVG Version: 6.00 Build 0)  -->
<svg version="1.1" id="Слой_1" xmlns="http://www.w3.org/2000/svg" xmlns:xlink="http://www.w3.org/1999/xlink" x="0px" y="0px"
	 viewBox="0 0 100 125" style="enable-background:new 0 0 100 125;" xml:space="preserve">
<g>
	<path d="M74.6,43.9C73.6,32.1,63.8,22.6,52,21.7c-1.2-0.1-2.3-0.1-3.5,0c-11.9,0.8-21.6,10.4-22.7,22.2c-0.7,7.6,2.1,15,7.7,20.2
		c3,2.8,4.7,6.7,4.7,10.7v9.5c0,3.1,2.3,5.6,5.3,6c0.9,2.5,3.5,4.7,6.6,4.7s5.7-2.2,6.6-4.7c3-0.4,5.3-2.9,5.3-6v-9.5
		c0-4,1.7-7.9,4.7-10.7C72.5,58.9,75.3,51.6,74.6,43.9z M58.1,76.3v1.5H42.3v-1.5H58.1z M45.6,51.3h-2c-1.1,0-2-0.9-2-2s0.9-2,2-2
		c1.1,0,2,0.9,2,2V51.3z M48.6,54.3h3.2v19.1h-3.2V54.3z M42.3,82.4v-1.5h15.8v1.5H42.3z M50.2,91c-1.1,0-2.1-0.8-2.6-1.6h5.3
		C52.4,90.2,51.4,91,50.2,91z M56.1,86.4h-0.9c-0.2,0-0.3,0-0.5,0.1h-9.1c-0.1,0-0.3-0.1-0.5-0.1h-0.9c-0.7,0-1.4-0.4-1.7-1h15.3
		C57.5,86,56.9,86.4,56.1,86.4z M64.2,61.2c-3.4,3.2-5.6,7.6-5.9,12.2h-3.4V54.3h2c2.7,0,5-2.2,5-5s-2.2-5-5-5c-2.7,0-5,2.2-5,5v2
		h-3.2v-2c0-2.7-2.2-5-5-5c-2.7,0-5,2.2-5,5s2.2,5,5,5h2v19.1h-3.4c-0.4-4.6-2.5-9-5.9-12.2c-4.7-4.3-7-10.5-6.5-16.9
		c0.9-9.9,9-17.9,18.9-18.5c0.5,0,1,0,1.5,0c0.5,0,1,0,1.5,0c9.9,0.7,18.1,8.7,18.9,18.5C71.2,50.7,68.8,56.8,64.2,61.2z M54.8,51.3
		v-2c0-1.1,0.9-2,2-2c1.1,0,2,0.9,2,2s-0.9,2-2,2H54.8z"/>
	<path d="M50.2,15.1c0.9,0,1.6-0.7,1.6-1.6V6.6c0-0.9-0.7-1.6-1.6-1.6s-1.6,0.7-1.6,1.6v6.9C48.6,14.4,49.4,15.1,50.2,15.1z"/>
	<path d="M74.6,13.1c-0.7-0.5-1.7-0.4-2.2,0.4L68.3,19c-0.5,0.7-0.4,1.7,0.4,2.2s1.7,0.4,2.2-0.4l4.1-5.6
		C75.4,14.6,75.3,13.6,74.6,13.1z"/>
	<path d="M81.9,38l6.6-2.1c0.8-0.3,1.3-1.2,1-2c-0.3-0.8-1.2-1.3-2-1L80.9,35c-0.8,0.3-1.3,1.2-1,2C80.1,37.8,81,38.3,81.9,38z"/>
	<path d="M88.3,57.5l-6.6-2.1c-0.8-0.3-1.7,0.2-2,1c-0.3,0.8,0.2,1.7,1,2l6.6,2.1c0.8,0.3,1.7-0.2,2-1
		C89.6,58.7,89.2,57.8,88.3,57.5z"/>
	<path d="M70.4,72.3c-0.5-0.7-1.5-0.9-2.2-0.4c-0.7,0.5-0.9,1.5-0.4,2.2l4.1,5.6c0.5,0.7,1.5,0.9,2.2,0.4c0.7-0.5,0.9-1.5,0.4-2.2
		L70.4,72.3z"/>
	<path d="M31.4,71.7c-0.7-0.5-1.7-0.4-2.2,0.4l-4.1,5.6c-0.5,0.7-0.4,1.7,0.4,2.2c0.7,0.5,1.7,0.4,2.2-0.4l4.1-5.6
		C32.3,73.2,32.1,72.2,31.4,71.7z"/>
	<path d="M20.1,55.9c-0.3-0.8-1.2-1.3-2-1L11.5,57c-0.8,0.3-1.3,1.2-1,2c0.3,0.8,1.2,1.3,2,1l6.6-2.1C19.9,57.6,20.4,56.7,20.1,55.9
		L20.1,55.9z"/>
	<path d="M19.3,34.6l-6.6-2.1c-0.8-0.3-1.7,0.2-2,1c-0.3,0.8,0.2,1.7,1,2l6.6,2.1c0.8,0.3,1.7-0.2,2-1
		C20.5,35.7,20.1,34.8,19.3,34.6z"/>
	<path d="M29.6,20.6c0.5,0.7,1.5,0.9,2.2,0.4c0.7-0.5,0.9-1.5,0.4-2.2L28,13.1c-0.5-0.7-1.5-0.9-2.2-0.4c-0.7,0.5-0.9,1.5-0.4,2.2
		L29.6,20.6z"/>
</g>
</svg>
