<?xml version="1.0" encoding="utf-8"?>
<!-- Generator: Adobe Illustrator 25.2.3, SVG Export Plug-In . SVG Version: 6.00 Build 0)  -->
<svg fill="#c1a205" version="1.1" id="Слой_1" xmlns="http://www.w3.org/2000/svg" xmlns:xlink="http://www.w3.org/1999/xlink" x="0px" y="0px"
	 viewBox="0 0 100 125" style="enable-background:new 0 0 100 125;" xml:space="preserve">
<g>
	<path d="M36.8,18.8c-2,0-3.6-1.6-3.6-3.6s1.6-3.6,3.6-3.6s3.6,1.6,3.6,3.6S38.7,18.8,36.8,18.8z M36.8,12.6c-1.4,0-2.6,1.2-2.6,2.6
		s1.2,2.6,2.6,2.6c1.4,0,2.6-1.2,2.6-2.6S38.2,12.6,36.8,12.6z"/>
	<path d="M47.1,18.8c-2,0-3.6-1.6-3.6-3.6s1.6-3.6,3.6-3.6s3.6,1.6,3.6,3.6S49.1,18.8,47.1,18.8z M47.1,12.6c-1.4,0-2.6,1.2-2.6,2.6
		s1.2,2.6,2.6,2.6c1.4,0,2.6-1.2,2.6-2.6S48.5,12.6,47.1,12.6z"/>
	<rect x="39.5" y="12.5" transform="matrix(0.9673 -0.2538 0.2538 0.9673 -1.898 11.3866)" width="7.4" height="1"/>
	<rect x="42.6" y="13.7" transform="matrix(0.2561 -0.9666 0.9666 0.2561 15.3032 54.6231)" width="1" height="7.3"/>
	<path d="M26.4,18.8c-2,0-3.6-1.6-3.6-3.6s1.6-3.6,3.6-3.6s3.6,1.6,3.6,3.6S28.4,18.8,26.4,18.8z M26.4,12.6c-1.4,0-2.6,1.2-2.6,2.6
		s1.2,2.6,2.6,2.6c1.4,0,2.6-1.2,2.6-2.6S27.9,12.6,26.4,12.6z"/>
	<rect x="29.8" y="9.3" transform="matrix(0.2536 -0.9673 0.9673 0.2536 10.0149 39.0748)" width="1" height="7.4"/>
	<rect x="26.7" y="16.9" transform="matrix(0.9667 -0.2558 0.2558 0.9667 -3.4329 8.346)" width="7.3" height="1"/>
	<rect x="32.4" y="19.5" transform="matrix(0.4386 -0.8987 0.8987 0.4386 1.4407 42.281)" width="4.3" height="1"/>
	<path d="M48.2,29H25.6v-7.6h22.5V29z M26.6,28h20.5v-5.6H26.6V28z"/>
	<path d="M40.7,29h-7.6v-7.6h7.6V29z M34.1,28h5.6v-5.6h-5.6V28z"/>
	<path d="M53.9,91.2c0-0.5-0.2-1-0.5-1.6c-0.3-0.8-0.7-1.6-0.7-2.6c0-1,0.3-1.8,0.6-2.5c0.2-0.6,0.4-1.2,0.4-1.8
		c0-0.6-0.2-1.1-0.5-1.7c-0.3-0.7-0.6-1.5-0.6-2.5c0-1,0.3-1.8,0.6-2.5c0.2-0.6,0.4-1.1,0.4-1.7c0-0.6-0.2-1.2-0.4-1.8
		c-0.2-0.7-0.4-1.5-0.4-2.4c0-1,0.4-1.8,0.7-2.6c0.3-0.6,0.5-1.1,0.5-1.7h2l0,0.5c-0.1,0.8-0.4,1.4-0.7,2c-0.3,0.6-0.5,1.1-0.5,1.7
		c0,0.6,0.2,1.2,0.4,1.8c0.2,0.7,0.4,1.5,0.4,2.4c0,1-0.3,1.8-0.6,2.5c-0.2,0.6-0.4,1.1-0.4,1.7c0,0.6,0.2,1.1,0.5,1.7
		c0.3,0.7,0.6,1.5,0.6,2.5c0,1-0.3,1.8-0.6,2.5c-0.2,0.6-0.4,1.2-0.4,1.8c0,0.6,0.3,1.2,0.5,1.8c0.3,0.7,0.6,1.5,0.6,2.3L53.9,91.2z
		"/>
	<path d="M57.6,91.2c0-0.5-0.2-1-0.5-1.6c-0.3-0.8-0.7-1.6-0.7-2.6c0-1,0.3-1.8,0.6-2.5c0.2-0.6,0.4-1.2,0.4-1.8
		c0-0.6-0.2-1.1-0.5-1.7c-0.3-0.7-0.6-1.5-0.6-2.5c0-1,0.3-1.8,0.6-2.5c0.2-0.6,0.4-1.1,0.4-1.7c0-0.6-0.2-1.2-0.4-1.8
		c-0.2-0.7-0.4-1.5-0.4-2.4c0-1,0.4-1.8,0.7-2.6c0.3-0.6,0.5-1.1,0.5-1.7h2l0,0.5c-0.1,0.8-0.4,1.4-0.7,2c-0.3,0.6-0.5,1.1-0.5,1.7
		c0,0.6,0.2,1.2,0.4,1.8c0.2,0.7,0.4,1.5,0.4,2.4c0,1-0.3,1.8-0.6,2.5c-0.2,0.6-0.4,1.1-0.4,1.7c0,0.6,0.2,1.1,0.5,1.7
		c0.3,0.7,0.6,1.5,0.6,2.5c0,1-0.3,1.8-0.6,2.5c-0.2,0.6-0.4,1.2-0.4,1.8c0,0.6,0.3,1.2,0.5,1.8c0.3,0.7,0.6,1.5,0.6,2.3L57.6,91.2z
		"/>
	<path d="M61.4,91.2c0-0.5-0.2-1-0.5-1.6c-0.3-0.8-0.7-1.6-0.7-2.6c0-1,0.3-1.8,0.6-2.5c0.2-0.6,0.4-1.2,0.4-1.8
		c0-0.6-0.2-1.1-0.5-1.7c-0.3-0.7-0.6-1.5-0.6-2.5c0-1,0.3-1.8,0.6-2.5c0.2-0.6,0.4-1.1,0.4-1.7c0-0.6-0.2-1.2-0.4-1.8
		c-0.2-0.7-0.4-1.5-0.4-2.4c0-1,0.4-1.8,0.7-2.6c0.3-0.6,0.5-1.1,0.5-1.7h2l0,0.5c-0.1,0.8-0.4,1.4-0.7,2c-0.3,0.6-0.5,1.1-0.5,1.7
		c0,0.6,0.2,1.2,0.4,1.8c0.2,0.7,0.4,1.5,0.4,2.4c0,1-0.3,1.8-0.6,2.5c-0.2,0.6-0.4,1.1-0.4,1.7c0,0.6,0.2,1.1,0.5,1.7
		c0.3,0.7,0.6,1.5,0.6,2.5c0,1-0.3,1.8-0.6,2.5c-0.2,0.6-0.4,1.2-0.4,1.8c0,0.6,0.3,1.2,0.5,1.8c0.3,0.7,0.6,1.5,0.6,2.3L61.4,91.2z
		"/>
	<path d="M65.3,91.1c0-0.5-0.2-0.9-0.4-1.5c-0.3-0.7-0.6-1.5-0.6-2.5c0-1,0.3-1.7,0.6-2.4c0.2-0.6,0.4-1.1,0.4-1.7
		c0-0.6-0.2-1.1-0.5-1.7c-0.3-0.7-0.6-1.5-0.6-2.5c0-1,0.3-1.8,0.6-2.5c0.2-0.6,0.4-1.1,0.4-1.7c0-0.6-0.2-1.1-0.4-1.7
		c-0.3-0.7-0.5-1.5-0.5-2.4c0-1,0.3-1.8,0.6-2.5c0.3-0.6,0.5-1.1,0.5-1.7v-0.4h2v0.4c0,1-0.3,1.8-0.6,2.5c-0.3,0.6-0.5,1.1-0.5,1.7
		c0,0.6,0.2,1.1,0.4,1.7c0.3,0.7,0.5,1.5,0.5,2.4c0,1-0.3,1.8-0.6,2.5c-0.2,0.6-0.4,1.1-0.4,1.7c0,0.6,0.2,1.1,0.5,1.7
		c0.3,0.7,0.6,1.5,0.6,2.5c0,1-0.3,1.7-0.6,2.4c-0.2,0.6-0.4,1.1-0.4,1.7c0,0.6,0.2,1.1,0.5,1.7c0.3,0.6,0.6,1.3,0.6,2.2L65.3,91.1z
		"/>
	<path d="M69,91.2c0-0.5-0.2-1-0.5-1.6c-0.3-0.8-0.7-1.6-0.7-2.6c0-1,0.3-1.8,0.6-2.5c0.2-0.6,0.4-1.2,0.4-1.8
		c0-0.6-0.2-1.1-0.5-1.7c-0.3-0.7-0.6-1.5-0.6-2.5c0-1,0.3-1.8,0.6-2.5c0.2-0.6,0.4-1.1,0.4-1.7c0-0.6-0.2-1.2-0.4-1.8
		c-0.2-0.7-0.5-1.5-0.5-2.4c0-1,0.4-1.8,0.7-2.5c0.3-0.6,0.5-1.1,0.5-1.7h2l0,0.5c-0.1,0.8-0.4,1.4-0.7,2c-0.3,0.6-0.5,1.1-0.5,1.7
		c0,0.6,0.2,1.2,0.4,1.8c0.2,0.7,0.5,1.5,0.5,2.4c0,1-0.3,1.8-0.6,2.5c-0.2,0.6-0.4,1.1-0.4,1.7c0,0.6,0.2,1.1,0.5,1.7
		c0.3,0.7,0.6,1.5,0.6,2.5c0,1-0.3,1.8-0.6,2.5c-0.2,0.6-0.4,1.2-0.4,1.8c0,0.6,0.2,1.2,0.5,1.9c0.3,0.7,0.6,1.4,0.6,2.3L69,91.2z"
		/>
	<path d="M72.8,91.2c0-0.5-0.2-1-0.5-1.6C72,88.8,71.7,88,71.7,87c0-1,0.3-1.8,0.6-2.5c0.2-0.6,0.4-1.2,0.4-1.8
		c0-0.6-0.2-1.1-0.5-1.7c-0.3-0.7-0.6-1.5-0.6-2.5c0-1,0.3-1.8,0.6-2.5c0.2-0.6,0.4-1.1,0.4-1.7c0-0.6-0.2-1.1-0.4-1.7
		c-0.3-0.7-0.5-1.5-0.5-2.4c0-1,0.3-1.8,0.6-2.5c0.3-0.6,0.5-1.1,0.5-1.7h2l0,0.5c-0.1,0.8-0.4,1.4-0.6,2c-0.3,0.6-0.5,1.1-0.5,1.7
		c0,0.6,0.2,1.1,0.4,1.7c0.3,0.7,0.5,1.5,0.5,2.4c0,1-0.3,1.8-0.6,2.5c-0.2,0.6-0.4,1.1-0.4,1.7c0,0.6,0.2,1.1,0.5,1.7
		c0.3,0.7,0.6,1.5,0.6,2.5c0,1-0.3,1.8-0.6,2.5c-0.2,0.6-0.4,1.2-0.4,1.8c0,0.6,0.2,1.2,0.5,1.9c0.3,0.7,0.6,1.4,0.6,2.3L72.8,91.2z
		"/>
	<path d="M80,66.4H48.1V56.1H80V66.4z M49.1,65.4H79v-8.4H49.1V65.4z"/>
	<path d="M75.9,57.1H51.8v-4.7H19.6V28l42,0c8,0,14.4,6.4,14.4,14.3L75.9,57.1z M52.8,56.1H75l0-13.8C75,35,69,29,61.6,29l-9.7,0
		H20.6v22.4h32.3C52.8,51.4,52.8,56.1,52.8,56.1z"/>
	<path d="M48.2,52.4H25.6V28h22.5V52.4z M26.6,51.4h20.5V29H26.6V51.4z"/>
	<rect x="38.6" y="17.8" transform="matrix(0.8741 -0.4857 0.4857 0.8741 -4.7873 21.5001)" width="1" height="4.4"/>
	<path d="M20.6,57.1h-6.7V24.7h6.7V57.1z M14.9,56.1h4.7V25.7h-4.7V56.1z"/>
	<path d="M17.2,31.4c-0.9,0-1.7-0.8-1.7-1.7s0.8-1.7,1.7-1.7s1.7,0.8,1.7,1.7S18.1,31.4,17.2,31.4z M17.2,29c-0.4,0-0.7,0.3-0.7,0.7
		s0.3,0.7,0.7,0.7s0.7-0.3,0.7-0.7S17.6,29,17.2,29z"/>
	<path d="M17.2,38.2c-0.9,0-1.7-0.8-1.7-1.7s0.8-1.7,1.7-1.7s1.7,0.8,1.7,1.7S18.1,38.2,17.2,38.2z M17.2,35.8
		c-0.4,0-0.7,0.3-0.7,0.7s0.3,0.7,0.7,0.7s0.7-0.3,0.7-0.7S17.6,35.8,17.2,35.8z"/>
	<path d="M17.2,52c-0.9,0-1.7-0.8-1.7-1.7s0.8-1.7,1.7-1.7s1.7,0.8,1.7,1.7S18.1,52,17.2,52z M17.2,49.6c-0.4,0-0.7,0.3-0.7,0.7
		s0.3,0.7,0.7,0.7s0.7-0.3,0.7-0.7S17.6,49.6,17.2,49.6z"/>
	<path d="M17.2,45.1c-0.9,0-1.7-0.8-1.7-1.7s0.8-1.7,1.7-1.7s1.7,0.8,1.7,1.7S18.1,45.1,17.2,45.1z M17.2,42.7
		c-0.4,0-0.7,0.3-0.7,0.7s0.3,0.7,0.7,0.7s0.7-0.3,0.7-0.7S17.6,42.7,17.2,42.7z"/>
	<path d="M47.1,12.1c1.7,0,3.1,1.4,3.1,3.1c0,1.7-1.4,3.1-3.1,3.1c-0.1,0-7.5-1.9-7.5-1.9v0c-0.3,0.7-0.9,1.3-1.6,1.6h0l2.2,3.9h7.5
		v6.6h4.2l9.7,0c7.7,0,13.9,6.1,13.9,13.8l-0.1,14.3h4.1v9.4H48.6v-9.4h3.7v-4.7h-4.7H26.1h-6v4.7h-5.7V25.2h5.7v3.3h6v-6.6h7.5
		l1.9-3.9h0c-0.7-0.3-1.3-0.9-1.6-1.6v0c0,0-7.3,1.9-7.5,1.9c-1.7,0-3.1-1.4-3.1-3.1c0-1.7,1.4-3.1,3.1-3.1c0.1,0,7.5,1.9,7.5,1.9v0
		c0.5-1.1,1.6-1.9,2.9-1.9c1.3,0,2.4,0.8,2.8,1.9v0l7.2-1.9C46.8,12.1,47,12.1,47.1,12.1 M47.1,10.1h-0.3h-0.3l-0.2,0.1l-5.8,1.5
		c-0.9-1-2.3-1.6-3.7-1.6c-1.4,0-2.8,0.6-3.7,1.6c-6.3-1.6-6.3-1.6-6.6-1.6c-2.8,0-5.1,2.3-5.1,5.1c0,2.1,1.3,4,3.2,4.7h-0.4v2v4.6
		h-2v-1.3v-2h-2h-5.7h-2v2v31.4v2h2h5.7h2v-2v-2.7h4h21.5h2.7v0.7h-1.7h-2v2v9.4v2h2h30.9h2v-2v-9.4v-2h-2h-2l0-12.3
		c0-8.7-7.1-15.8-15.9-15.8l-9.7,0h-2.2v-4.6v-2H49c1.9-0.8,3.2-2.6,3.2-4.7C52.2,12.4,49.9,10.1,47.1,10.1L47.1,10.1z M28.3,19.9
		c0.9-0.2,2.4-0.6,4.7-1.2l-0.6,1.2H28.3L28.3,19.9z M41.3,19.9l-0.6-1.2c2.2,0.6,3.6,0.9,4.5,1.2H41.3L41.3,19.9z"/>
</g>
</svg>
