<?xml version="1.0" encoding="utf-8"?>
<!-- Generator: Adobe Illustrator 25.2.3, SVG Export Plug-In . SVG Version: 6.00 Build 0)  -->
<svg version="1.1" id="Слой_1" xmlns="http://www.w3.org/2000/svg" xmlns:xlink="http://www.w3.org/1999/xlink" x="0px" y="0px"
	 viewBox="0 0 60 75" style="enable-background:new 0 0 60 75;" xml:space="preserve">
<path d="M11.4,48.1c-0.6,0-1,0.5-1,1V54c0,0.5,0.4,1,1,1h37.2c0.5,0,1-0.5,1-1v-4.9c0-0.5-0.5-1-1-1h-1.2v-22h1.2c0.5,0,1-0.5,1-1
	v-4.9c0-0.5-0.5-1-1-1h-5.9v-1.7h1.2c0.5,0,1-0.5,1-1s-0.5-1-1-1h-1.2v-2.2h1.2c0.5,0,1-0.4,1-1s-0.5-1-1-1h-1.2V9.1h1.2
	c0.5,0,1-0.4,1-1s-0.5-1-1-1h-1.2V6c0-0.6-0.5-1-1-1s-1,0.4-1,1v1.1h-1.2c-0.5,0-1,0.4-1,1s0.5,1,1,1h1.2v2.2h-1.2c-0.5,0-1,0.4-1,1
	s0.5,1,1,1h1.2v2.2h-1.2c-0.5,0-1,0.4-1,1c0,0.5,0.5,1,1,1h1.2v1.7H31v-1.7h1.2c0.5,0,1-0.5,1-1s-0.5-1-1-1H31v-2.2h1.2
	c0.5,0,1-0.4,1-1s-0.5-1-1-1H31V9.1h1.2c0.5,0,1-0.4,1-1s-0.5-1-1-1H31V6c0-0.6-0.5-1-1-1s-1,0.4-1,1v1.1h-1.2c-0.5,0-1,0.4-1,1
	s0.5,1,1,1H29v2.2h-1.2c-0.5,0-1,0.4-1,1s0.5,1,1,1H29v2.2h-1.2c-0.5,0-1,0.4-1,1c0,0.5,0.5,1,1,1H29v1.7h-9.7v-1.7h1.2
	c0.5,0,1-0.5,1-1s-0.5-1-1-1h-1.2v-2.2h1.2c0.5,0,1-0.4,1-1s-0.5-1-1-1h-1.2V9.1h1.2c0.5,0,1-0.4,1-1s-0.5-1-1-1h-1.2V6
	c0-0.6-0.5-1-1-1s-1,0.4-1,1v1.1h-1.2c-0.6,0-1,0.4-1,1s0.4,1,1,1h1.2v2.2h-1.2c-0.6,0-1,0.4-1,1s0.4,1,1,1h1.2v2.2h-1.2
	c-0.6,0-1,0.4-1,1c0,0.5,0.4,1,1,1h1.2v1.7h-5.9c-0.6,0-1,0.5-1,1v4.9c0,0.5,0.4,1,1,1h1.2v22C12.6,48.1,11.4,48.1,11.4,48.1z
	 M47.6,53H12.4v-2.9h1.2h32.8h1.2V53z M12.4,21.1h35.2v2.9h-1.2H13.6h-1.2V21.1z M14.6,26.1h30.8v22H14.6V26.1z"/>
<path d="M34.2,33.4H32l0.5-4.4c0-0.3,0-0.6-0.2-0.8c-0.2-0.2-0.5-0.3-0.8-0.3h-3.9c-0.5,0-0.9,0.3-1,0.8l-1.8,8.2
	c-0.1,0.3,0,0.6,0.2,0.8c0.2,0.2,0.5,0.4,0.8,0.4h1.6l-0.8,7.1c0,0.5,0.2,0.9,0.7,1.1c0.1,0,0.2,0,0.3,0c0.3,0,0.7-0.2,0.9-0.5
	L35,34.9c0.2-0.3,0.2-0.7,0-1S34.5,33.4,34.2,33.4z M29.1,40.8l0.4-3.7c0-0.3-0.1-0.6-0.2-0.8s-0.5-0.3-0.8-0.3H27l1.4-6.2h2
	l-0.5,4.4c0,0.3,0,0.6,0.2,0.8s0.5,0.3,0.8,0.3h1.6L29.1,40.8z"/>
</svg>
