<?xml version="1.0" encoding="utf-8"?>
<!-- Generator: Adobe Illustrator 25.2.3, SVG Export Plug-In . SVG Version: 6.00 Build 0)  -->
<svg version="1.1" id="Слой_1" xmlns="http://www.w3.org/2000/svg" xmlns:xlink="http://www.w3.org/1999/xlink" x="0px" y="0px"
	 viewBox="0 0 42.8 42.8" style="enable-background:new 0 0 42.8 42.8;" xml:space="preserve">
<style type="text/css">
	.st0{clip-path:url(#SVGID_2_);fill:#C1A206;}
	.st1{clip-path:url(#SVGID_2_);fill:#FFFFFF;}
</style>
<g>
	<defs>
		<rect id="SVGID_1_" y="0" width="42.8" height="42.8"/>
	</defs>
	<clipPath id="SVGID_2_">
		<use xlink:href="#SVGID_1_"  style="overflow:visible;"/>
	</clipPath>
	<path class="st0" d="M21.4,42.8c11.8,0,21.4-9.6,21.4-21.4C42.8,9.6,33.2,0,21.4,0S0,9.6,0,21.4C0,33.2,9.6,42.8,21.4,42.8"/>
	<path class="st1" d="M23.3,22v-0.8c0-0.4,0.3-0.8,0.8-0.8c0.4,0,0.8,0.4,0.8,0.8c0,0.4-0.3,0.8-0.8,0.8H23.3z M26.9,26
		c-1.3,1.3-2.2,3.1-2.3,4.9h-1.3v-7.7H24c1.1,0,1.9-0.9,1.9-2c0-1.1-0.9-2-1.9-2c-1.1,0-1.9,0.9-1.9,2V22h-1.3v-0.8
		c0-1.1-0.9-2-1.9-2c-1.1,0-1.9,0.9-1.9,2c0,1.1,0.9,2,1.9,2h0.8v7.7h-1.3c-0.1-1.9-1-3.6-2.3-4.9c-1.8-1.8-2.7-4.2-2.5-6.8
		c0.3-4,3.5-7.2,7.4-7.5c0.2,0,0.4,0,0.6,0c0.2,0,0.4,0,0.6,0c3.9,0.3,7,3.5,7.4,7.5C29.6,21.8,28.7,24.3,26.9,26 M23.8,36.2h-0.4
		c-0.1,0-0.1,0-0.2,0h-3.5c-0.1,0-0.1,0-0.2,0h-0.4c-0.3,0-0.5-0.2-0.7-0.4h5.9C24.3,36,24.1,36.2,23.8,36.2 M21.5,38.1
		c-0.4,0-0.8-0.3-1-0.6h2.1C22.3,37.8,21.9,38.1,21.5,38.1 M18.4,34h6.2v0.6h-6.2V34z M20.8,23.2h1.3v7.7h-1.3V23.2z M19.7,22h-0.8
		c-0.4,0-0.8-0.4-0.8-0.8c0-0.4,0.3-0.8,0.8-0.8s0.8,0.4,0.8,0.8V22z M24.5,32.7h-6.2v-0.6h6.2V32.7z M31,19c-0.4-4.8-4.2-8.6-8.8-9
		c-0.5,0-0.9,0-1.3,0c-4.6,0.3-8.4,4.2-8.8,9c-0.3,3.1,0.8,6.1,3,8.2c1.2,1.1,1.8,2.7,1.8,4.3v3.8c0,1.2,0.9,2.3,2,2.4
		c0.4,1,1.3,1.9,2.6,1.9c1.2,0,2.2-0.9,2.6-1.9c1.2-0.1,2-1.2,2-2.4v-3.8c0-1.6,0.7-3.2,1.8-4.3C30.1,25.1,31.2,22.1,31,19"/>
	<path class="st1" d="M21.5,7.4c0.3,0,0.6-0.3,0.6-0.6V4c0-0.4-0.3-0.6-0.6-0.6c-0.3,0-0.6,0.3-0.6,0.6v2.8
		C20.9,7.1,21.1,7.4,21.5,7.4"/>
	<path class="st1" d="M30.9,6.6c-0.3-0.2-0.7-0.1-0.9,0.1L28.5,9c-0.2,0.3-0.1,0.7,0.1,0.9c0.3,0.2,0.7,0.1,0.9-0.1l1.6-2.3
		C31.3,7.2,31.2,6.8,30.9,6.6"/>
	<path class="st1" d="M33.8,16.6l2.6-0.9c0.3-0.1,0.5-0.5,0.4-0.8c-0.1-0.3-0.5-0.5-0.8-0.4l-2.6,0.9c-0.3,0.1-0.5,0.5-0.4,0.8
		C33.1,16.6,33.5,16.8,33.8,16.6"/>
	<path class="st1" d="M36.3,24.5l-2.6-0.9c-0.3-0.1-0.7,0.1-0.8,0.4c-0.1,0.3,0.1,0.7,0.4,0.8l2.6,0.9c0.3,0.1,0.7-0.1,0.8-0.4
		C36.8,25,36.6,24.6,36.3,24.5"/>
	<path class="st1" d="M29.3,30.5c-0.2-0.3-0.6-0.3-0.9-0.1c-0.3,0.2-0.3,0.6-0.1,0.9l1.6,2.3c0.2,0.3,0.6,0.3,0.9,0.1
		c0.3-0.2,0.3-0.6,0.1-0.9L29.3,30.5z"/>
	<path class="st1" d="M14.1,30.3c-0.3-0.2-0.7-0.1-0.9,0.1l-1.6,2.3c-0.2,0.3-0.1,0.7,0.1,0.9c0.3,0.2,0.7,0.1,0.9-0.1l1.6-2.3
		C14.5,30.9,14.4,30.5,14.1,30.3"/>
	<path class="st1" d="M9.8,23.9c-0.1-0.3-0.5-0.5-0.8-0.4l-2.6,0.9c-0.3,0.1-0.5,0.5-0.4,0.8c0.1,0.3,0.5,0.5,0.8,0.4l2.6-0.9
		C9.7,24.6,9.9,24.2,9.8,23.9"/>
	<path class="st1" d="M9.4,15.3l-2.6-0.9c-0.3-0.1-0.7,0.1-0.8,0.4c-0.1,0.3,0.1,0.7,0.4,0.8L9,16.5c0.3,0.1,0.7-0.1,0.8-0.4
		C9.9,15.7,9.7,15.4,9.4,15.3"/>
	<path class="st1" d="M13.4,9.6c0.2,0.3,0.6,0.3,0.9,0.1c0.3-0.2,0.3-0.6,0.1-0.9l-1.6-2.3c-0.2-0.3-0.6-0.3-0.9-0.1
		c-0.3,0.2-0.3,0.6-0.1,0.9L13.4,9.6z"/>
</g>
</svg>
