<?xml version="1.0" encoding="utf-8"?>
<!-- Generator: Adobe Illustrator 25.2.3, SVG Export Plug-In . SVG Version: 6.00 Build 0)  -->
<svg version="1.1" id="Слой_1" xmlns="http://www.w3.org/2000/svg" xmlns:xlink="http://www.w3.org/1999/xlink" x="0px" y="0px"
	 viewBox="0 0 42.8 42.8" style="enable-background:new 0 0 42.8 42.8;" xml:space="preserve">
<style type="text/css">
	.st0{clip-path:url(#SVGID_2_);fill:#C1A206;}
	.st1{clip-path:url(#SVGID_2_);fill:#FFFFFF;}
</style>
<g>
	<defs>
		<rect id="SVGID_1_" width="42.8" height="42.8"/>
	</defs>
	<clipPath id="SVGID_2_">
		<use xlink:href="#SVGID_1_"  style="overflow:visible;"/>
	</clipPath>
	<path class="st0" d="M21.4,42.8c11.8,0,21.4-9.6,21.4-21.4C42.8,9.6,33.2,0,21.4,0S0,9.6,0,21.4C0,33.2,9.6,42.8,21.4,42.8"/>
	<path class="st1" d="M11.8,19.5c0,2.6,2.1,4.8,4.7,4.8h0.7c2.6,0,4.7-2.1,4.7-4.8v-4.5H11.8V19.5z M10.2,19.5v-5.3
		c0-0.4,0.4-0.8,0.8-0.8h2.1V9.6c0-0.4,0.4-0.8,0.8-0.8s0.8,0.4,0.8,0.8v3.9H19V9.6c0-0.4,0.4-0.8,0.8-0.8c0.4,0,0.8,0.4,0.8,0.8
		v3.9h2.1c0.4,0,0.8,0.4,0.8,0.8v5.3c0,3.3-2.5,6.1-5.8,6.3c0,0.3,0,1.2,0,3.8c0,1.5,1.3,2.7,2.8,2.7c1.4,0,2.6-1.2,2.6-2.7v-0.4
		c0-2.4,1.9-4.4,4.3-4.4h4.2c0.4,0,0.8,0.4,0.8,0.8s-0.4,0.8-0.8,0.8h-4.2c-1.5,0-2.7,1.2-2.7,2.8v0.4c-0.1,2.4-2,4.3-4.4,4.3
		c-2.3-0.1-4.1-1.9-4.2-4.2v-3.8C12.8,25.7,10.3,22.9,10.2,19.5 M26.4,17.6c-0.2-0.2-0.2-0.5-0.1-0.7l1.6-4.8c0.1-0.4,0.6-0.6,1-0.5
		c0.4,0.1,0.6,0.6,0.5,1l-1.2,3.7l2.3-0.2c0.4,0,0.8,0.3,0.8,0.8c0,0.1,0,0.2,0,0.3l-1.6,4.8c-0.1,0.4-0.6,0.6-1,0.5
		c-0.4-0.1-0.6-0.6-0.5-1l1.2-3.7l-2.3,0.2C26.9,17.9,26.6,17.8,26.4,17.6"/>
</g>
</svg>
