<?xml version="1.0" encoding="utf-8"?>
<!-- Generator: Adobe Illustrator 25.2.3, SVG Export Plug-In . SVG Version: 6.00 Build 0)  -->
<svg version="1.1" id="Слой_1" xmlns="http://www.w3.org/2000/svg" xmlns:xlink="http://www.w3.org/1999/xlink" x="0px" y="0px"
	 viewBox="0 0 42.8 42.8" style="enable-background:new 0 0 42.8 42.8;" xml:space="preserve">
<style type="text/css">
	.st0{clip-path:url(#SVGID_2_);fill:#C1A206;}
	.st1{clip-path:url(#SVGID_4_);fill:#FFFFFF;}
</style>
<g>
	<defs>
		<rect id="SVGID_1_" width="42.8" height="42.8"/>
	</defs>
	<clipPath id="SVGID_2_">
		<use xlink:href="#SVGID_1_"  style="overflow:visible;"/>
	</clipPath>
	<path class="st0" d="M21.4,42.8c11.8,0,21.4-9.6,21.4-21.4C42.8,9.6,33.2,0,21.4,0S0,9.6,0,21.4C0,33.2,9.6,42.8,21.4,42.8"/>
</g>
<g>
	<defs>
		<path id="SVGID_3_" d="M21.4,0C9.6,0,0,9.6,0,21.4c0,11.7,9.5,21.3,21.2,21.4h0.4c11.7-0.1,21.2-9.6,21.2-21.4
			C42.8,9.6,33.2,0,21.4,0z"/>
	</defs>
	<clipPath id="SVGID_4_">
		<use xlink:href="#SVGID_3_"  style="overflow:visible;"/>
	</clipPath>
	<path class="st1" d="M23.3,35.5V20.2H28v1.2v3.1v6.6v3.1v1.2H23.3z M10.3,27.9c0-1.8,1.5-3.3,3.5-3.3c0,0,0.1,0,0.1,0
		c-0.2,0.6-0.3,1.1-0.4,1.7v0c0,0.1,0,0.2,0,0.3c0,0,0,0,0,0c0,0.1,0,0.2,0,0.3v2c0,0.1,0,0.2,0,0.3c0,0,0,0,0,0
		c0,0.7,0.2,1.4,0.4,2c0,0,0,0-0.1,0C11.9,31.2,10.3,29.7,10.3,27.9 M28.7,35.8v-1.2H34c1.1,0,2-0.8,2-1.9c0-1-0.9-1.9-2-1.9h-5.4
		v-6H34c1.1,0,2-0.8,2-1.9c0-1-0.9-1.9-2-1.9h-5.4v-1.2c0-0.2-0.1-0.3-0.3-0.3h-7.3c-3.1,0-5.8,1.8-7,4.3c-0.1,0-0.2,0-0.3,0
		c-2.2,0-4,1.6-4.1,3.7c-0.5,0.1-1.8,0.4-3.3,0.4C3.7,27.9,1.6,27,0,25.1C-2,22.8-2.5,20-2.6,18c-0.1-2.1,0.4-3.8,0.4-3.8
		c0-0.2-0.1-0.3-0.2-0.4c-0.2,0-0.3,0.1-0.4,0.2c0,0.1-0.4,1.5-0.4,3.6c0,0.1,0,0.2,0,0.4c0,2.1,0.6,5.1,2.7,7.5
		c2.2,2.5,4.9,3.1,6.9,3.1c1.5,0,2.7-0.2,3.3-0.4c0.2,2,2,3.5,4.1,3.5c0.1,0,0.2,0,0.3,0c1.2,2.6,3.9,4.3,7,4.3h7.3
		C28.5,36.1,28.7,36,28.7,35.8"/>
	<path class="st1" d="M27.1,24c0-0.8-0.7-1.5-1.6-1.5s-1.6,0.7-1.6,1.5c0,0.8,0.7,1.5,1.6,1.5S27.1,24.8,27.1,24"/>
	<path class="st1" d="M27.1,32.1c0-0.8-0.7-1.5-1.6-1.5s-1.6,0.7-1.6,1.5c0,0.8,0.7,1.5,1.6,1.5S27.1,32.9,27.1,32.1"/>
</g>
</svg>
