<?xml version="1.0" encoding="utf-8"?>
<!-- Generator: Adobe Illustrator 25.2.3, SVG Export Plug-In . SVG Version: 6.00 Build 0)  -->
<svg fill="#c1a205" version="1.1" id="Слой_1" xmlns="http://www.w3.org/2000/svg" xmlns:xlink="http://www.w3.org/1999/xlink" x="0px" y="0px"
	 viewBox="0 0 100 125" style="enable-background:new 0 0 100 125;" xml:space="preserve">
<g>
	<path d="M50,60.6c10.6,0,19.4-13.1,20.3-24H29.7C30.6,47.5,39.4,60.6,50,60.6z"/>
	<path d="M76.1,70.5v13.9c2.7,1.2,4.5,3.8,4.5,6.8V95c9.7-2.8,9.7-7.4,9.7-12.7C90.3,77.6,84.8,73.4,76.1,70.5z"/>
	<path d="M23.9,84.5V70.5c-8.7,2.8-14.2,7-14.2,11.7c0,5.3,0,10,9.7,12.7v-3.7C19.4,88.3,21.2,85.6,23.9,84.5z"/>
	<path d="M67.2,83.8V68.3c-5.2-0.9-11-1.5-17.2-1.5s-12,0.5-17.2,1.5v15.5C32.8,83.8,67.2,83.8,67.2,83.8z"/>
	<path d="M74.1,29.9c0-1.6-1.3-3-3-3h-0.8c0-7.9-4.5-14.8-11.1-18.1l-1.7,9.5c-0.1,0.8-0.8,1.3-1.5,1.3c-0.1,0-0.2,0-0.3,0
		c-0.8-0.2-1.4-1-1.3-1.8l1.9-10.9c-0.7-1.2-2-1.9-3.5-1.9h-5.8c-1.5,0-2.7,0.8-3.5,1.9l1.9,10.9c0.1,0.8-0.4,1.7-1.3,1.8
		c-0.1,0-0.2,0-0.3,0c-0.7,0-1.4-0.5-1.5-1.3l-1.7-9.5C34.2,12.2,29.7,19,29.7,26.9h-0.8c-1.6,0-3,1.3-3,3s1.3,3,3,3h42.2
		C72.8,32.9,74.1,31.6,74.1,29.9z"/>
	<circle cx="27.8" cy="91" r="3.7"/>
	<circle cx="71.6" cy="91" r="3.7"/>
</g>
</svg>
