<?xml version="1.0" encoding="utf-8"?>
<!-- Generator: Adobe Illustrator 25.2.3, SVG Export Plug-In . SVG Version: 6.00 Build 0)  -->
<svg version="1.1" id="Слой_1" xmlns="http://www.w3.org/2000/svg" xmlns:xlink="http://www.w3.org/1999/xlink" x="0px" y="0px"
	 viewBox="0 0 42.8 42.8" style="enable-background:new 0 0 42.8 42.8;" xml:space="preserve">
<style type="text/css">
	.st0{clip-path:url(#SVGID_2_);fill:#C1A206;}
	.st1{clip-path:url(#SVGID_4_);fill:#FFFFFF;}
</style>
<g>
	<defs>
		<rect id="SVGID_1_" width="42.8" height="42.8"/>
	</defs>
	<clipPath id="SVGID_2_">
		<use xlink:href="#SVGID_1_"  style="overflow:visible;"/>
	</clipPath>
	<path class="st0" d="M21.4,42.8c11.8,0,21.4-9.6,21.4-21.4C42.8,9.6,33.2,0,21.4,0S0,9.6,0,21.4C0,33.2,9.6,42.8,21.4,42.8"/>
</g>
<g>
	<defs>
		<path id="SVGID_3_" d="M21.2,0C9.5,0.1,0,9.6,0,21.4c0,11.8,9.6,21.4,21.4,21.4c11.8,0,21.4-9.6,21.4-21.4
			C42.8,9.6,33.3,0.1,21.6,0H21.2z"/>
	</defs>
	<clipPath id="SVGID_4_">
		<use xlink:href="#SVGID_3_"  style="overflow:visible;"/>
	</clipPath>
	<path class="st1" d="M6.7,12.6c0-3,2.4-5.5,5.3-5.5c2.9,0,5.3,2.5,5.3,5.5s-2.4,5.5-5.3,5.5S6.7,15.6,6.7,12.6 M18.5,12.6
		c0-3.7-2.9-6.7-6.5-6.7c-3.6,0-6.5,3-6.5,6.7s2.9,6.7,6.5,6.7C15.6,19.3,18.5,16.3,18.5,12.6"/>
	<path class="st1" d="M11.4,28.6l-0.6-4.1c0-0.3-0.2-0.5-0.5-0.5c-0.8-0.1-1.5-0.3-2.3-0.6c-0.2-0.1-0.5,0-0.7,0.2l-2.5,3.2
		l-1.1-0.7l1.4-3.8c0.1-0.2,0-0.5-0.2-0.7c-0.6-0.5-1.2-1.1-1.7-1.7c-0.2-0.2-0.4-0.3-0.7-0.2L-1,21.1L-1.7,20l3.1-2.6
		c0.2-0.2,0.3-0.5,0.2-0.7C1.3,16,1.1,15.2,1,14.4c0-0.3-0.2-0.5-0.5-0.5l-3.9-0.6v-1.3l3.9-0.6c0.3,0,0.5-0.2,0.5-0.5
		C1.1,10,1.3,9.2,1.6,8.4c0.1-0.2,0-0.5-0.2-0.7l-3.1-2.6L-1,4l3.7,1.5c0.2,0.1,0.5,0,0.7-0.2C3.9,4.7,4.4,4.1,5,3.6
		c0.2-0.2,0.3-0.5,0.2-0.7L3.8-1l1.1-0.7l2.5,3.2C7.5,1.8,7.8,1.9,8,1.8c0.7-0.3,1.5-0.5,2.3-0.6c0.3,0,0.5-0.2,0.5-0.5l0.6-4.1h1.3
		l0.6,4.1c0,0.3,0.2,0.5,0.5,0.5c0.8,0.1,1.6,0.3,2.3,0.6c0.2,0.1,0.5,0,0.7-0.2l2.5-3.2L20.3-1l-1.5,3.8c-0.1,0.2,0,0.5,0.2,0.7
		c0.6,0.5,1.2,1.1,1.7,1.7c0.2,0.2,0.4,0.3,0.7,0.2L25.1,4l0.6,1.1l-3.1,2.6c-0.2,0.2-0.3,0.5-0.2,0.7c0.3,0.8,0.5,1.6,0.6,2.4
		c0,0.3,0.2,0.5,0.5,0.5l3.9,0.6v1.3l-3.9,0.6c-0.3,0-0.5,0.2-0.5,0.5c-0.1,0.8-0.3,1.6-0.6,2.4c-0.1,0.2,0,0.5,0.2,0.7l3.1,2.6
		l-0.6,1.1l-3.7-1.5c-0.2-0.1-0.5,0-0.7,0.2c-0.5,0.6-1.1,1.2-1.7,1.7c-0.2,0.2-0.3,0.5-0.2,0.7l1.5,3.8l-1.1,0.7l-2.5-3.2
		c-0.2-0.2-0.4-0.3-0.7-0.2c-0.8,0.3-1.5,0.5-2.3,0.6c-0.3,0-0.5,0.2-0.5,0.5l-0.6,4.1L11.4,28.6L11.4,28.6z M13.7,29.3l0.6-4.1
		c0.6-0.1,1.1-0.3,1.7-0.5l2.5,3.3c0.2,0.2,0.5,0.3,0.8,0.2l2-1.2c0.3-0.2,0.4-0.5,0.3-0.8l-1.5-3.9c0.4-0.4,0.8-0.8,1.2-1.3
		l3.8,1.5c0.3,0.1,0.6,0,0.7-0.3l1.2-2.1c0.1-0.3,0.1-0.6-0.2-0.8l-3.2-2.6c0.2-0.6,0.3-1.1,0.5-1.7l4-0.6c0.3,0,0.5-0.3,0.5-0.6
		v-2.4c0-0.3-0.2-0.6-0.5-0.6l-4-0.6C24,9.6,23.9,9,23.7,8.4l3.2-2.6C27.1,5.6,27.1,5.3,27,5l-1.2-2.1c-0.1-0.3-0.5-0.4-0.7-0.3
		l-3.8,1.5c-0.4-0.5-0.8-0.9-1.2-1.3L21.6-1c0.1-0.3,0-0.6-0.3-0.8l-2-1.2c-0.3-0.2-0.6-0.1-0.8,0.2L16,0.5
		c-0.5-0.2-1.1-0.4-1.7-0.5l-0.6-4.1c0-0.3-0.3-0.5-0.6-0.5h-2.3c-0.3,0-0.6,0.2-0.6,0.5L9.6,0C9.1,0.1,8.5,0.3,8,0.5L5.4-2.8
		C5.2-3,4.9-3.1,4.7-3l-2,1.2C2.4-1.6,2.3-1.3,2.4-1l1.5,3.9C3.5,3.3,3,3.7,2.7,4.2l-3.8-1.5c-0.3-0.1-0.6,0-0.7,0.3L-3,5
		c-0.2,0.3-0.1,0.6,0.1,0.8l3.2,2.6C0.1,9,0,9.6-0.1,10.2l-4,0.6c-0.3,0-0.5,0.3-0.5,0.6v2.4c0,0.3,0.2,0.6,0.5,0.6l4,0.6
		c0.1,0.6,0.3,1.2,0.5,1.7l-3.2,2.6c-0.2,0.2-0.3,0.5-0.1,0.8l1.1,2.1c0.2,0.3,0.5,0.4,0.7,0.3L2.7,21c0.4,0.5,0.8,0.9,1.2,1.3
		l-1.5,3.9c-0.1,0.3,0,0.6,0.3,0.8l2,1.2c0.3,0.2,0.6,0.1,0.8-0.2l2.5-3.3c0.6,0.2,1.1,0.4,1.7,0.5l0.6,4.1c0,0.3,0.3,0.5,0.6,0.5
		h2.3C13.4,29.8,13.7,29.6,13.7,29.3"/>
	<path class="st1" d="M19.7,12.6c0,0.7,0.5,1.2,1.2,1.2c0.7,0,1.2-0.6,1.2-1.2c0-0.7-0.5-1.2-1.2-1.2C20.2,11.3,19.7,11.9,19.7,12.6
		"/>
	<path class="st1" d="M19.7,17.2h-0.6H19.7z M18.7,16.5c-0.1,0.2-0.2,0.4-0.2,0.6c0,0.4,0.2,0.9,0.6,1.1c0.3,0.2,0.6,0.2,0.9,0.1
		c0.3-0.1,0.6-0.3,0.7-0.6c0.1-0.2,0.2-0.4,0.2-0.6c0-0.4-0.2-0.9-0.6-1.1c-0.3-0.2-0.6-0.2-0.9-0.1C19.1,16.1,18.8,16.3,18.7,16.5"
		/>
	<path class="st1" d="M15.2,20.5c0,0.2,0.1,0.4,0.2,0.6c0.3,0.6,1.1,0.8,1.6,0.5c0.4-0.2,0.6-0.6,0.6-1.1c0-0.2-0.1-0.4-0.2-0.6
		c-0.2-0.3-0.4-0.5-0.7-0.6c-0.3-0.1-0.6,0-0.9,0.1C15.5,19.7,15.2,20.1,15.2,20.5"/>
	<path class="st1" d="M13.2,21.8c0-0.7-0.5-1.2-1.2-1.2c-0.7,0-1.2,0.6-1.2,1.2c0,0.7,0.5,1.2,1.2,1.2C12.7,23,13.2,22.5,13.2,21.8"
		/>
	<path class="st1" d="M8.6,21.2c0.1-0.2,0.2-0.4,0.2-0.6c0-0.4-0.2-0.9-0.6-1.1c-0.6-0.3-1.3-0.1-1.6,0.5c-0.1,0.2-0.2,0.4-0.2,0.6
		c0,0.4,0.2,0.9,0.6,1.1c0.3,0.2,0.6,0.2,0.9,0.1C8.2,21.7,8.4,21.5,8.6,21.2"/>
	<path class="st1" d="M5.5,17.2c0-0.2-0.1-0.4-0.2-0.6C5,16,4.3,15.8,3.7,16.1c-0.4,0.2-0.6,0.6-0.6,1.1c0,0.2,0.1,0.4,0.2,0.6
		c0.3,0.6,1.1,0.8,1.6,0.5C5.3,18,5.5,17.6,5.5,17.2"/>
	<path class="st1" d="M4.3,12.6c0-0.7-0.5-1.2-1.2-1.2c-0.7,0-1.2,0.6-1.2,1.2c0,0.7,0.5,1.2,1.2,1.2C3.8,13.8,4.3,13.3,4.3,12.6"/>
	<path class="st1" d="M5.4,8.6C5.5,8.4,5.5,8.2,5.5,8c0-0.4-0.2-0.9-0.6-1.1C4.3,6.6,3.6,6.8,3.3,7.3C3.2,7.5,3.1,7.8,3.1,8
		c0,0.4,0.2,0.9,0.6,1.1C4.3,9.4,5,9.2,5.4,8.6"/>
	<path class="st1" d="M8.8,4.6c0-0.2-0.1-0.4-0.2-0.6C8.4,3.7,8.2,3.5,7.9,3.4C7.6,3.3,7.2,3.4,7,3.5C6.6,3.8,6.4,4.2,6.4,4.6
		c0,0.2,0.1,0.4,0.2,0.6C6.9,5.8,7.6,6,8.2,5.7C8.5,5.5,8.8,5.1,8.8,4.6"/>
	<path class="st1" d="M12,4.6c0.7,0,1.2-0.6,1.2-1.2S12.7,2.1,12,2.1c-0.7,0-1.2,0.6-1.2,1.2S11.3,4.6,12,4.6"/>
	<path class="st1" d="M17.5,5.2c0.1-0.2,0.2-0.4,0.2-0.6c0-0.4-0.2-0.8-0.6-1.1c-0.6-0.3-1.3-0.1-1.6,0.4c-0.1,0.2-0.2,0.4-0.2,0.6
		c0,0.4,0.2,0.9,0.6,1.1c0.3,0.2,0.6,0.2,0.9,0.1C17.1,5.7,17.3,5.5,17.5,5.2"/>
	<path class="st1" d="M18.5,8c0,0.2,0.1,0.4,0.2,0.6c0.2,0.3,0.4,0.5,0.7,0.6c0.3,0.1,0.6,0,0.9-0.1c0.4-0.2,0.6-0.6,0.6-1.1
		c0-0.2-0.1-0.4-0.2-0.6c-0.2-0.3-0.4-0.5-0.7-0.6c-0.3-0.1-0.6,0-0.9,0.1C18.7,7.1,18.5,7.5,18.5,8"/>
	<path class="st1" d="M33.3,41.4l-0.4-2.5c0-0.3-0.2-0.5-0.5-0.5c-0.5-0.1-1-0.2-1.5-0.4c-0.3-0.1-0.5,0-0.7,0.2l-1.5,2l-0.4-0.2
		l0.9-2.3c0.1-0.2,0-0.5-0.2-0.7c-0.4-0.3-0.8-0.7-1.1-1.1c-0.2-0.2-0.4-0.3-0.7-0.2l-2.2,0.9l-0.2-0.4l1.9-1.6
		c0.2-0.2,0.3-0.5,0.2-0.7c-0.2-0.5-0.3-1-0.4-1.5c0-0.3-0.2-0.5-0.5-0.5l-2.4-0.4v-0.5l2.4-0.4c0.3,0,0.5-0.2,0.5-0.5
		c0.1-0.5,0.2-1,0.4-1.5c0.1-0.2,0-0.5-0.2-0.7l-1.9-1.5l0.2-0.4l2.2,0.9c0.2,0.1,0.5,0,0.7-0.2c0.3-0.4,0.7-0.8,1.1-1.1
		c0.2-0.2,0.3-0.5,0.2-0.7l-0.9-2.3l0.4-0.2l1.5,2c0.2,0.2,0.4,0.3,0.7,0.2c0.5-0.2,0.9-0.3,1.5-0.4c0.3,0,0.5-0.2,0.5-0.5l0.4-2.5
		h0.5l0.4,2.5c0,0.3,0.2,0.5,0.5,0.5c0.5,0.1,1,0.2,1.5,0.4c0.2,0.1,0.5,0,0.7-0.2l1.5-2l0.4,0.2l-0.9,2.3c-0.1,0.2,0,0.5,0.2,0.7
		c0.4,0.3,0.8,0.7,1.1,1.1c0.2,0.2,0.4,0.3,0.7,0.2l2.2-0.9l0.2,0.4l-1.9,1.5c-0.2,0.2-0.3,0.5-0.2,0.7c0.2,0.5,0.3,1,0.4,1.5
		c0,0.3,0.2,0.5,0.5,0.5l2.4,0.4v0.5L41,31.8c-0.3,0-0.5,0.2-0.5,0.5c-0.1,0.5-0.2,1-0.4,1.5c-0.1,0.2,0,0.5,0.2,0.7l1.9,1.6
		L42,36.5l-2.2-0.9c-0.2-0.1-0.5,0-0.7,0.2c-0.3,0.4-0.7,0.8-1.1,1.1c-0.2,0.2-0.3,0.5-0.2,0.7l0.9,2.3l-0.4,0.2l-1.5-2
		c-0.2-0.2-0.4-0.3-0.7-0.2c-0.5,0.2-0.9,0.3-1.5,0.4c-0.3,0-0.5,0.2-0.5,0.5l-0.4,2.5L33.3,41.4z M34.8,42.1l0.4-2.6
		c0.3-0.1,0.6-0.1,0.8-0.2l1.6,2c0.2,0.2,0.5,0.3,0.8,0.2l1.3-0.8c0.3-0.2,0.4-0.5,0.3-0.8L39,37.5c0.2-0.2,0.4-0.4,0.6-0.6l2.3,0.9
		c0.3,0.1,0.6,0,0.7-0.3l0.8-1.4c0.2-0.3,0.1-0.6-0.2-0.8l-2-1.6c0.1-0.3,0.2-0.6,0.2-0.9l2.5-0.4c0.3,0,0.5-0.3,0.5-0.6v-1.6
		c0-0.3-0.2-0.6-0.5-0.6l-2.5-0.4c-0.1-0.3-0.1-0.6-0.2-0.9l2-1.6c0.2-0.2,0.3-0.5,0.2-0.8l-0.8-1.4c-0.2-0.3-0.5-0.4-0.7-0.3
		l-2.3,0.9c-0.2-0.2-0.4-0.4-0.6-0.6l0.9-2.4c0.1-0.3,0-0.6-0.3-0.8l-1.3-0.8c-0.3-0.2-0.6-0.1-0.8,0.2l-1.6,2
		c-0.3-0.1-0.6-0.2-0.8-0.2l-0.4-2.6c0-0.3-0.3-0.5-0.6-0.5h-1.5c-0.3,0-0.6,0.2-0.6,0.5l-0.4,2.6c-0.3,0.1-0.6,0.1-0.8,0.2l-1.6-2
		c-0.2-0.2-0.5-0.3-0.8-0.2l-1.3,0.8c-0.3,0.2-0.4,0.5-0.3,0.8l0.9,2.4c-0.2,0.2-0.4,0.4-0.6,0.6L25,24.5c-0.3-0.1-0.6,0-0.7,0.3
		l-0.8,1.4c-0.1,0.3-0.1,0.6,0.1,0.8l2,1.6c-0.1,0.3-0.2,0.6-0.2,0.9L23,29.8c-0.3,0-0.5,0.3-0.5,0.6v1.6c0,0.3,0.2,0.6,0.5,0.6
		l2.5,0.4c0.1,0.3,0.1,0.6,0.2,0.9l-2,1.6c-0.2,0.2-0.3,0.5-0.1,0.8l0.8,1.4c0.1,0.3,0.5,0.4,0.7,0.3l2.3-0.9
		c0.2,0.2,0.4,0.4,0.6,0.6l-0.9,2.4c-0.1,0.3,0,0.6,0.3,0.8l1.3,0.8c0.3,0.2,0.6,0.1,0.8-0.2l1.6-2c0.3,0.1,0.6,0.2,0.8,0.2l0.4,2.6
		c0,0.3,0.3,0.5,0.6,0.5h1.5C34.6,42.6,34.8,42.4,34.8,42.1"/>
	<path class="st1" d="M30.3,31.1c0-1.8,1.5-3.4,3.2-3.4c1.8,0,3.2,1.5,3.2,3.4c0,1.9-1.5,3.4-3.2,3.4C31.7,34.5,30.3,33,30.3,31.1
		 M37.9,31.1c0-2.5-2-4.6-4.4-4.6s-4.4,2.1-4.4,4.6s2,4.6,4.4,4.6S37.9,33.7,37.9,31.1"/>
</g>
</svg>
