<?xml version="1.0" encoding="utf-8"?>
<!-- Generator: Adobe Illustrator 25.2.3, SVG Export Plug-In . SVG Version: 6.00 Build 0)  -->
<svg fill="#c1a205" version="1.1" id="Слой_1" xmlns="http://www.w3.org/2000/svg" xmlns:xlink="http://www.w3.org/1999/xlink" x="0px" y="0px"
	 viewBox="0 0 100 125" style="enable-background:new 0 0 100 125;" xml:space="preserve">
<g>
	<polygon points="83,65 65.9,65 65.9,64 82,64 82,36 66.1,36 66.1,35 83,35 	"/>
	<polygon points="33.3,65 16,65 16,35 33.4,35 33.4,36 17,36 17,64 33.3,64 	"/>
	<path d="M13,41.4c-0.9,0-1.7-0.8-1.7-1.7S12.1,38,13,38s1.7,0.8,1.7,1.7S13.9,41.4,13,41.4z M13,39c-0.4,0-0.7,0.3-0.7,0.7
		s0.3,0.7,0.7,0.7s0.7-0.3,0.7-0.7S13.4,39,13,39z"/>
	<path d="M13,48.3c-0.9,0-1.7-0.8-1.7-1.7c0-0.9,0.8-1.7,1.7-1.7s1.7,0.8,1.7,1.7C14.7,47.5,13.9,48.3,13,48.3z M13,45.9
		c-0.4,0-0.7,0.3-0.7,0.7s0.3,0.7,0.7,0.7s0.7-0.3,0.7-0.7S13.4,45.9,13,45.9z"/>
	<path d="M13,62c-0.9,0-1.7-0.8-1.7-1.7c0-0.9,0.8-1.7,1.7-1.7s1.7,0.8,1.7,1.7C14.7,61.2,13.9,62,13,62z M13,59.6
		c-0.4,0-0.7,0.3-0.7,0.7S12.6,61,13,61s0.7-0.3,0.7-0.7S13.4,59.6,13,59.6z"/>
	<path d="M13,55.1c-0.9,0-1.7-0.8-1.7-1.7s0.8-1.7,1.7-1.7s1.7,0.8,1.7,1.7S13.9,55.1,13,55.1z M13,52.7c-0.4,0-0.7,0.3-0.7,0.7
		s0.3,0.7,0.7,0.7s0.7-0.3,0.7-0.7C13.7,53,13.4,52.7,13,52.7z"/>
	<path d="M17,68H9V32h8V68z M10,67h6V33h-6V67z"/>
	<path d="M86,41.4c-0.9,0-1.7-0.8-1.7-1.7S85.1,38,86,38s1.7,0.8,1.7,1.7S86.9,41.4,86,41.4z M86,39c-0.4,0-0.7,0.3-0.7,0.7
		s0.3,0.7,0.7,0.7s0.7-0.3,0.7-0.7S86.4,39,86,39z"/>
	<path d="M86,48.3c-0.9,0-1.7-0.8-1.7-1.7c0-0.9,0.8-1.7,1.7-1.7s1.7,0.8,1.7,1.7C87.7,47.5,86.9,48.3,86,48.3z M86,45.9
		c-0.4,0-0.7,0.3-0.7,0.7s0.3,0.7,0.7,0.7s0.7-0.3,0.7-0.7S86.4,45.9,86,45.9z"/>
	<path d="M86,62c-0.9,0-1.7-0.8-1.7-1.7c0-0.9,0.8-1.7,1.7-1.7s1.7,0.8,1.7,1.7C87.7,61.2,86.9,62,86,62z M86,59.6
		c-0.4,0-0.7,0.3-0.7,0.7S85.6,61,86,61s0.7-0.3,0.7-0.7S86.4,59.6,86,59.6z"/>
	<path d="M86,55.1c-0.9,0-1.7-0.8-1.7-1.7s0.8-1.7,1.7-1.7s1.7,0.8,1.7,1.7S86.9,55.1,86,55.1z M86,52.7c-0.4,0-0.7,0.3-0.7,0.7
		s0.3,0.7,0.7,0.7s0.7-0.3,0.7-0.7C86.7,53,86.4,52.7,86,52.7z"/>
	<path d="M90,68h-8V32h8V68z M83,67h6V33h-6V67z"/>
	<path d="M49.5,72.5c-0.8,0-1.3,0-2.1-0.1C37.1,71.3,28.7,63,27.5,52.7c-0.1-0.9-0.2-1.8-0.2-2.6c0-0.7,0-1.5,0.1-2.3
		c1.1-10.5,9.4-18.9,19.9-20c1.6-0.2,3.2-0.2,4.9,0c10.4,1.2,18.7,9.6,19.8,20c0.1,0.5,0,1,0,1.5c0,0.2,0,0.5,0,0.7
		c0,0.7-0.1,1.3-0.2,1.9c0,0.2-0.1,0.5-0.1,0.7c-1.2,10.2-9.2,18.2-19.5,19.6v0l-1.2,0.1C50.5,72.5,50.2,72.5,49.5,72.5z M49.8,28.6
		c-0.7,0-1.5,0-2.3,0.1c-10,1.1-18,9.1-19.1,19.1c-0.1,0.7-0.1,1.4-0.1,2.2c0,0.8,0,1.7,0.1,2.5c1.2,9.9,9.1,17.8,19,18.8
		c0.8,0.1,1.3,0.1,2,0.1c0.6,0,0.9,0,1.4-0.1l0.7-0.1c10.1-1.2,18-8.9,19.1-18.8c0-0.2,0.1-0.5,0.1-0.7c0.1-0.6,0.2-1.2,0.2-1.8
		c0-0.3,0-0.5,0-0.8c0-0.5,0-0.9,0-1.4c-1-10-9-18-18.9-19.1C51.4,28.7,50.5,28.6,49.8,28.6z M47.7,67.7l-0.6-0.1
		c-7.5-1-13.6-7-14.9-14.7l-0.1-0.6h10.6l0.1,0.3c0.8,2.1,2.4,3.7,4.5,4.4l0.3,0.1V67.7z M33.3,53.3c1.2,5.7,5.7,12,13.4,13.2v-8.7
		c-2.2-0.8-3.8-2.4-4.7-4.5C42,53.3,33.3,53.3,33.3,53.3z M51.2,67.7V57.1l0.3-0.1c2.5-0.8,4.4-2.5,5.1-4.3l0.1-0.3h10.4l-0.1,0.6
		c-1.1,6.8-7.9,13.4-15.2,14.6L51.2,67.7z M52.2,57.8v8.6c6.5-1.4,12.4-7.1,13.7-13.1h-8.5C56.7,55.3,54.8,56.9,52.2,57.8z
		 M49.8,55.3c-2.9,0-5.2-2.3-5.2-5.2s2.3-5.2,5.2-5.2c2.9,0,5.2,2.3,5.2,5.2C55,52.9,52.6,55.3,49.8,55.3z M49.8,45.9
		c-2.3,0-4.2,1.9-4.2,4.2s1.9,4.2,4.2,4.2c2.3,0,4.2-1.9,4.2-4.2S52.1,45.9,49.8,45.9z M67.4,48.8H56.9l-0.1-0.3
		c-0.7-2.1-3-4.5-5.2-5.3L51.2,43V32.5l0.6,0.1c8.3,1.1,14.5,7.4,15.5,15.7L67.4,48.8z M57.6,47.8h8.6c-1.1-7.3-6.7-12.9-14-14.2
		v8.7C54.5,43.2,56.8,45.6,57.6,47.8z M42.7,48.8H32.1l0.1-0.6c1.1-8.5,6.9-14.7,14.9-15.7l0.6-0.1V43l-0.3,0.1
		c-2.6,0.9-4,2.5-4.6,5.3L42.7,48.8z M33.3,47.8h8.6c0.7-2.8,2.2-4.6,4.8-5.5v-8.7C39.6,34.8,34.4,40.2,33.3,47.8z"/>
	<path d="M49.8,28.1c0.8,0,1.7,0,2.5,0.1c5.5,0.6,10.4,3.3,13.9,7.2h16.4v-3h7v35h-7v-3H65.9c-3.5,4-8.5,6.7-14.1,7.3v0
		c-1.1,0.1-1.4,0.1-2.2,0.1c-0.8,0-1.3,0-2.1-0.1c-5.6-0.6-10.6-3.3-14.2-7.4H16.5v3h-7v-35h7v3h16.9c3.5-4,8.5-6.6,14-7.2
		C48.2,28.2,49,28.1,49.8,28.1 M49.8,26.1c-0.8,0-1.7,0-2.5,0.1c-5.6,0.6-10.8,3.1-14.7,7.2h-14v-1v-2h-2h-7h-2v2v35v2h2h7h2v-2v-1
		h13.9c3.9,4.2,9.2,6.8,14.8,7.4c0.8,0.1,1.4,0.1,2.3,0.1c0.7,0,1.1,0,1.7-0.1c0.2,0,0.4,0,0.7-0.1l1.8-0.1v-0.2c5-1,9.5-3.4,13-7
		h13.7v1v2h2h7h2v-2v-35v-2h-2h-7h-2v2v1H67c-3.9-4-9-6.6-14.5-7.2C51.5,26.2,50.6,26.1,49.8,26.1L49.8,26.1z"/>
	<rect x="40.3" y="35" width="6.8" height="1"/>
	<rect x="52" y="35" width="6.8" height="1"/>
	<rect x="40.3" y="64" width="6.8" height="1"/>
	<rect x="52" y="64" width="6.8" height="1"/>
</g>
</svg>
