<?xml version="1.0" encoding="utf-8"?>
<!-- Generator: Adobe Illustrator 25.2.3, SVG Export Plug-In . SVG Version: 6.00 Build 0)  -->
<svg version="1.1" id="Слой_1" xmlns="http://www.w3.org/2000/svg" xmlns:xlink="http://www.w3.org/1999/xlink" x="0px" y="0px"
	 viewBox="0 0 42.8 42.8" style="enable-background:new 0 0 42.8 42.8;" xml:space="preserve">
<style type="text/css">
	.st0{clip-path:url(#SVGID_2_);}
	.st1{clip-path:url(#SVGID_4_);fill:#C1A206;}
	.st2{clip-path:url(#SVGID_4_);fill:#FFFFFF;}
</style>
<g>
	<defs>
		<path id="SVGID_1_" d="M21.4,42.8c11.8,0,21.4-9.6,21.4-21.4C42.8,9.6,33.2,0,21.4,0S0,9.6,0,21.4C0,33.2,9.6,42.8,21.4,42.8"/>
	</defs>
	<clipPath id="SVGID_2_">
		<use xlink:href="#SVGID_1_"  style="overflow:visible;"/>
	</clipPath>
	<g class="st0">
		<defs>
			<rect id="SVGID_3_" y="0" width="42.8" height="44.6"/>
		</defs>
		<clipPath id="SVGID_4_">
			<use xlink:href="#SVGID_3_"  style="overflow:visible;"/>
		</clipPath>
		<path class="st1" d="M21.4,42.8c11.8,0,21.4-9.6,21.4-21.4C42.8,9.6,33.2,0,21.4,0S0,9.6,0,21.4C0,33.2,9.6,42.8,21.4,42.8"/>
		<path class="st2" d="M15.4,13.4l1.8,1.4h-4.4L15.4,13.4z M21.4,9.1L22,9.9h-1.2L21.4,9.1z M25.5,14.9l1.8-1.4l2.7,1.4H25.5z
			 M27.1,24.3l-2.4,2l-0.2-3L27.1,24.3z M26.2,26.7l2.2-1.8l4.5,1.8H26.2z M21.7,41c-0.2-0.1-0.5-0.1-0.7,0l-2.7,1.8l0.1-1.2
			l2.9-3.8l2.9,3.8l0.1,1.2L21.7,41z M14.3,24.8l2.2,1.8H9.8L14.3,24.8z M18,26.3l-2.4-2l2.6-1L18,26.3z M18.7,14.5l-2.1-1.7
			l2.2-1.2L18.7,14.5z M22.6,11.1l0.2,3.7h-2.9l0.2-3.7H22.6z M23.9,11.6l2.2,1.2l-2.1,1.6L23.9,11.6z M22.1,18.4l0.9-1.4l0.2,3
			L22.1,18.4z M19.3,26.7l0.2-3.7h3.8l0.2,3.7H19.3z M22.3,29.8l1.3-1.4l0.2,2.9L22.3,29.8z M19.1,32.9l2.3-2.3l2.3,2.3l-2.3,2.9
			L19.1,32.9z M20.4,27.9h2l-1,1L20.4,27.9z M20.5,29.8L19,31.3l0.2-2.9L20.5,29.8z M21.4,19.6l1.3,2.1H20L21.4,19.6z M20.7,16.1
			h1.4l-0.7,1.1L20.7,16.1z M20.7,18.4l-1,1.6l0.2-3L20.7,18.4z M18.8,34.5l1.8,2.3l-2,2.6L18.8,34.5z M24.2,39.4l-2-2.6l1.8-2.3
			L24.2,39.4z M18.3,21.9L6.4,26.7c-0.3,0.1-0.5,0.5-0.3,0.8c0.1,0.2,0.3,0.4,0.6,0.4h1.2V31c0,0.3,0.3,0.6,0.6,0.6s0.6-0.3,0.6-0.6
			v-3.1h3.7V31c0,0.3,0.3,0.6,0.6,0.6c0.3,0,0.6-0.3,0.6-0.6v-3.1h4l-0.3,4.9v0L17.1,44c0,0.3,0.2,0.6,0.6,0.7c0.1,0,0.3,0,0.4-0.1
			l3.4-2.3l3.4,2.3c0.3,0.2,0.7,0.1,0.9-0.2c0.1-0.1,0.1-0.2,0.1-0.4l-0.6-11.2v0l-0.3-4.9h4V31c0,0.3,0.3,0.6,0.6,0.6
			S30,31.3,30,31v-3.1h3.7V31c0,0.3,0.3,0.6,0.6,0.6s0.6-0.3,0.6-0.6v-3.1h1.2c0.3,0,0.6-0.3,0.6-0.6c0-0.3-0.2-0.5-0.4-0.6
			l-11.9-4.8l-0.3-5.8H30v3.1c0,0.3,0.3,0.6,0.6,0.6s0.6-0.3,0.6-0.6v-3.1h1.2c0.3,0,0.6-0.3,0.6-0.6c0-0.2-0.1-0.4-0.3-0.5L23.6,10
			l-1.8-2.4c-0.2-0.3-0.6-0.3-0.9-0.1c0,0-0.1,0.1-0.1,0.1L19.1,10L10,14.9c-0.3,0.2-0.4,0.5-0.3,0.8c0.1,0.2,0.3,0.3,0.5,0.3h1.2
			v3.1c0,0.3,0.3,0.6,0.6,0.6c0.3,0,0.6-0.3,0.6-0.6v-3.1h5.8L18.3,21.9z"/>
	</g>
</g>
</svg>
