<?xml version="1.0" encoding="utf-8"?>
<!-- Generator: Adobe Illustrator 25.2.3, SVG Export Plug-In . SVG Version: 6.00 Build 0)  -->
<svg fill="#c1a205" version="1.1" id="Слой_1" xmlns="http://www.w3.org/2000/svg" xmlns:xlink="http://www.w3.org/1999/xlink" x="0px" y="0px"
	 viewBox="0 0 512 640" style="enable-background:new 0 0 512 640;" xml:space="preserve">
<path d="M215.8,202.6L61,264.6c-4.1,1.6-6.1,6.3-4.5,10.4c1.2,3,4.2,5,7.4,5h16v40c0,4.4,3.6,8,8,8s8-3.6,8-8v-40h48v40
	c0,4.4,3.6,8,8,8s8-3.6,8-8v-40h51.5l-3.5,63.5v0l-8,144c-0.2,4.4,3.1,8.2,7.5,8.4c1.7,0.1,3.4-0.4,4.9-1.3l43.6-29l43.6,29
	c3.7,2.5,8.6,1.5,11.1-2.2c1-1.4,1.4-3.2,1.3-4.9l-8-144v0l-3.5-63.5H352v40c0,4.4,3.6,8,8,8s8-3.6,8-8v-40h48v40c0,4.4,3.6,8,8,8
	s8-3.6,8-8v-40h16c4.4,0,8-3.6,8-8c0-3.3-2-6.2-5-7.4l-154.8-61.9L292,128h76v40c0,4.4,3.6,8,8,8s8-3.6,8-8v-40h16c4.4,0,8-3.6,8-8
	c0-3-1.6-5.7-4.2-7.1L285.3,49.8l-22.9-30.6c-2.7-3.5-7.7-4.3-11.2-1.6c-0.6,0.5-1.1,1-1.6,1.6l-22.9,30.6l-118.4,63.2
	c-3.9,2.1-5.4,6.9-3.3,10.8c1.4,2.6,4.1,4.2,7.1,4.2h16v40c0,4.4,3.6,8,8,8s8-3.6,8-8v-40h76L215.8,202.6z M292.7,428.7l-26.5-33.7
	l23-29.3L292.7,428.7z M222.8,365.6l23,29.3l-26.5,33.7L222.8,365.6z M246.5,157.7l-13.3,20.9l2.1-38.5L246.5,157.7z M246.6,128
	h18.9l-9.4,14.8L246.6,128z M256,172.6l17.4,27.4h-34.9L256,172.6z M244.7,304l-19.5,19.5l2.1-37L244.7,304z M243.3,280h25.4
	L256,292.7L243.3,280z M226.7,344.6l29.3-29.3l29.3,29.3L256,382L226.7,344.6z M267.3,304l17.5-17.5l2.1,37L267.3,304z M228.5,264
	l2.7-48h49.8l2.7,48H228.5z M265.5,157.7l11.2-17.6l2.1,38.5L265.5,157.7z M288.8,69.7l29.1,15.5l-27,21.2L288.8,69.7z M272.4,64
	l2.7,48h-38.2l2.7-48H272.4z M221.1,107.4l-27.2-22l29.2-15.6L221.1,107.4z M212.7,259.1L181,233.8l33.8-13.5L212.7,259.1z
	 M164,240.6l29.2,23.4h-87.7L164,240.6z M260.4,449.3c-2.7-1.8-6.2-1.8-8.9,0l-34.7,23.1l0.9-15.9l38.2-48.7l38.2,48.7l0.9,15.9
	L260.4,449.3z M318.8,264l29.2-23.4l58.4,23.4H318.8z M331,233.8l-31.7,25.3l-2.2-38.8L331,233.8z M309.7,112l23.6-18.5L368,112
	H309.7z M256,37.3l8,10.7h-16L256,37.3z M178.7,93.5l22.8,18.5H144L178.7,93.5z"/>
</svg>
