<?xml version="1.0" encoding="utf-8"?>
<!-- Generator: Adobe Illustrator 25.2.3, SVG Export Plug-In . SVG Version: 6.00 Build 0)  -->
<svg fill="#c1a205" version="1.1" id="Слой_1" xmlns="http://www.w3.org/2000/svg" xmlns:xlink="http://www.w3.org/1999/xlink" x="0px" y="0px"
	 viewBox="0 0 512 640" style="enable-background:new 0 0 512 640;" xml:space="preserve">
<g>
	<path d="M194.8,271.2c-35.7,0-64.7,29-64.7,64.7s29,64.7,64.7,64.7s64.7-29,64.7-64.7C259.5,300.3,230.4,271.2,194.8,271.2z
		 M194.8,388.6c-29,0-52.7-23.6-52.7-52.7c0-29,23.6-52.7,52.7-52.7s52.7,23.6,52.7,52.7S223.8,388.6,194.8,388.6z"/>
	<path d="M355.5,318.5l-39.9-6c-1.1-5.6-2.6-11.2-4.5-16.7l31.6-25.2c2.3-1.9,2.9-5.1,1.5-7.7L332.8,243c-1.5-2.6-4.6-3.7-7.4-2.6
		l-37.6,14.8c-3.7-4.3-7.8-8.4-12.3-12.3l14.8-37.6c1.1-2.8,0-5.9-2.6-7.4l-19.9-11.5c-2.6-1.5-5.8-0.9-7.7,1.5L235,219.6
		c-5.4-1.9-11-3.4-16.8-4.5l-6-39.9c-0.4-2.9-3-5.1-5.9-5.1h-22.9c-3,0-5.5,2.2-5.9,5.1l-6,39.9c-5.7,1.1-11.3,2.6-16.8,4.5
		L129.5,188c-1.9-2.3-5.1-2.9-7.7-1.5L101.9,198c-2.6,1.5-3.7,4.6-2.6,7.4l14.8,37.6c-4.4,3.8-8.5,7.9-12.3,12.3l-37.6-14.8
		c-2.8-1.1-5.9,0-7.4,2.6L45.3,263c-1.5,2.6-0.9,5.8,1.5,7.7l31.6,25.2c-1.9,5.4-3.4,11-4.5,16.8l-39.9,6c-2.9,0.4-5.1,3-5.1,5.9v23
		c0,3,2.2,5.5,5.1,5.9l39.9,6c1.1,5.7,2.6,11.3,4.5,16.8l-31.6,25.1c-2.3,1.9-2.9,5.1-1.5,7.7L56.8,429c1.5,2.6,4.6,3.7,7.4,2.6
		l37.6-14.7c3.8,4.3,7.9,8.4,12.3,12.3l-14.8,37.6c-1.1,2.8,0,5.9,2.6,7.4l19.9,11.4c2.6,1.5,5.8,0.9,7.7-1.5l25.2-31.5
		c5.5,1.9,11.1,3.4,16.8,4.5l6,39.9c0.4,2.9,3,5.1,5.9,5.1h22.9c3,0,5.5-2.2,5.9-5.1l6-39.9c5.7-1.1,11.3-2.6,16.8-4.5l25.1,31.5
		c1.8,2.3,5.1,2.9,7.7,1.5l19.9-11.4c2.6-1.5,3.7-4.6,2.6-7.4l-14.8-37.6c4.4-3.9,8.5-8,12.3-12.2l37.6,14.7c2.8,1.1,5.9,0,7.4-2.6
		l11.4-19.9c1.5-2.6,0.9-5.8-1.5-7.7l-31.6-25.1c1.9-5.5,3.4-11.1,4.5-16.7l39.9-6c2.9-0.4,5.1-3,5.1-5.9v-22.9
		C360.6,321.5,358.5,319,355.5,318.5z M348.6,342.2l-39,5.9c-2.6,0.4-4.6,2.4-5,5c-1.2,7.7-3.3,15.4-6.1,22.8
		c-0.9,2.4-0.2,5.2,1.9,6.8l30.9,24.6l-6.3,10.9l-36.8-14.4c-2.4-1-5.2-0.2-6.9,1.8c-4.8,6-10.4,11.6-16.7,16.7
		c-2,1.6-2.8,4.4-1.8,6.8l14.4,36.8l-10.9,6.3l-24.6-30.9c-1.6-2.1-4.4-2.8-6.9-1.9c-7.4,2.9-15,4.9-22.8,6.1c-2.6,0.4-4.6,2.4-5,5
		l-5.9,39.1h-12.6l-5.9-39.1c-0.4-2.6-2.4-4.6-5-5c-7.8-1.2-15.4-3.2-22.8-6.1c-2.4-0.9-5.2-0.2-6.9,1.9l-24.7,30.9l-10.9-6.3
		l14.5-36.8c1-2.4,0.2-5.2-1.8-6.9c-6.2-5-11.8-10.6-16.7-16.7c-1.6-2-4.4-2.8-6.9-1.8l-36.8,14.4l-6.3-10.9l30.9-24.6
		c2.1-1.6,2.8-4.4,1.9-6.9c-2.8-7.2-4.9-14.9-6.1-22.8c-0.4-2.6-2.4-4.6-5-5L40.9,342v-12.7l39.1-5.8c2.6-0.4,4.6-2.4,5-5
		c1.2-7.9,3.3-15.5,6.1-22.8c1-2.4,0.2-5.2-1.9-6.9l-30.9-24.6l6.3-10.9l36.8,14.5c2.4,1,5.2,0.2,6.9-1.8
		c4.9-6.1,10.5-11.7,16.6-16.6c2.1-1.6,2.8-4.4,1.8-6.9l-14.5-36.8l10.9-6.3l24.6,30.9c1.6,2.1,4.4,2.8,6.9,1.9
		c7.3-2.8,15-4.9,22.8-6.1c2.6-0.4,4.6-2.4,5-5l5.9-39.1h12.6l5.9,39.1c0.4,2.6,2.4,4.6,5,5c7.8,1.2,15.5,3.3,22.8,6.1
		c2.4,1,5.2,0.2,6.9-1.9l24.6-30.9l10.9,6.3l-14.5,36.8c-1,2.4-0.2,5.2,1.8,6.9c6.2,5,11.8,10.6,16.7,16.7c1.6,2.1,4.4,2.8,6.9,1.8
		l36.8-14.5l6.3,10.9l-30.9,24.6c-2,1.6-2.8,4.4-1.9,6.8c2.9,7.5,4.9,15.2,6.1,22.8c0.4,2.6,2.4,4.6,5,5l39,5.9v12.8L348.6,342.2
		L348.6,342.2z"/>
	<path d="M194.8,259.4c6.6,0,12-5.4,12-12s-5.4-12-12-12s-12,5.4-12,12S188.2,259.4,194.8,259.4z"/>
	<path d="M233,269.6c1.8,1.1,3.9,1.6,6,1.6c4.3,0,8.3-2.3,10.4-6c1.6-2.8,2-6,1.2-9.2c-0.8-3.1-2.8-5.7-5.6-7.2
		c-1.8-1.1-3.9-1.6-6-1.6c-4.2,0-8.2,2.3-10.3,6c-1.6,2.8-2,6-1.2,9.1C228.3,265.5,230.3,268,233,269.6z M239,259.3v6V259.3
		L239,259.3z"/>
	<path d="M271.5,303.7c2.1,0,4.2-0.6,6-1.6c5.7-3.3,7.7-10.7,4.4-16.4c-2.1-3.7-6.1-6-10.4-6c-2.1,0-4.2,0.6-6,1.6
		c-2.8,1.6-4.7,4.2-5.6,7.3c-0.8,3.1-0.4,6.3,1.2,9.1C263.2,301.3,267.2,303.7,271.5,303.7z"/>
	<path d="M283.3,323.9c-6.6,0-12,5.4-12,12s5.4,12,12,12s12-5.4,12-12S289.9,323.9,283.3,323.9z"/>
	<path d="M277.5,369.8c-1.8-1.1-3.9-1.6-6-1.6c-4.3,0-8.3,2.3-10.3,6c-3.3,5.7-1.3,13.1,4.4,16.4c1.8,1.1,3.9,1.6,6,1.6
		c4.3,0,8.3-2.3,10.4-6c1.6-2.8,2-6,1.2-9.2C282.2,373.9,280.2,371.4,277.5,369.8z"/>
	<path d="M239.1,400.6c-2.1,0-4.2,0.6-6,1.6c-5.7,3.3-7.6,10.7-4.3,16.3c2.1,3.7,6.1,6,10.4,6c2.1,0,4.2-0.6,6-1.6
		c5.7-3.3,7.7-10.7,4.4-16.4C247.3,402.9,243.3,400.6,239.1,400.6z"/>
	<path d="M194.8,412.5c-6.6,0-12,5.4-12,12s5.4,12,12,12s12-5.4,12-12C206.8,417.8,201.4,412.5,194.8,412.5z"/>
	<path d="M156.5,402.2c-1.8-1.1-3.9-1.6-6-1.6c-4.3,0-8.2,2.3-10.3,6c-3.3,5.7-1.4,13.1,4.3,16.4c1.8,1.1,3.9,1.6,6,1.6
		c4.3,0,8.3-2.3,10.4-6C164.2,412.9,162.2,405.5,156.5,402.2z"/>
	<path d="M118.1,368.2c-2.1,0-4.2,0.6-6,1.6c-2.8,1.6-4.7,4.1-5.6,7.2s-0.4,6.4,1.2,9.2c2.2,3.7,6.1,6,10.4,6c2.1,0,4.2-0.6,6-1.6
		c5.7-3.3,7.7-10.7,4.4-16.4C126.4,370.5,122.4,368.2,118.1,368.2z"/>
	<path d="M118.2,335.9c0-6.6-5.4-12-12-12s-12,5.4-12,12s5.4,12,12,12S118.2,342.5,118.2,335.9z"/>
	<path d="M124.1,281.3c-1.8-1.1-3.9-1.6-6-1.6c-4.2,0-8.2,2.3-10.3,6c-3.3,5.7-1.4,13.1,4.3,16.4c1.8,1.1,3.9,1.6,6,1.6
		c4.3,0,8.3-2.3,10.4-6c1.6-2.8,2-6,1.2-9.1C128.8,285.4,126.8,282.8,124.1,281.3z"/>
	<path d="M150.5,271.2c2.1,0,4.2-0.6,6-1.6c2.8-1.6,4.8-4.2,5.6-7.3c0.8-3.1,0.4-6.3-1.2-9.1c-2.1-3.7-6.1-6-10.4-6
		c-2.1,0-4.2,0.6-6,1.6c-2.8,1.6-4.8,4.1-5.6,7.2c-0.9,3.1-0.4,6.4,1.2,9.2C142.3,268.9,146.3,271.2,150.5,271.2z"/>
	<path d="M478.7,108l-24.6-3.7c-0.6-2.9-1.4-5.7-2.3-8.4l19.5-15.5c2.3-1.9,2.9-5.1,1.5-7.7l-7.5-13c-1.5-2.6-4.6-3.7-7.4-2.6
		l-23.2,9.1c-2-2.2-4-4.2-6.1-6.2l9.1-23.2c1.1-2.8,0-5.9-2.6-7.4l-13-7.5c-2.6-1.5-5.8-0.9-7.7,1.5l-15.5,19.5
		c-2.8-0.9-5.6-1.6-8.4-2.2L386.8,16c-0.4-2.9-3-5.1-5.9-5.1h-15c-3,0-5.5,2.2-5.9,5.1l-3.7,24.6c-2.8,0.6-5.6,1.3-8.4,2.2
		l-15.5-19.5c-1.8-2.3-5.1-2.9-7.7-1.5l-13,7.5c-2.6,1.5-3.7,4.6-2.6,7.4l9.1,23.2c-2.1,1.9-4.2,4-6.1,6.2L288.9,57
		c-2.8-1.1-5.9,0-7.4,2.6l-7.4,13c-1.5,2.6-0.9,5.8,1.5,7.7l19.5,15.5c-0.9,2.7-1.6,5.5-2.3,8.4l-24.6,3.7c-2.9,0.4-5.1,3-5.1,5.9
		v15c0,3,2.2,5.5,5.1,5.9l24.6,3.7c0.6,2.9,1.4,5.7,2.3,8.4l-19.5,15.5c-2.3,1.8-2.9,5.1-1.5,7.7l7.4,13c1.5,2.6,4.6,3.7,7.4,2.6
		l23.3-9.1c2,2.2,4,4.2,6.1,6.1l-9.1,23.2c-1.1,2.8,0,5.9,2.6,7.4l13,7.5c2.6,1.5,5.8,0.9,7.7-1.5l15.5-19.5
		c2.8,0.9,5.6,1.6,8.4,2.2l3.7,24.6c0.4,2.9,3,5.1,5.9,5.1h15c3,0,5.5-2.2,5.9-5.1l3.7-24.6c2.8-0.6,5.6-1.3,8.4-2.2l15.5,19.5
		c1.9,2.3,5.1,2.9,7.7,1.5l13-7.5c2.6-1.5,3.7-4.6,2.6-7.4l-9.1-23.2c2.1-1.9,4.1-4,6.1-6.1l23.2,9.1c2.8,1.1,5.9,0,7.4-2.6l7.5-13
		c1.5-2.6,0.9-5.8-1.5-7.7l-19.5-15.5c0.9-2.7,1.6-5.5,2.3-8.4l24.6-3.7c2.9-0.4,5.1-3,5.1-5.9v-15
		C483.8,110.9,481.6,108.4,478.7,108z M471.8,123.7l-23.7,3.6c-2.6,0.4-4.6,2.4-5,5c-0.8,5.1-2.1,9.9-3.9,14.5
		c-1,2.5-0.2,5.2,1.8,6.9l18.8,15l-2.3,4l-22.4-8.8c-2.4-0.9-5.2-0.2-6.8,1.8c-3.3,4-6.9,7.6-10.6,10.6c-2,1.6-2.8,4.4-1.8,6.9
		l8.8,22.4l-4,2.3l-15-18.8c-1.6-2-4.4-2.8-6.8-1.9c-4.7,1.8-9.6,3.1-14.5,3.9c-2.6,0.4-4.6,2.4-5,5l-3.6,23.8H371l-3.6-23.8
		c-0.4-2.6-2.4-4.6-5-5c-4.9-0.8-9.8-2.1-14.5-3.9c-2.4-0.9-5.2-0.2-6.8,1.9l-14.9,18.8l-4.1-2.3l8.8-22.4c1-2.4,0.2-5.2-1.8-6.9
		c-3.8-3-7.3-6.6-10.6-10.6c-1.6-2-4.4-2.7-6.8-1.8l-22.4,8.8l-2.3-4l18.8-15c2.1-1.6,2.8-4.4,1.8-6.9c-1.8-4.5-3.1-9.4-3.9-14.5
		c-0.4-2.6-2.4-4.6-5-5l-23.7-3.6v-4.6l23.7-3.6c2.6-0.4,4.6-2.4,5-5c0.8-5.1,2.1-9.9,3.9-14.5c1-2.5,0.2-5.2-1.8-6.9l-18.8-15
		l2.3-4l22.4,8.8c2.4,1,5.2,0.2,6.9-1.8c3.2-4,6.8-7.6,10.6-10.7c2-1.6,2.8-4.4,1.8-6.9l-8.8-22.4l4.1-2.3l14.9,18.8
		c1.6,2,4.4,2.8,6.8,1.9c4.7-1.8,9.6-3.1,14.5-3.9c2.6-0.4,4.6-2.4,5-5l3.6-23.8h4.7l3.6,23.8c0.4,2.6,2.4,4.6,5,5
		c5,0.8,9.8,2.1,14.5,3.9c2.4,0.9,5.2,0.2,6.8-1.9l15-18.8l4,2.3l-8.8,22.4c-1,2.4-0.2,5.2,1.8,6.9c3.8,3.1,7.4,6.6,10.6,10.7
		c1.6,2,4.4,2.8,6.9,1.8l22.4-8.8l2.3,4l-18.8,15c-2.1,1.6-2.8,4.4-1.8,6.9c1.8,4.5,3.1,9.4,3.9,14.5c0.4,2.6,2.4,4.6,5,5l23.7,3.6
		L471.8,123.7L471.8,123.7z"/>
	<path d="M373.4,77.1c-24.5,0-44.3,19.9-44.3,44.3s19.9,44.3,44.3,44.3s44.3-19.9,44.3-44.3C417.7,97,397.8,77.1,373.4,77.1z
		 M373.4,153.7c-17.8,0-32.3-14.5-32.3-32.3s14.5-32.3,32.3-32.3s32.3,14.5,32.3,32.3C405.7,139.2,391.2,153.7,373.4,153.7z"/>
</g>
</svg>
