<?xml version="1.0" encoding="utf-8"?>
<!-- Generator: Adobe Illustrator 25.2.3, SVG Export Plug-In . SVG Version: 6.00 Build 0)  -->
<svg version="1.1" id="Слой_1" xmlns="http://www.w3.org/2000/svg" xmlns:xlink="http://www.w3.org/1999/xlink" x="0px" y="0px"
	 viewBox="0 0 42.8 42.8" style="enable-background:new 0 0 42.8 42.8;" xml:space="preserve">
<style type="text/css">
	.st0{clip-path:url(#SVGID_2_);fill:#C1A206;}
	.st1{clip-path:url(#SVGID_2_);fill:#FFFFFF;}
</style>
<g>
	<defs>
		<rect id="SVGID_1_" width="42.8" height="42.8"/>
	</defs>
	<clipPath id="SVGID_2_">
		<use xlink:href="#SVGID_1_"  style="overflow:visible;"/>
	</clipPath>
	<path class="st0" d="M21.4,42.8c11.8,0,21.4-9.6,21.4-21.4C42.8,9.6,33.2,0,21.4,0S0,9.6,0,21.4C0,33.2,9.6,42.8,21.4,42.8"/>
	<path class="st1" d="M26.8,14.1H16v-2h10.8V14.1z M28,14.7v-3.2c0-0.3-0.3-0.6-0.6-0.6h-12c-0.3,0-0.6,0.3-0.6,0.6v3.2
		c0,0.3,0.3,0.6,0.6,0.6h12C27.7,15.3,28,15,28,14.7"/>
	<path class="st1" d="M21.4,23.6c-1.7,0-3-1.4-3-3.1c0-1.7,1.4-3.1,3-3.1s3,1.4,3,3.1C24.4,22.2,23,23.6,21.4,23.6 M25.6,20.5
		c0-2.4-1.9-4.3-4.2-4.3c-2.3,0-4.2,1.9-4.2,4.3s1.9,4.3,4.2,4.3S25.6,22.9,25.6,20.5"/>
	<path class="st1" d="M22,19l-2.1,2.1c-0.2,0.2-0.2,0.6,0,0.8c0.1,0.1,0.3,0.2,0.4,0.2c0.1,0,0.3-0.1,0.4-0.2l2.1-2.1
		c0.2-0.2,0.2-0.6,0-0.8C22.6,18.8,22.2,18.8,22,19"/>
	<path class="st1" d="M34.7,27.6l-0.4,0c0,0-0.1,0-0.1,0c0,0-0.1,0-0.1,0l-0.4,0l0-7.6l0.4,0c0,0,0.1,0,0.1,0c0,0,0.1,0,0.1,0l0.4,0
		V27.6z M24.5,28.3c-0.3,0-0.5-0.2-0.5-0.5s0.2-0.5,0.5-0.5c0.3,0,0.5,0.2,0.5,0.5S24.7,28.3,24.5,28.3 M18.3,28.3
		c-0.3,0-0.5-0.2-0.5-0.5s0.2-0.5,0.5-0.5c0.3,0,0.5,0.2,0.5,0.5S18.5,28.3,18.3,28.3 M18.6,30.4c0.1-0.3,0.2-0.7,0.3-1
		c0.6-0.2,1.1-0.8,1.1-1.6c0-0.9-0.7-1.7-1.6-1.7s-1.6,0.7-1.6,1.7c0,0.7,0.4,1.3,1,1.5c-0.1,0.4-0.2,0.7-0.4,1h-3.2V10h14.6v20.4
		h-3.2c-0.2-0.3-0.3-0.7-0.4-1c0.6-0.2,1-0.8,1-1.5c0-0.9-0.7-1.7-1.6-1.7c-0.9,0-1.6,0.7-1.6,1.7c0,0.7,0.4,1.3,1.1,1.6
		c0,0.4,0.1,0.7,0.3,1H18.6z M8.4,20.1C8.4,20.1,8.5,20.1,8.4,20.1c0.1,0,0.2,0,0.2,0l0.4,0v7.6l-0.4,0c0,0-0.1,0-0.1,0
		c0,0-0.1,0-0.1,0l-0.4,0l0-7.6L8.4,20.1z M34.9,18.9v-1.3c0-0.3-0.3-0.6-0.6-0.6s-0.6,0.3-0.6,0.6v1.3c-0.6,0.1-1.1,0.6-1.1,1.2
		v7.6c0,0.6,0.4,1.1,1,1.2c-0.2,2.2-1.5,4-3.2,4c-1.5,0-2.9-0.4-3.9-1.1h2.7c0.3,0,0.6-0.3,0.6-0.6V9.4c0-0.3-0.3-0.6-0.6-0.6H13.5
		c-0.3,0-0.6,0.3-0.6,0.6V31c0,0.3,0.3,0.6,0.6,0.6h2.7c-1,0.7-2.4,1.1-3.9,1.1c-1.6,0-3-1.7-3.2-4c0.6-0.1,1-0.6,1-1.2V20
		c0-0.6-0.5-1.1-1.1-1.2v-1.3c0-0.3-0.3-0.6-0.6-0.6c-0.3,0-0.6,0.3-0.6,0.6v1.3c-0.6,0.1-1.1,0.6-1.1,1.2v7.6
		c0,0.6,0.5,1.1,1.1,1.2C8.1,31.7,10,34,12.3,34c2.4,0,4.4-0.9,5.6-2.3h7.1c1.2,1.4,3.2,2.3,5.6,2.3c2.3,0,4.1-2.3,4.3-5.2
		c0.6,0,1.1-0.6,1.1-1.2V20C35.9,19.4,35.5,18.9,34.9,18.9"/>
</g>
</svg>
