<?xml version="1.0" encoding="utf-8"?>
<!-- Generator: Adobe Illustrator 25.2.3, SVG Export Plug-In . SVG Version: 6.00 Build 0)  -->
<svg fill="#c1a205" version="1.1" id="Слой_1" xmlns="http://www.w3.org/2000/svg" xmlns:xlink="http://www.w3.org/1999/xlink" x="0px" y="0px"
	 viewBox="0 0 100 125" style="enable-background:new 0 0 100 125;" xml:space="preserve">
<path d="M89.6,79c12.1-16.7,12.1-39.4,0-56.1l4.6-4.6c0.7-0.7,0.7-1.9,0-2.7l-8.3-8.3c-0.7-0.7-1.9-0.7-2.7,0l-4.6,4.6
	c-16.7-12.1-39.4-12.1-56.2,0l-4.6-4.6c-0.7-0.7-1.9-0.7-2.7,0l-8.3,8.3c-0.7,0.7-0.7,1.9,0,2.7l4.6,4.6C-0.5,39.6-0.5,62.3,11.5,79
	l-4.6,4.6c-0.7,0.7-0.7,1.9,0,2.7l8.3,8.3c0.7,0.7,1.9,0.7,2.7,0l4.6-4.6C39.2,102,61.9,102,78.6,90l4.6,4.6c0.7,0.7,1.9,0.7,2.7,0
	l8.3-8.3c0.7-0.7,0.7-1.9,0-2.7L89.6,79z M91.5,86.7l-5.1,5.1c-0.9,0.9-2.4,0.9-3.3,0L79,87.8c-8.1,6.3-18.1,9.7-28.4,9.7
	S30.2,94,22.1,87.8l-4.1,4.1c-0.9,0.9-2.4,0.9-3.3,0l-5.1-5.1c-0.9-0.9-0.9-2.4,0-3.3l4.1-4.1C7.5,71.3,4,61.2,4,50.9
	s3.4-20.3,9.7-28.4l-4.1-4.1c-0.9-0.9-0.9-2.4,0-3.3l5.1-5.1c0.9-0.9,2.4-0.9,3.3,0l4.1,4.1c8.1-6.3,18.2-9.7,28.4-9.7
	c10.3,0,20.3,3.4,28.4,9.7l4.1-4.1c0.9-0.9,2.4-0.9,3.3,0l5.1,5.1c0.9,0.9,0.9,2.4,0,3.3l-4.1,4.1c6.3,8.1,9.7,18.2,9.7,28.4
	c0,10.3-3.4,20.3-9.7,28.4l4.1,4.1C92.4,84.3,92.4,85.8,91.5,86.7z"/>
<g>
	<path d="M51.4,48c-0.1-0.1-0.2-0.2-0.3-0.3c-0.1-0.1-0.2-0.2-0.4-0.3c-0.1-0.1-0.2-0.1-0.3-0.1c-0.1,0-0.2,0-0.3,0
		c-0.1,0-0.2,0.1-0.3,0.2l-0.4,0.4l1.6,1.6l0.4-0.4c0.1-0.1,0.2-0.2,0.2-0.3c0-0.1,0-0.2,0-0.3C51.5,48.2,51.4,48.1,51.4,48z"/>
	<path d="M54.1,51.5c0.1-0.1,0.2-0.2,0.2-0.3c0-0.1,0-0.2,0-0.3c0-0.1-0.1-0.3-0.1-0.4c-0.1-0.1-0.2-0.3-0.3-0.4
		c-0.1-0.1-0.3-0.3-0.4-0.3c-0.1-0.1-0.3-0.1-0.4-0.2s-0.3,0-0.4,0c-0.1,0-0.3,0.1-0.4,0.3l-0.5,0.5l1.7,1.7L54.1,51.5z"/>
	<path d="M50.6,5.4C25.4,5.4,5,25.8,5,50.9c0,25.1,20.4,45.5,45.5,45.5c25.1,0,45.5-20.4,45.5-45.5C96.1,25.8,75.7,5.4,50.6,5.4z
		 M83.6,36.5l1.6,1.6c0.4,0.4,0.4,1,0,1.4l-1.6,1.6c-0.4,0.4-1,0.4-1.4,0l-1.6-1.6c-0.4-0.4-0.4-1,0-1.4l1.6-1.6
		C82.6,36.1,83.2,36.1,83.6,36.5z M64.4,47.6c-0.4-0.4-0.4-1,0-1.4l1.6-1.6c0.4-0.4,1-0.4,1.4,0l1.6,1.6c0.4,0.4,0.4,1,0,1.4
		l-1.6,1.6c-0.4,0.4-1,0.4-1.4,0L64.4,47.6z M64.9,51.6l-1.6,1.6c-0.4,0.4-1,0.4-1.4,0l-1.6-1.6c-0.4-0.4-0.4-1,0-1.4l1.6-1.6
		c0.4-0.4,1-0.4,1.4,0l1.6,1.6C65.3,50.6,65.3,51.2,64.9,51.6z M64.9,43.5l-1.6,1.6c-0.4,0.4-1,0.4-1.4,0l-1.6-1.6
		c-0.4-0.4-0.4-1,0-1.4l1.6-1.6c0.4-0.4,1-0.4,1.4,0l1.6,1.6C65.3,42.5,65.3,43.1,64.9,43.5z M60.9,46.2c0.4,0.4,0.4,1,0,1.4
		l-1.6,1.6c-0.4,0.4-1,0.4-1.4,0l-1.6-1.6c-0.4-0.4-0.4-1,0-1.4l1.6-1.6c0.4-0.4,1-0.4,1.4,0L60.9,46.2z M56.8,43.5l-1.6,1.6
		c-0.4,0.4-1,0.4-1.4,0l-1.6-1.6c-0.4-0.4-0.4-1,0-1.4l1.6-1.6c0.4-0.4,1-0.4,1.4,0l1.6,1.6C57.2,42.5,57.2,43.1,56.8,43.5z
		 M52.1,47.2c0.1,0.2,0.2,0.3,0.3,0.5c0.1,0.2,0.1,0.3,0.1,0.4c0,0.1,0,0.3,0,0.4c0.1-0.1,0.3-0.1,0.5-0.1c0.2,0,0.3,0,0.5,0.1
		c0.2,0.1,0.4,0.2,0.6,0.3c0.2,0.1,0.4,0.3,0.6,0.5c0.2,0.2,0.4,0.4,0.5,0.6c0.1,0.2,0.2,0.4,0.3,0.6c0.1,0.2,0.1,0.4,0.1,0.6
		c0,0.2,0,0.4-0.1,0.5c0,0.2-0.1,0.3-0.2,0.5c-0.1,0.2-0.2,0.3-0.4,0.5l-1,1c-0.1,0.1-0.1,0.1-0.3,0.1c-0.1,0-0.2-0.1-0.4-0.2L48,48
		c-0.1-0.1-0.2-0.3-0.2-0.4c0-0.1,0-0.2,0.1-0.3l0.9-0.9c0.2-0.2,0.5-0.4,0.7-0.5s0.5-0.1,0.7-0.1c0.2,0,0.5,0.1,0.7,0.2
		c0.3,0.1,0.5,0.3,0.8,0.6C51.8,46.9,52,47,52.1,47.2z M51.8,55.5c0,0,0.1,0.1,0.1,0.1c0,0,0,0.1,0,0.1c0,0,0,0.1-0.1,0.2
		c0,0.1-0.1,0.1-0.2,0.2c-0.1,0.1-0.1,0.1-0.2,0.2c-0.1,0-0.1,0.1-0.2,0.1c0,0-0.1,0-0.1,0c0,0-0.1,0-0.1-0.1l-5.6-5.6
		c-0.1-0.1-0.2-0.3-0.2-0.4c0-0.1,0-0.2,0.1-0.3l1.8-1.8c0,0,0.1,0,0.2,0c0.1,0.1,0.2,0.2,0.4,0.4c0.1,0.1,0.2,0.2,0.2,0.2
		C48,49,48,49,48,49.1c0,0,0,0.1,0,0.1c0,0,0,0.1,0,0.1l-1.2,1.2L51.8,55.5z M48.7,43.5l-1.6,1.6c-0.4,0.4-1,0.4-1.4,0l-1.6-1.6
		c-0.4-0.4-0.4-1,0-1.4l1.6-1.6c0.4-0.4,1-0.4,1.4,0l1.6,1.6C49.1,42.5,49.1,43.1,48.7,43.5z M44.7,46.2c0.4,0.4,0.4,1,0,1.4
		l-1.6,1.6c-0.4,0.4-1,0.4-1.4,0l-1.6-1.6c-0.4-0.4-0.4-1,0-1.4l1.6-1.6c0.4-0.4,1-0.4,1.4,0L44.7,46.2z M40.6,51.6L39,53.2
		c-0.4,0.4-1,0.4-1.4,0L36,51.6c-0.4-0.4-0.4-1,0-1.4l1.6-1.6c0.4-0.4,1-0.4,1.4,0l1.6,1.6C41,50.6,41,51.2,40.6,51.6z M40.6,43.5
		L39,45.1c-0.4,0.4-1,0.4-1.4,0L36,43.5c-0.4-0.4-0.4-1,0-1.4l1.6-1.6c0.4-0.4,1-0.4,1.4,0l1.6,1.6C41,42.5,41,43.1,40.6,43.5z
		 M36.6,46.2c0.4,0.4,0.4,1,0,1.4L35,49.2c-0.4,0.4-1,0.4-1.4,0L32,47.6c-0.4-0.4-0.4-1,0-1.4l1.6-1.6c0.4-0.4,1-0.4,1.4,0
		L36.6,46.2z M32.5,50.2c0.4,0.4,0.4,1,0,1.4l-1.6,1.6c-0.4,0.4-1,0.4-1.4,0l-1.6-1.6c-0.4-0.4-0.4-1,0-1.4l1.6-1.6
		c0.4-0.4,1-0.4,1.4,0L32.5,50.2z M32,54.3l1.6-1.6c0.4-0.4,1-0.4,1.4,0l1.6,1.6c0.4,0.4,0.4,1,0,1.4L35,57.3c-0.4,0.4-1,0.4-1.4,0
		L32,55.7C31.6,55.3,31.6,54.7,32,54.3z M36,58.3l1.6-1.6c0.4-0.4,1-0.4,1.4,0l1.6,1.6c0.4,0.4,0.4,1,0,1.4L39,61.3
		c-0.4,0.4-1,0.4-1.4,0L36,59.7C35.6,59.3,35.6,58.7,36,58.3z M40.1,55.7c-0.4-0.4-0.4-1,0-1.4l1.6-1.6c0.4-0.4,1-0.4,1.4,0l1.6,1.6
		c0.4,0.4,0.4,1,0,1.4l-1.6,1.6c-0.4,0.4-1,0.4-1.4,0L40.1,55.7z M44.1,58.3l1.6-1.6c0.4-0.4,1-0.4,1.4,0l1.6,1.6
		c0.4,0.4,0.4,1,0,1.4l-1.6,1.6c-0.4,0.4-1,0.4-1.4,0l-1.6-1.6C43.7,59.3,43.7,58.7,44.1,58.3z M48.2,62.4l1.6-1.6
		c0.4-0.4,1-0.4,1.4,0l1.6,1.6c0.4,0.4,0.4,1,0,1.4l-1.6,1.6c-0.4,0.4-1,0.4-1.4,0l-1.6-1.6C47.8,63.4,47.8,62.8,48.2,62.4z
		 M52.2,59.7c-0.4-0.4-0.4-1,0-1.4l1.6-1.6c0.4-0.4,1-0.4,1.4,0l1.6,1.6c0.4,0.4,0.4,1,0,1.4l-1.6,1.6c-0.4,0.4-1,0.4-1.4,0
		L52.2,59.7z M56.3,55.7c-0.4-0.4-0.4-1,0-1.4l1.6-1.6c0.4-0.4,1-0.4,1.4,0l1.6,1.6c0.4,0.4,0.4,1,0,1.4l-1.6,1.6
		c-0.4,0.4-1,0.4-1.4,0L56.3,55.7z M60.3,58.3l1.6-1.6c0.4-0.4,1-0.4,1.4,0l1.6,1.6c0.4,0.4,0.4,1,0,1.4l-1.6,1.6
		c-0.4,0.4-1,0.4-1.4,0l-1.6-1.6C59.9,59.3,59.9,58.7,60.3,58.3z M64.4,55.7c-0.4-0.4-0.4-1,0-1.4l1.6-1.6c0.4-0.4,1-0.4,1.4,0
		l1.6,1.6c0.4,0.4,0.4,1,0,1.4l-1.6,1.6c-0.4,0.4-1,0.4-1.4,0L64.4,55.7z M68.4,51.6c-0.4-0.4-0.4-1,0-1.4l1.6-1.6
		c0.4-0.4,1-0.4,1.4,0l1.6,1.6c0.4,0.4,0.4,1,0,1.4l-1.6,1.6c-0.4,0.4-1,0.4-1.4,0L68.4,51.6z M70,45.1l-1.6-1.6
		c-0.4-0.4-0.4-1,0-1.4l1.6-1.6c0.4-0.4,1-0.4,1.4,0l1.6,1.6c0.4,0.4,0.4,1,0,1.4l-1.6,1.6C71.1,45.5,70.4,45.5,70,45.1z M69,39.5
		l-1.6,1.6c-0.4,0.4-1,0.4-1.4,0l-1.6-1.6c-0.4-0.4-0.4-1,0-1.4l1.6-1.6c0.4-0.4,1-0.4,1.4,0l1.6,1.6C69.4,38.5,69.4,39.1,69,39.5z
		 M64.9,35.4L63.3,37c-0.4,0.4-1,0.4-1.4,0l-1.6-1.6c-0.4-0.4-0.4-1,0-1.4l1.6-1.6c0.4-0.4,1-0.4,1.4,0l1.6,1.6
		C65.3,34.4,65.3,35,64.9,35.4z M60.9,38.1c0.4,0.4,0.4,1,0,1.4l-1.6,1.6c-0.4,0.4-1,0.4-1.4,0l-1.6-1.6c-0.4-0.4-0.4-1,0-1.4
		l1.6-1.6c0.4-0.4,1-0.4,1.4,0L60.9,38.1z M56.8,35.4L55.2,37c-0.4,0.4-1,0.4-1.4,0l-1.6-1.6c-0.4-0.4-0.4-1,0-1.4l1.6-1.6
		c0.4-0.4,1-0.4,1.4,0l1.6,1.6C57.2,34.4,57.2,35,56.8,35.4z M52.8,38.1c0.4,0.4,0.4,1,0,1.4l-1.6,1.6c-0.4,0.4-1,0.4-1.4,0
		l-1.6-1.6c-0.4-0.4-0.4-1,0-1.4l1.6-1.6c0.4-0.4,1-0.4,1.4,0L52.8,38.1z M48.7,35.4L47.1,37c-0.4,0.4-1,0.4-1.4,0l-1.6-1.6
		c-0.4-0.4-0.4-1,0-1.4l1.6-1.6c0.4-0.4,1-0.4,1.4,0l1.6,1.6C49.1,34.4,49.1,35,48.7,35.4z M44.7,38.1c0.4,0.4,0.4,1,0,1.4l-1.6,1.6
		c-0.4,0.4-1,0.4-1.4,0l-1.6-1.6c-0.4-0.4-0.4-1,0-1.4l1.6-1.6c0.4-0.4,1-0.4,1.4,0L44.7,38.1z M40.6,35.4L39,37
		c-0.4,0.4-1,0.4-1.4,0L36,35.4c-0.4-0.4-0.4-1,0-1.4l1.6-1.6c0.4-0.4,1-0.4,1.4,0l1.6,1.6C41,34.4,41,35,40.6,35.4z M36.6,38.1
		c0.4,0.4,0.4,1,0,1.4L35,41.1c-0.4,0.4-1,0.4-1.4,0L32,39.5c-0.4-0.4-0.4-1,0-1.4l1.6-1.6c0.4-0.4,1-0.4,1.4,0L36.6,38.1z
		 M32.5,42.1c0.4,0.4,0.4,1,0,1.4l-1.6,1.6c-0.4,0.4-1,0.4-1.4,0l-1.6-1.6c-0.4-0.4-0.4-1,0-1.4l1.6-1.6c0.4-0.4,1-0.4,1.4,0
		L32.5,42.1z M28.5,46.2c0.4,0.4,0.4,1,0,1.4l-1.6,1.6c-0.4,0.4-1,0.4-1.4,0l-1.6-1.6c-0.4-0.4-0.4-1,0-1.4l1.6-1.6
		c0.4-0.4,1-0.4,1.4,0L28.5,46.2z M26.9,52.7l1.6,1.6c0.4,0.4,0.4,1,0,1.4l-1.6,1.6c-0.4,0.4-1,0.4-1.4,0l-1.6-1.6
		c-0.4-0.4-0.4-1,0-1.4l1.6-1.6C25.9,52.3,26.5,52.3,26.9,52.7z M27.9,58.3l1.6-1.6c0.4-0.4,1-0.4,1.4,0l1.6,1.6
		c0.4,0.4,0.4,1,0,1.4l-1.6,1.6c-0.4,0.4-1,0.4-1.4,0l-1.6-1.6C27.5,59.3,27.5,58.7,27.9,58.3z M32,62.4l1.6-1.6
		c0.4-0.4,1-0.4,1.4,0l1.6,1.6c0.4,0.4,0.4,1,0,1.4L35,65.4c-0.4,0.4-1,0.4-1.4,0L32,63.8C31.6,63.4,31.6,62.8,32,62.4z M36,66.4
		l1.6-1.6c0.4-0.4,1-0.4,1.4,0l1.6,1.6c0.4,0.4,0.4,1,0,1.4L39,69.4c-0.4,0.4-1,0.4-1.4,0L36,67.8C35.6,67.4,35.6,66.8,36,66.4z
		 M40.1,63.8c-0.4-0.4-0.4-1,0-1.4l1.6-1.6c0.4-0.4,1-0.4,1.4,0l1.6,1.6c0.4,0.4,0.4,1,0,1.4l-1.6,1.6c-0.4,0.4-1,0.4-1.4,0
		L40.1,63.8z M44.1,66.4l1.6-1.6c0.4-0.4,1-0.4,1.4,0l1.6,1.6c0.4,0.4,0.4,1,0,1.4l-1.6,1.6c-0.4,0.4-1,0.4-1.4,0l-1.6-1.6
		C43.7,67.4,43.7,66.8,44.1,66.4z M48.2,70.5l1.6-1.6c0.4-0.4,1-0.4,1.4,0l1.6,1.6c0.4,0.4,0.4,1,0,1.4l-1.6,1.6
		c-0.4,0.4-1,0.4-1.4,0l-1.6-1.6C47.8,71.5,47.8,70.9,48.2,70.5z M52.2,67.8c-0.4-0.4-0.4-1,0-1.4l1.6-1.6c0.4-0.4,1-0.4,1.4,0
		l1.6,1.6c0.4,0.4,0.4,1,0,1.4l-1.6,1.6c-0.4,0.4-1,0.4-1.4,0L52.2,67.8z M56.3,63.8c-0.4-0.4-0.4-1,0-1.4l1.6-1.6
		c0.4-0.4,1-0.4,1.4,0l1.6,1.6c0.4,0.4,0.4,1,0,1.4l-1.6,1.6c-0.4,0.4-1,0.4-1.4,0L56.3,63.8z M60.3,66.4l1.6-1.6
		c0.4-0.4,1-0.4,1.4,0l1.6,1.6c0.4,0.4,0.4,1,0,1.4l-1.6,1.6c-0.4,0.4-1,0.4-1.4,0l-1.6-1.6C59.9,67.4,59.9,66.8,60.3,66.4z
		 M64.4,63.8c-0.4-0.4-0.4-1,0-1.4l1.6-1.6c0.4-0.4,1-0.4,1.4,0l1.6,1.6c0.4,0.4,0.4,1,0,1.4l-1.6,1.6c-0.4,0.4-1,0.4-1.4,0
		L64.4,63.8z M68.4,59.7c-0.4-0.4-0.4-1,0-1.4l1.6-1.6c0.4-0.4,1-0.4,1.4,0l1.6,1.6c0.4,0.4,0.4,1,0,1.4l-1.6,1.6
		c-0.4,0.4-1,0.4-1.4,0L68.4,59.7z M72.5,55.7c-0.4-0.4-0.4-1,0-1.4l1.6-1.6c0.4-0.4,1-0.4,1.4,0l1.6,1.6c0.4,0.4,0.4,1,0,1.4
		l-1.6,1.6c-0.4,0.4-1,0.4-1.4,0L72.5,55.7z M74.1,49.2l-1.6-1.6c-0.4-0.4-0.4-1,0-1.4l1.6-1.6c0.4-0.4,1-0.4,1.4,0l1.6,1.6
		c0.4,0.4,0.4,1,0,1.4l-1.6,1.6C75.1,49.6,74.5,49.6,74.1,49.2z M74.1,41.1l-1.6-1.6c-0.4-0.4-0.4-1,0-1.4l1.6-1.6
		c0.4-0.4,1-0.4,1.4,0l1.6,1.6c0.4,0.4,0.4,1,0,1.4l-1.6,1.6C75.1,41.5,74.5,41.5,74.1,41.1z M73.1,35.4L71.4,37
		c-0.4,0.4-1,0.4-1.4,0l-1.6-1.6c-0.4-0.4-0.4-1,0-1.4l1.6-1.6c0.4-0.4,1-0.4,1.4,0l1.6,1.6C73.4,34.4,73.4,35,73.1,35.4z M69,31.4
		L67.4,33c-0.4,0.4-1,0.4-1.4,0l-1.6-1.6c-0.4-0.4-0.4-1,0-1.4l1.6-1.6c0.4-0.4,1-0.4,1.4,0L69,30C69.4,30.3,69.4,31,69,31.4z
		 M64.9,27.3l-1.6,1.6c-0.4,0.4-1,0.4-1.4,0l-1.6-1.6c-0.4-0.4-0.4-1,0-1.4l1.6-1.6c0.4-0.4,1-0.4,1.4,0l1.6,1.6
		C65.3,26.3,65.3,26.9,64.9,27.3z M60.9,30c0.4,0.4,0.4,1,0,1.4L59.3,33c-0.4,0.4-1,0.4-1.4,0l-1.6-1.6c-0.4-0.4-0.4-1,0-1.4
		l1.6-1.6c0.4-0.4,1-0.4,1.4,0L60.9,30z M56.8,27.3l-1.6,1.6c-0.4,0.4-1,0.4-1.4,0l-1.6-1.6c-0.4-0.4-0.4-1,0-1.4l1.6-1.6
		c0.4-0.4,1-0.4,1.4,0l1.6,1.6C57.2,26.3,57.2,26.9,56.8,27.3z M52.8,30c0.4,0.4,0.4,1,0,1.4L51.2,33c-0.4,0.4-1,0.4-1.4,0l-1.6-1.6
		c-0.4-0.4-0.4-1,0-1.4l1.6-1.6c0.4-0.4,1-0.4,1.4,0L52.8,30z M48.7,27.3l-1.6,1.6c-0.4,0.4-1,0.4-1.4,0l-1.6-1.6
		c-0.4-0.4-0.4-1,0-1.4l1.6-1.6c0.4-0.4,1-0.4,1.4,0l1.6,1.6C49.1,26.3,49.1,26.9,48.7,27.3z M44.7,30c0.4,0.4,0.4,1,0,1.4L43.1,33
		c-0.4,0.4-1,0.4-1.4,0l-1.6-1.6c-0.4-0.4-0.4-1,0-1.4l1.6-1.6c0.4-0.4,1-0.4,1.4,0L44.7,30z M40.6,27.3L39,28.9
		c-0.4,0.4-1,0.4-1.4,0L36,27.3c-0.4-0.4-0.4-1,0-1.4l1.6-1.6c0.4-0.4,1-0.4,1.4,0l1.6,1.6C41,26.3,41,26.9,40.6,27.3z M36.6,30
		c0.4,0.4,0.4,1,0,1.4L35,33c-0.4,0.4-1,0.4-1.4,0L32,31.4c-0.4-0.4-0.4-1,0-1.4l1.6-1.6c0.4-0.4,1-0.4,1.4,0L36.6,30z M32.5,34
		c0.4,0.4,0.4,1,0,1.4L30.9,37c-0.4,0.4-1,0.4-1.4,0l-1.6-1.6c-0.4-0.4-0.4-1,0-1.4l1.6-1.6c0.4-0.4,1-0.4,1.4,0L32.5,34z
		 M28.5,38.1c0.4,0.4,0.4,1,0,1.4l-1.6,1.6c-0.4,0.4-1,0.4-1.4,0l-1.6-1.6c-0.4-0.4-0.4-1,0-1.4l1.6-1.6c0.4-0.4,1-0.4,1.4,0
		L28.5,38.1z M24.4,42.1c0.4,0.4,0.4,1,0,1.4l-1.6,1.6c-0.4,0.4-1,0.4-1.4,0l-1.6-1.6c-0.4-0.4-0.4-1,0-1.4l1.6-1.6
		c0.4-0.4,1-0.4,1.4,0L24.4,42.1z M21.4,48.6c0.4-0.4,1-0.4,1.4,0l1.6,1.6c0.4,0.4,0.4,1,0,1.4l-1.6,1.6c-0.4,0.4-1,0.4-1.4,0
		l-1.6-1.6c-0.4-0.4-0.4-1,0-1.4L21.4,48.6z M20.4,54.3c0.4,0.4,0.4,1,0,1.4l-1.6,1.6c-0.4,0.4-1,0.4-1.4,0l-1.6-1.6
		c-0.4-0.4-0.4-1,0-1.4l1.6-1.6c0.4-0.4,1-0.4,1.4,0L20.4,54.3z M19.8,58.3l1.6-1.6c0.4-0.4,1-0.4,1.4,0l1.6,1.6
		c0.4,0.4,0.4,1,0,1.4l-1.6,1.6c-0.4,0.4-1,0.4-1.4,0l-1.6-1.6C19.4,59.3,19.4,58.7,19.8,58.3z M23.9,62.4l1.6-1.6
		c0.4-0.4,1-0.4,1.4,0l1.6,1.6c0.4,0.4,0.4,1,0,1.4l-1.6,1.6c-0.4,0.4-1,0.4-1.4,0l-1.6-1.6C23.5,63.4,23.5,62.8,23.9,62.4z
		 M27.9,66.4l1.6-1.6c0.4-0.4,1-0.4,1.4,0l1.6,1.6c0.4,0.4,0.4,1,0,1.4l-1.6,1.6c-0.4,0.4-1,0.4-1.4,0l-1.6-1.6
		C27.5,67.4,27.5,66.8,27.9,66.4z M32,70.5l1.6-1.6c0.4-0.4,1-0.4,1.4,0l1.6,1.6c0.4,0.4,0.4,1,0,1.4L35,73.5c-0.4,0.4-1,0.4-1.4,0
		L32,71.9C31.6,71.5,31.6,70.9,32,70.5z M36,74.5l1.6-1.6c0.4-0.4,1-0.4,1.4,0l1.6,1.6c0.4,0.4,0.4,1,0,1.4L39,77.5
		c-0.4,0.4-1,0.4-1.4,0L36,75.9C35.6,75.5,35.6,74.9,36,74.5z M40.1,71.9c-0.4-0.4-0.4-1,0-1.4l1.6-1.6c0.4-0.4,1-0.4,1.4,0l1.6,1.6
		c0.4,0.4,0.4,1,0,1.4l-1.6,1.6c-0.4,0.4-1,0.4-1.4,0L40.1,71.9z M44.1,74.5l1.6-1.6c0.4-0.4,1-0.4,1.4,0l1.6,1.6
		c0.4,0.4,0.4,1,0,1.4l-1.6,1.6c-0.4,0.4-1,0.4-1.4,0l-1.6-1.6C43.7,75.5,43.7,74.9,44.1,74.5z M48.2,78.6l1.6-1.6
		c0.4-0.4,1-0.4,1.4,0l1.6,1.6c0.4,0.4,0.4,1,0,1.4l-1.6,1.6c-0.4,0.4-1,0.4-1.4,0L48.2,80C47.8,79.6,47.8,79,48.2,78.6z M52.2,75.9
		c-0.4-0.4-0.4-1,0-1.4l1.6-1.6c0.4-0.4,1-0.4,1.4,0l1.6,1.6c0.4,0.4,0.4,1,0,1.4l-1.6,1.6c-0.4,0.4-1,0.4-1.4,0L52.2,75.9z
		 M56.3,71.9c-0.4-0.4-0.4-1,0-1.4l1.6-1.6c0.4-0.4,1-0.4,1.4,0l1.6,1.6c0.4,0.4,0.4,1,0,1.4l-1.6,1.6c-0.4,0.4-1,0.4-1.4,0
		L56.3,71.9z M60.3,74.5l1.6-1.6c0.4-0.4,1-0.4,1.4,0l1.6,1.6c0.4,0.4,0.4,1,0,1.4l-1.6,1.6c-0.4,0.4-1,0.4-1.4,0l-1.6-1.6
		C59.9,75.5,59.9,74.9,60.3,74.5z M64.4,71.9c-0.4-0.4-0.4-1,0-1.4l1.6-1.6c0.4-0.4,1-0.4,1.4,0l1.6,1.6c0.4,0.4,0.4,1,0,1.4
		l-1.6,1.6c-0.4,0.4-1,0.4-1.4,0L64.4,71.9z M68.4,67.8c-0.4-0.4-0.4-1,0-1.4l1.6-1.6c0.4-0.4,1-0.4,1.4,0l1.6,1.6
		c0.4,0.4,0.4,1,0,1.4l-1.6,1.6c-0.4,0.4-1,0.4-1.4,0L68.4,67.8z M72.5,63.8c-0.4-0.4-0.4-1,0-1.4l1.6-1.6c0.4-0.4,1-0.4,1.4,0
		l1.6,1.6c0.4,0.4,0.4,1,0,1.4l-1.6,1.6c-0.4,0.4-1,0.4-1.4,0L72.5,63.8z M76.5,59.7c-0.4-0.4-0.4-1,0-1.4l1.6-1.6
		c0.4-0.4,1-0.4,1.4,0l1.6,1.6c0.4,0.4,0.4,1,0,1.4l-1.6,1.6c-0.4,0.4-1,0.4-1.4,0L76.5,59.7z M78.1,53.2l-1.6-1.6
		c-0.4-0.4-0.4-1,0-1.4l1.6-1.6c0.4-0.4,1-0.4,1.4,0l1.6,1.6c0.4,0.4,0.4,1,0,1.4l-1.6,1.6C79.2,53.6,78.5,53.6,78.1,53.2z
		 M78.1,45.1l-1.6-1.6c-0.4-0.4-0.4-1,0-1.4l1.6-1.6c0.4-0.4,1-0.4,1.4,0l1.6,1.6c0.4,0.4,0.4,1,0,1.4l-1.6,1.6
		C79.2,45.5,78.5,45.5,78.1,45.1z M79.6,32.4l1.6,1.6c0.4,0.4,0.4,1,0,1.4L79.6,37c-0.4,0.4-1,0.4-1.4,0l-1.6-1.6
		c-0.4-0.4-0.4-1,0-1.4l1.6-1.6C78.5,32,79.2,32,79.6,32.4z M75.5,28.3l1.6,1.6c0.4,0.4,0.4,1,0,1.4L75.5,33c-0.4,0.4-1,0.4-1.4,0
		l-1.6-1.6c-0.4-0.4-0.4-1,0-1.4l1.6-1.6C74.5,28,75.1,28,75.5,28.3z M71.4,24.3l1.6,1.6c0.4,0.4,0.4,1,0,1.4l-1.6,1.6
		c-0.4,0.4-1,0.4-1.4,0l-1.6-1.6c-0.4-0.4-0.4-1,0-1.4l1.6-1.6C70.4,23.9,71.1,23.9,71.4,24.3z M67.4,20.2l1.6,1.6
		c0.4,0.4,0.4,1,0,1.4l-1.6,1.6c-0.4,0.4-1,0.4-1.4,0l-1.6-1.6c-0.4-0.4-0.4-1,0-1.4l1.6-1.6C66.4,19.9,67,19.9,67.4,20.2z
		 M60.3,17.8l1.6-1.6c0.4-0.4,1-0.4,1.4,0l1.6,1.6c0.4,0.4,0.4,1,0,1.4l-1.6,1.6c-0.4,0.4-1,0.4-1.4,0l-1.6-1.6
		C59.9,18.8,59.9,18.2,60.3,17.8z M59.3,20.2l1.6,1.6c0.4,0.4,0.4,1,0,1.4l-1.6,1.6c-0.4,0.4-1,0.4-1.4,0l-1.6-1.6
		c-0.4-0.4-0.4-1,0-1.4l1.6-1.6C58.3,19.9,58.9,19.9,59.3,20.2z M52.2,17.8l1.6-1.6c0.4-0.4,1-0.4,1.4,0l1.6,1.6
		c0.4,0.4,0.4,1,0,1.4l-1.6,1.6c-0.4,0.4-1,0.4-1.4,0l-1.6-1.6C51.8,18.8,51.8,18.2,52.2,17.8z M51.2,20.2l1.6,1.6
		c0.4,0.4,0.4,1,0,1.4l-1.6,1.6c-0.4,0.4-1,0.4-1.4,0l-1.6-1.6c-0.4-0.4-0.4-1,0-1.4l1.6-1.6C50.2,19.9,50.8,19.9,51.2,20.2z
		 M44.1,17.8l1.6-1.6c0.4-0.4,1-0.4,1.4,0l1.6,1.6c0.4,0.4,0.4,1,0,1.4l-1.6,1.6c-0.4,0.4-1,0.4-1.4,0l-1.6-1.6
		C43.7,18.8,43.7,18.2,44.1,17.8z M43.1,20.2l1.6,1.6c0.4,0.4,0.4,1,0,1.4l-1.6,1.6c-0.4,0.4-1,0.4-1.4,0l-1.6-1.6
		c-0.4-0.4-0.4-1,0-1.4l1.6-1.6C42.1,19.9,42.7,19.9,43.1,20.2z M36,17.8l1.6-1.6c0.4-0.4,1-0.4,1.4,0l1.6,1.6c0.4,0.4,0.4,1,0,1.4
		L39,20.8c-0.4,0.4-1,0.4-1.4,0L36,19.2C35.6,18.8,35.6,18.2,36,17.8z M32,21.9l1.6-1.6c0.4-0.4,1-0.4,1.4,0l1.6,1.6
		c0.4,0.4,0.4,1,0,1.4L35,24.9c-0.4,0.4-1,0.4-1.4,0L32,23.3C31.6,22.9,31.6,22.2,32,21.9z M27.9,25.9l1.6-1.6c0.4-0.4,1-0.4,1.4,0
		l1.6,1.6c0.4,0.4,0.4,1,0,1.4l-1.6,1.6c-0.4,0.4-1,0.4-1.4,0l-1.6-1.6C27.5,26.9,27.5,26.3,27.9,25.9z M23.9,30l1.6-1.6
		c0.4-0.4,1-0.4,1.4,0l1.6,1.6c0.4,0.4,0.4,1,0,1.4L26.9,33c-0.4,0.4-1,0.4-1.4,0l-1.6-1.6C23.5,31,23.5,30.3,23.9,30z M19.8,34
		l1.6-1.6c0.4-0.4,1-0.4,1.4,0l1.6,1.6c0.4,0.4,0.4,1,0,1.4L22.8,37c-0.4,0.4-1,0.4-1.4,0l-1.6-1.6C19.4,35,19.4,34.4,19.8,34z
		 M15.7,38.1l1.6-1.6c0.4-0.4,1-0.4,1.4,0l1.6,1.6c0.4,0.4,0.4,1,0,1.4l-1.6,1.6c-0.4,0.4-1,0.4-1.4,0l-1.6-1.6
		C15.4,39.1,15.4,38.4,15.7,38.1z M15.7,46.2l1.6-1.6c0.4-0.4,1-0.4,1.4,0l1.6,1.6c0.4,0.4,0.4,1,0,1.4l-1.6,1.6
		c-0.4,0.4-1,0.4-1.4,0l-1.6-1.6C15.4,47.2,15.4,46.6,15.7,46.2z M17.4,65.4l-1.6-1.6c-0.4-0.4-0.4-1,0-1.4l1.6-1.6
		c0.4-0.4,1-0.4,1.4,0l1.6,1.6c0.4,0.4,0.4,1,0,1.4l-1.6,1.6C18.4,65.8,17.7,65.8,17.4,65.4z M21.4,69.4l-1.6-1.6
		c-0.4-0.4-0.4-1,0-1.4l1.6-1.6c0.4-0.4,1-0.4,1.4,0l1.6,1.6c0.4,0.4,0.4,1,0,1.4l-1.6,1.6C22.4,69.8,21.8,69.8,21.4,69.4z
		 M25.5,73.5l-1.6-1.6c-0.4-0.4-0.4-1,0-1.4l1.6-1.6c0.4-0.4,1-0.4,1.4,0l1.6,1.6c0.4,0.4,0.4,1,0,1.4l-1.6,1.6
		C26.5,73.9,25.9,73.9,25.5,73.5z M29.5,77.5l-1.6-1.6c-0.4-0.4-0.4-1,0-1.4l1.6-1.6c0.4-0.4,1-0.4,1.4,0l1.6,1.6
		c0.4,0.4,0.4,1,0,1.4l-1.6,1.6C30.5,77.9,29.9,77.9,29.5,77.5z M33.6,81.6L32,80c-0.4-0.4-0.4-1,0-1.4l1.6-1.6c0.4-0.4,1-0.4,1.4,0
		l1.6,1.6c0.4,0.4,0.4,1,0,1.4L35,81.6C34.6,82,34,82,33.6,81.6z M40.6,84L39,85.7c-0.4,0.4-1,0.4-1.4,0L36,84c-0.4-0.4-0.4-1,0-1.4
		l1.6-1.6c0.4-0.4,1-0.4,1.4,0l1.6,1.6C41,83,41,83.7,40.6,84z M41.7,81.6L40.1,80c-0.4-0.4-0.4-1,0-1.4l1.6-1.6
		c0.4-0.4,1-0.4,1.4,0l1.6,1.6c0.4,0.4,0.4,1,0,1.4l-1.6,1.6C42.7,82,42.1,82,41.7,81.6z M45.7,85.7L44.1,84c-0.4-0.4-0.4-1,0-1.4
		l1.6-1.6c0.4-0.4,1-0.4,1.4,0l1.6,1.6c0.4,0.4,0.4,1,0,1.4l-1.6,1.6C46.7,86,46.1,86,45.7,85.7z M53.7,94.5c0,0.1,0,0.2,0,0.2
		c0,0.1,0,0.1-0.1,0.1s-0.1,0-0.1,0h-5.6c0,0-0.1,0-0.1,0c0,0-0.1-0.1-0.1-0.1s0-0.1,0-0.2c0-0.1,0-0.2,0-0.3c0-0.1,0-0.2,0-0.3
		c0-0.1,0-0.2,0-0.2c0-0.1,0-0.1,0.1-0.1c0,0,0.1,0,0.1,0h2v-6.4c0,0,0-0.1,0-0.1c0,0,0.1-0.1,0.1-0.1c0.1,0,0.1,0,0.2-0.1
		c0.1,0,0.2,0,0.4,0c0.2,0,0.3,0,0.4,0c0.1,0,0.2,0,0.2,0.1c0.1,0,0.1,0,0.1,0.1c0,0,0,0.1,0,0.1v6.4h2c0,0,0.1,0,0.1,0
		c0,0,0.1,0.1,0.1,0.1c0,0.1,0,0.1,0,0.2c0,0.1,0,0.2,0,0.3C53.7,94.3,53.7,94.4,53.7,94.5z M56.8,84l-1.6,1.6c-0.4,0.4-1,0.4-1.4,0
		L52.2,84c-0.4-0.4-0.4-1,0-1.4l1.6-1.6c0.4-0.4,1-0.4,1.4,0l1.6,1.6C57.2,83,57.2,83.7,56.8,84z M57.9,81.6L56.3,80
		c-0.4-0.4-0.4-1,0-1.4l1.6-1.6c0.4-0.4,1-0.4,1.4,0l1.6,1.6c0.4,0.4,0.4,1,0,1.4l-1.6,1.6C58.9,82,58.3,82,57.9,81.6z M64.9,84
		l-1.6,1.6c-0.4,0.4-1,0.4-1.4,0L60.3,84c-0.4-0.4-0.4-1,0-1.4l1.6-1.6c0.4-0.4,1-0.4,1.4,0l1.6,1.6C65.3,83,65.3,83.7,64.9,84z
		 M69,80l-1.6,1.6c-0.4,0.4-1,0.4-1.4,0L64.4,80c-0.4-0.4-0.4-1,0-1.4L66,77c0.4-0.4,1-0.4,1.4,0l1.6,1.6C69.4,79,69.4,79.6,69,80z
		 M73.1,75.9l-1.6,1.6c-0.4,0.4-1,0.4-1.4,0l-1.6-1.6c-0.4-0.4-0.4-1,0-1.4l1.6-1.6c0.4-0.4,1-0.4,1.4,0l1.6,1.6
		C73.4,74.9,73.4,75.5,73.1,75.9z M77.1,71.9l-1.6,1.6c-0.4,0.4-1,0.4-1.4,0l-1.6-1.6c-0.4-0.4-0.4-1,0-1.4l1.6-1.6
		c0.4-0.4,1-0.4,1.4,0l1.6,1.6C77.5,70.9,77.5,71.5,77.1,71.9z M81.2,67.8l-1.6,1.6c-0.4,0.4-1,0.4-1.4,0l-1.6-1.6
		c-0.4-0.4-0.4-1,0-1.4l1.6-1.6c0.4-0.4,1-0.4,1.4,0l1.6,1.6C81.5,66.8,81.6,67.4,81.2,67.8z M85.2,63.8l-1.6,1.6
		c-0.4,0.4-1,0.4-1.4,0l-1.6-1.6c-0.4-0.4-0.4-1,0-1.4l1.6-1.6c0.4-0.4,1-0.4,1.4,0l1.6,1.6C85.6,62.8,85.6,63.4,85.2,63.8z
		 M85.2,55.7l-1.6,1.6c-0.4,0.4-1,0.4-1.4,0l-1.6-1.6c-0.4-0.4-0.4-1,0-1.4l1.6-1.6c0.4-0.4,1-0.4,1.4,0l1.6,1.6
		C85.6,54.7,85.6,55.3,85.2,55.7z M85.2,47.6l-1.6,1.6c-0.4,0.4-1,0.4-1.4,0l-1.6-1.6c-0.4-0.4-0.4-1,0-1.4l1.6-1.6
		c0.4-0.4,1-0.4,1.4,0l1.6,1.6C85.6,46.6,85.6,47.2,85.2,47.6z"/>
</g>
</svg>
