<?xml version="1.0" encoding="utf-8"?>
<!-- Generator: Adobe Illustrator 25.2.3, SVG Export Plug-In . SVG Version: 6.00 Build 0)  -->
<svg version="1.1" id="Слой_1" xmlns="http://www.w3.org/2000/svg" xmlns:xlink="http://www.w3.org/1999/xlink" x="0px" y="0px"
	 viewBox="0 0 42.8 42.8" style="enable-background:new 0 0 42.8 42.8;" xml:space="preserve">
<style type="text/css">
	.st0{clip-path:url(#SVGID_2_);fill:#C1A206;}
	.st1{clip-path:url(#SVGID_2_);fill:#FFFFFF;}
</style>
<g>
	<defs>
		<rect id="SVGID_1_" y="0" width="42.8" height="42.8"/>
	</defs>
	<clipPath id="SVGID_2_">
		<use xlink:href="#SVGID_1_"  style="overflow:visible;"/>
	</clipPath>
	<path class="st0" d="M21.4,42.8c11.8,0,21.4-9.6,21.4-21.4C42.8,9.6,33.2,0,21.4,0S0,9.6,0,21.4C0,33.2,9.6,42.8,21.4,42.8"/>
	<path class="st1" d="M18.3,20.9c0.3,0,0.5,0.2,0.5,0.5s-0.2,0.5-0.5,0.5c-0.3,0-0.5-0.2-0.5-0.5C17.8,21.1,18,20.9,18.3,20.9
		 M7.7,23.1c0.7,0,1.4-0.5,1.6-1.2h6.3v0.5c0,0.5,0.4,1,1,1h3.4c0.5,0,1-0.4,1-1v-2c0-0.5-0.4-1-1-1h-3.4c-0.5,0-1,0.4-1,1v0.5H9.3
		C9,20,8.1,19.4,7.2,19.7C6.3,20,5.8,21,6.1,21.9C6.3,22.6,6.9,23.1,7.7,23.1"/>
	<path class="st1" d="M36.5,7.8l-1.5-1c-0.1,0-0.2-0.1-0.3-0.1h-0.7c-0.3-0.9-1.2-1.4-2.1-1.2c-0.9,0.3-1.4,1.2-1.1,2.2
		c0.3,0.9,1.2,1.4,2.1,1.2c0.5-0.2,1-0.6,1.1-1.2h0.6l1.2,0.8v8.7h-13v-5.7c0-0.3-0.2-0.5-0.5-0.5h-8.6L13,9.8V8.9
		c0.9-0.3,1.4-1.2,1.1-2.2c-0.3-0.9-1.2-1.4-2.1-1.2c-0.9,0.3-1.4,1.2-1.1,2.2c0.2,0.6,0.6,1,1.1,1.2v1.1c0,0.1,0,0.2,0.1,0.3l1,1.5
		c0.1,0.1,0.2,0.2,0.4,0.2h8.4v5.7c0,0.3,0.2,0.5,0.5,0.5h13.9c0.3,0,0.5-0.2,0.5-0.5V8.2C36.8,8,36.7,7.9,36.5,7.8"/>
	<path class="st1" d="M36.3,24.6H22.3c-0.3,0-0.5,0.2-0.5,0.5v5.7l-8.4,0c-0.2,0-0.3,0.1-0.4,0.2l-0.9,1.5C12,32.6,12,32.7,12,32.8
		v1.1c-0.9,0.3-1.4,1.2-1.1,2.2c0.3,0.9,1.2,1.4,2.1,1.2s1.4-1.2,1.1-2.2c-0.2-0.6-0.6-1-1.1-1.2V33l0.7-1.1l8.7,0
		c0.3,0,0.5-0.2,0.5-0.5v-5.7h13v8.7l-1.2,0.8h-0.6c-0.3-0.9-1.2-1.4-2.1-1.2c-0.9,0.3-1.4,1.2-1.1,2.2c0.3,0.9,1.2,1.4,2.1,1.2
		c0.5-0.2,1-0.6,1.1-1.2h0.7c0.1,0,0.2,0,0.3-0.1l1.5-1c0.1-0.1,0.2-0.2,0.2-0.4v-9.5C36.8,24.8,36.6,24.6,36.3,24.6"/>
	<path class="st1" d="M28.1,29.8c-0.9,0-1.7,0.8-1.7,1.7c0,0.8,0.5,1.4,1.2,1.7v3.1H15.9v-2.5h8.4c0.3,0,0.5-0.2,0.5-0.5v-5.7H32
		v1.3c-0.9,0.3-1.4,1.2-1.1,2.2c0.3,0.9,1.2,1.4,2.1,1.2c0.9-0.3,1.4-1.2,1.1-2.2c-0.2-0.6-0.6-1-1.1-1.2v-1.8
		c0-0.3-0.2-0.5-0.5-0.5h-8.2c-0.3,0-0.5,0.2-0.5,0.5v5.7h-8.4c-0.3,0-0.5,0.2-0.5,0.5v3.5c0,0.3,0.2,0.5,0.5,0.5h12.7
		c0.3,0,0.5-0.2,0.5-0.5v-3.6c0.9-0.3,1.4-1.2,1.1-2.2C29.5,30.3,28.9,29.8,28.1,29.8"/>
	<path class="st1" d="M28.8,11.2c0,0.4-0.3,0.7-0.7,0.7c-0.4,0-0.7-0.3-0.7-0.7c0-0.4,0.3-0.7,0.7-0.7
		C28.5,10.4,28.8,10.8,28.8,11.2 M31.7,12.2c0-0.4,0.3-0.7,0.7-0.7c0.4,0,0.7,0.3,0.7,0.7s-0.3,0.7-0.7,0.7
		C32,12.9,31.7,12.6,31.7,12.2 M15.4,9.9h8.4v5.7c0,0.3,0.2,0.5,0.5,0.5h8.2c0.3,0,0.5-0.2,0.5-0.5v-1.8c0.9-0.3,1.4-1.2,1.1-2.2
		c-0.3-0.9-1.2-1.4-2.1-1.2c-0.9,0.3-1.4,1.2-1.1,2.2c0.2,0.6,0.6,1,1.1,1.2v1.3h-7.2V9.4c0-0.3-0.2-0.5-0.5-0.5h-8.4V6.5h11.8v3.1
		c-0.9,0.3-1.4,1.2-1.1,2.2c0.3,0.9,1.2,1.4,2.1,1.2c0.9-0.3,1.4-1.2,1.1-2.2c-0.2-0.6-0.6-1-1.1-1.2V6c0-0.3-0.2-0.5-0.5-0.5H15.4
		c-0.3,0-0.5,0.2-0.5,0.5v3.5C14.9,9.7,15.1,9.9,15.4,9.9"/>
	<path class="st1" d="M24.5,21.9c-0.3,0-0.5-0.2-0.5-0.5s0.2-0.5,0.5-0.5c0.3,0,0.5,0.2,0.5,0.5C25,21.7,24.8,21.9,24.5,21.9
		 M35.1,19.6c-0.7,0-1.4,0.5-1.6,1.2h-6.3v-0.5c0-0.5-0.4-1-1-1h-3.4c-0.5,0-1,0.4-1,1v2c0,0.5,0.4,1,1,1h3.4c0.5,0,1-0.4,1-1v-0.5
		h6.3c0.3,0.9,1.2,1.4,2.1,1.2c0.9-0.3,1.4-1.2,1.1-2.2C36.5,20.1,35.8,19.6,35.1,19.6"/>
	<path class="st1" d="M18.3,15.9c0.3,0,0.5,0.2,0.5,0.5c0,0.3-0.2,0.5-0.5,0.5c-0.3,0-0.5-0.2-0.5-0.5C17.8,16.1,18,15.9,18.3,15.9
		 M9.3,15.9C9,15,8.1,14.5,7.2,14.7S5.8,16,6.1,16.9c0.3,0.9,1.2,1.4,2.1,1.2c0.5-0.2,1-0.6,1.1-1.2h6.3v0.5c0,0.6,0.4,1,1,1h3.4
		c0.5,0,1-0.4,1-1v0v-2c0-0.5-0.4-1-1-1h0h-3.4c-0.5,0-1,0.4-1,1v0v0.5h-3.1v-2.2c0-0.1,0-0.2-0.1-0.3l-1.7-2.5
		c-0.1-0.1-0.2-0.2-0.4-0.2H8.2V8.9C9,8.6,9.6,7.6,9.3,6.7C9,5.8,8.1,5.3,7.2,5.5C6.3,5.8,5.8,6.8,6.1,7.7c0.2,0.6,0.6,1,1.1,1.2
		v2.3c0,0.3,0.2,0.5,0.5,0.5h2.4l1.5,2.1v2.1H9.3z"/>
	<path class="st1" d="M18.3,25.9c0.3,0,0.5,0.2,0.5,0.5c0,0.3-0.2,0.5-0.5,0.5c-0.3,0-0.5-0.2-0.5-0.5C17.8,26.1,18,25.9,18.3,25.9
		 M12.5,29.1v-2.2h3.1v0.5c0,0.5,0.4,1,1,1h0h3.4c0.5,0,1-0.4,1-1v0v-2c0-0.5-0.4-1-1-1h-3.4c-0.5,0-1,0.4-1,1v0.5H9.3
		c-0.3-0.9-1.2-1.4-2.1-1.2c-0.9,0.3-1.4,1.2-1.1,2.2c0.3,0.9,1.2,1.4,2.1,1.2c0.5-0.2,1-0.6,1.1-1.2h2.2v2.1l-1.5,2.1H7.7
		c-0.3,0-0.5,0.2-0.5,0.5v2.3c-0.9,0.3-1.4,1.2-1.1,2.2c0.3,0.9,1.2,1.4,2.1,1.2C9,36.9,9.6,36,9.3,35.1c-0.2-0.6-0.6-1-1.1-1.2
		v-1.8h2.2c0.2,0,0.3-0.1,0.4-0.2l1.7-2.5C12.5,29.3,12.5,29.2,12.5,29.1"/>
</g>
</svg>
