<?xml version="1.0" encoding="utf-8"?>
<!-- Generator: Adobe Illustrator 25.2.3, SVG Export Plug-In . SVG Version: 6.00 Build 0)  -->
<svg version="1.1" id="Слой_1" xmlns="http://www.w3.org/2000/svg" xmlns:xlink="http://www.w3.org/1999/xlink" x="0px" y="0px"
	 viewBox="0 0 42.8 42.8" style="enable-background:new 0 0 42.8 42.8;" xml:space="preserve">
<style type="text/css">
	.st0{clip-path:url(#SVGID_2_);fill:#C1A206;}
	.st1{clip-path:url(#SVGID_2_);fill:#FFFFFF;}
</style>
<g>
	<defs>
		<rect id="SVGID_1_" y="0" width="42.8" height="42.8"/>
	</defs>
	<clipPath id="SVGID_2_">
		<use xlink:href="#SVGID_1_"  style="overflow:visible;"/>
	</clipPath>
	<path class="st0" d="M21.4,42.8c11.8,0,21.4-9.6,21.4-21.4C42.8,9.6,33.2,0,21.4,0S0,9.6,0,21.4C0,33.2,9.6,42.8,21.4,42.8"/>
	<path class="st1" d="M31.5,28.1l-0.7-0.7l1.5-1.5l0.7,0.7L31.5,28.1z M25.6,33H9.4V15.2H14c0.4,0,0.8-0.3,0.8-0.8V9.8h10.8V17
		l-2.2-2.2c0,0-0.1-0.1-0.1-0.1c0,0-0.1,0-0.1-0.1c0,0,0,0,0,0h-0.1l-3.8-1.1c-0.3-0.1-0.6,0-0.8,0.2c-0.2,0.2-0.3,0.5-0.2,0.8
		l1.1,3.8v0c0,0,0,0.1,0.1,0.1c0,0,0,0,0,0c0,0.1,0.1,0.1,0.1,0.1l6,6V33z M13.2,10.9v2.8h-2.8L13.2,10.9z M20.9,16.1l-0.4,0.4
		l-0.2-0.7l0.3-0.3l0.7,0.2L20.9,16.1z M21.3,17.9l0.8-0.8l0.8-0.8l6.5,6.5l-1.5,1.6L21.3,17.9z M28.8,25.5l1.5-1.5l0.8,0.8
		l-1.5,1.5L28.8,25.5z M34.6,26l-7.5-7.5V9c0-0.4-0.3-0.8-0.8-0.8H14h-0.2c0,0,0,0-0.1,0c0,0-0.1,0-0.1,0c0,0-0.1,0-0.1,0s0,0-0.1,0
		c0,0-0.1,0.1-0.1,0.1l-5.4,5.4C8,13.9,8,13.9,8,14c0,0,0,0,0,0.1c0,0,0,0.1,0,0.1c0,0,0,0.1,0,0.1c0,0,0,0,0,0.1v0.2v19.3
		c0,0.4,0.3,0.8,0.8,0.8h17.8c0.1,0,0.2,0,0.3-0.1c0.3-0.1,0.5-0.4,0.5-0.7V26l3.7,3.8c0.2,0.2,0.3,0.2,0.6,0.2
		c0.2,0,0.4-0.1,0.6-0.2l2.7-2.7c0.2-0.2,0.2-0.3,0.2-0.6S34.8,26.2,34.6,26"/>
</g>
</svg>
