<?xml version="1.0" encoding="utf-8"?>
<!-- Generator: Adobe Illustrator 16.0.0, SVG Export Plug-In . SVG Version: 6.00 Build 0)  -->
<!DOCTYPE svg PUBLIC "-//W3C//DTD SVG 1.1//EN" "http://www.w3.org/Graphics/SVG/1.1/DTD/svg11.dtd" [
	<!ENTITY ns_flows "http://ns.adobe.com/Flows/1.0/">
	<!ENTITY ns_extend "http://ns.adobe.com/Extensibility/1.0/">
	<!ENTITY ns_ai "http://ns.adobe.com/AdobeIllustrator/10.0/">
	<!ENTITY ns_graphs "http://ns.adobe.com/Graphs/1.0/">
]>
<svg version="1.1" id="Слой_1" xmlns:x="&ns_extend;" xmlns:i="&ns_ai;" xmlns:graph="&ns_graphs;"
	 xmlns="http://www.w3.org/2000/svg" xmlns:xlink="http://www.w3.org/1999/xlink" xmlns:a="http://ns.adobe.com/AdobeSVGViewerExtensions/3.0/"
	 x="0px" y="0px" width="1048.00195px" height="250.66748px" viewBox="0 0 1048.00195 250.66748"
	 enable-background="new 0 0 1048.00195 250.66748" xml:space="preserve">
<path fill="#093C80" d="M349.43799,86.60107c1.27393-3.53125,1.93799-7.46826,1.93799-11.7793
	c0-4.9502-0.72607-9.20605-2.14111-12.82422c-1.41602-3.60352-3.43701-6.54297-5.99902-8.89795
	c-2.5249-2.33691-5.62061-4.06396-9.20996-5.19287c-3.6167-1.15088-7.52197-1.68408-11.7749-1.68408h-28.68994v90.41943h18.81885
	v-32.98926h10.93408c4.32178,0,8.21924-0.68994,11.68506-2.09424c3.44385-1.38281,6.42285-3.32373,8.86523-5.80566
	C346.23389,93.21973,348.12402,90.16455,349.43799,86.60107 M329.74805,83.50146c-2.1123,1.75244-4.59814,2.58301-7.33691,2.58301
	h-10.03125V63.61182h9.87109c3.31689,0,5.91504,0.85303,7.82422,2.56982c1.87988,1.67334,2.85596,4.47412,2.85596,8.37109
	C332.93115,78.79883,331.87109,81.75293,329.74805,83.50146"/>
<path fill="#093C80" d="M406.01953,135.42529c3.5166-1.3418,6.55664-3.27344,9.06885-5.8418
	c2.60498-2.55859,4.56787-5.63965,5.98291-9.25732c1.43408-3.58203,2.16406-7.62109,2.16406-12.12109V74.55225
	c0-3.56738-0.59619-7.05811-1.75-10.53516c-1.18701-3.45117-2.90625-6.56738-5.26904-9.29297
	c-2.33008-2.71094-5.31299-4.92383-8.96729-6.6123c-3.65381-1.69775-7.93164-2.54297-12.84863-2.54297
	c-5.31299,0-9.80225,0.86719-13.45605,2.64941c-3.68311,1.77344-6.69531,4.06348-9.00586,6.83691
	c-2.36719,2.7749-4.08301,5.87109-5.11719,9.2959c-1.00488,3.38965-1.58594,6.82617-1.58594,10.20117V106.75
	c0,4.11182,0.58105,8.00195,1.65479,11.70703c1.11719,3.74512,2.81592,6.99561,5.13135,9.81982
	c2.37305,2.80078,5.36279,5.04004,9.04688,6.67285c3.68311,1.66211,8.15723,2.48242,13.33203,2.48242
	C398.63135,137.43213,402.49902,136.75342,406.01953,135.42529 M383.98535,107.28369V73.76123
	c0-1.03418,0.18799-2.14844,0.56592-3.31006c0.42529-1.1792,1.02002-2.25342,1.83984-3.26221
	c0.82715-0.96875,1.88721-1.78906,3.19727-2.44189c1.29492-0.66406,2.92773-1.00928,4.81201-1.00928
	c1.87598,0,3.47266,0.40625,4.72461,1.11426c1.27051,0.76611,2.27832,1.62207,3.06934,2.65576
	c0.73291,1.06006,1.30713,2.16309,1.61523,3.27393c0.30469,1.11035,0.42773,2.1333,0.42773,2.97949v35.73291
	c0,3.04395-0.94287,5.39893-2.91016,7.13379c-1.94775,1.74219-4.27783,2.60889-6.92676,2.60889
	c-3.74219,0-6.38721-1.10986-8.00928-3.35986C384.78027,113.61279,383.98535,110.76025,383.98535,107.28369"/>
<path fill="#093C80" d="M448.10986,128.27686c2.29004,2.79883,5.31201,5.04102,8.98096,6.66309
	c3.65088,1.67285,8.13184,2.50488,13.33984,2.50488c7.33398,0,13.58203-2.00391,18.67725-5.98145
	c5.09473-3.99219,8.32861-9.5,9.63477-16.50732l-17.93408-5.20361c-0.36572,2.95361-1.51953,5.25391-3.53076,6.95654
	c-1.98096,1.67236-4.30713,2.5293-6.84717,2.5293c-3.78076,0-6.36914-1.1001-7.8999-3.35986
	c-1.51025-2.26514-2.27197-5.11719-2.27197-8.59424V73.76123c0-1.03711,0.15283-2.14795,0.54102-3.31299
	c0.33398-1.17529,0.89307-2.25,1.69824-3.2583c0.76855-0.97266,1.81055-1.80371,3.06982-2.45703
	c1.31396-0.64893,2.91064-0.96875,4.86279-0.96875c1.78516,0,3.34619,0.34082,4.65625,1.00879
	c1.27295,0.71533,2.37305,1.56006,3.22168,2.48242c0.86328,0.95508,1.49121,2.01758,1.92334,3.19287
	c0.36279,1.16504,0.63916,2.21387,0.81982,3.04102l17.81787-5.31201c-0.59912-2.93213-1.68408-5.77002-3.10986-8.51709
	c-1.52393-2.7251-3.42188-5.11279-5.75488-7.18896c-2.31494-2.10791-5.1499-3.78516-8.43018-5.02197
	c-3.29785-1.26709-7.00391-1.86914-11.14404-1.86914c-5.31982,0-9.79785,0.85693-13.4917,2.63818
	c-3.66943,1.78906-6.63721,4.06396-8.95312,6.83691c-2.28613,2.77588-3.98682,5.86816-5.00293,9.30811
	c-1.05713,3.37402-1.60107,6.81494-1.60107,10.18896v32.20605c0,4.104,0.58105,7.97998,1.66895,11.69971
	C444.13574,122.19189,445.82373,125.45459,448.10986,128.27686"/>
<path fill="#093C80" d="M534.07422,70.44971c0.37012-1.17578,0.93262-2.25,1.67285-3.25879
	c0.79492-0.97168,1.84375-1.80664,3.12402-2.45605c1.30664-0.65381,2.9248-0.97266,4.82324-0.97266
	c1.80664,0,3.33887,0.34473,4.66699,1.01172c1.30273,0.71582,2.37305,1.55713,3.24707,2.479
	c0.86719,0.95801,1.50977,2.021,1.87598,3.19678c0.36719,1.16113,0.66797,2.21045,0.8457,3.04102l17.80273-5.31543
	c-0.61328-2.93311-1.63281-5.77051-3.12012-8.51758c-1.44434-2.72559-3.38184-5.11279-5.71973-7.18457
	c-2.34375-2.1084-5.1709-3.78516-8.42188-5.02637c-3.32031-1.2627-7.05469-1.86865-11.17676-1.86865
	c-5.30176,0-9.77246,0.85986-13.44531,2.63818c-3.7041,1.78857-6.6875,4.06445-8.97754,6.83984
	c-2.28516,2.77295-3.95947,5.86816-5.00732,9.30469c-1.02295,3.37793-1.53906,6.81543-1.53906,10.19336v32.20605
	c0,4.10352,0.51611,7.97559,1.61084,11.69482c1.06055,3.73779,2.7373,6.99756,5.05957,9.82373
	c2.29297,2.79688,5.31543,5.03711,8.97754,6.65918c3.6543,1.67285,8.10254,2.50684,13.32129,2.50684
	c7.35547,0,13.5791-2.00684,18.69141-5.98438c5.10254-3.9873,8.2998-9.49951,9.60938-16.50342L554.09668,109.75
	c-0.33984,2.95703-1.55566,5.25488-3.5332,6.95605c-1.98145,1.67725-4.26758,2.52979-6.86914,2.52979
	c-3.74512,0-6.36133-1.0957-7.87109-3.35693c-1.52441-2.26416-2.2793-5.11963-2.2793-8.59619V73.76025
	C533.54395,72.7251,533.72168,71.61084,534.07422,70.44971"/>
<polygon fill="#093C80" points="590.08398,136.64014 642.68652,136.64014 642.68652,118.85547 608.91016,118.85547 
	608.91016,99.6416 638.00195,99.6416 638.00195,82.32471 608.91016,82.32471 608.91016,63.63623 642.68652,63.63623 
	642.68652,46.22119 590.08398,46.22119 "/>
<polygon fill="#093C80" points="653.07422,63.36572 672.4375,63.36572 672.4375,136.63916 691.16211,136.63916 691.16211,63.36572 
	710.49609,63.36572 710.49609,46.22021 653.07422,46.22021 "/>
<polygon fill="#093C80" points="770.67773,46.22119 744.8291,98.71924 744.56055,98.71924 744.56055,46.22119 725.83594,46.22119 
	725.83594,136.64014 743.50781,136.64014 768.73242,87.42627 768.85156,87.42627 768.85156,136.64014 787.69238,136.64014 
	787.69238,46.22119 "/>
<path fill="#093C80" d="M150.04004,76.12744L78.0918,239.47412c14.49023,5.92969,30.34033,9.25391,47.04395,9.25391
	c16.27539,0,31.78809-3.17188,46.04199-8.92285L153.31689,76.61328C152.17773,76.55908,151.08887,76.40625,150.04004,76.12744"/>
<path fill="#093C80" d="M141.95703,71.26807L6.68604,160.396c9.26807,31.18262,30.50293,57.20117,58.37305,72.74609
	L144.43896,73.5293C143.56104,72.87646,142.68994,72.11035,141.95703,71.26807"/>
<path fill="#093C80" d="M159.48096,75.75439l25.32471,157.60742c28.13135-15.61133,49.55908-41.79688,58.78027-73.30176
	l-80.10986-86.19629C162.27197,74.68066,160.88867,75.30859,159.48096,75.75439"/>
<path fill="#093C80" d="M143.71094,47.05029L117.85889,1.85742C84.22803,3.79932,54.20996,19.17773,33.08008,42.75439
	l105.11182,12.59521C139.1499,52.03662,141.08691,49.17334,143.71094,47.05029"/>
<path fill="#093C80" d="M170.85303,60.65479c-0.13818,3.22217-1.1499,6.21631-2.83398,8.69531l79.14111,75.01074
	c0.9541-6.22363,1.48389-12.63184,1.48389-19.20361c0-26.50098-8.39404-51.05029-22.58984-71.1499L170.85303,60.65479z"/>
<path fill="#093C80" d="M137.68652,61.79248L22.88965,55.78662C9.43359,75.5498,1.58057,99.43506,1.58057,125.16992
	c0,6.93115,0.57275,13.76123,1.69775,20.354L138.6084,65.97266C138.11133,64.68506,137.82861,63.23682,137.68652,61.79248"/>
<path fill="#093C80" d="M154.56201,43.26514c6.8042,0.18213,12.56982,4.37305,15.06299,10.30615l47.14502-11.22412
	C195.8252,19.1416,166.16016,3.97656,132.95605,1.89355l17.42871,41.87305C151.70605,43.47217,153.1001,43.24072,154.56201,43.26514
	"/>
<polygon fill="#093C80" points="330.24512,238.88037 330.24512,204.56982 329.90918,204.56982 325.61133,215.52979 
	320.04492,228.34326 313.2168,228.34326 307.48389,215.10986 303.26904,204.48682 302.93311,204.56982 302.93311,238.88037 
	293.32227,238.88037 293.32227,180.2085 302.51123,180.2085 310.77295,199.43018 316.50586,213.59229 316.8418,213.59229 
	322.49121,199.34424 330.58105,180.2085 339.85596,180.2085 339.85596,238.88037 "/>
<path fill="#093C80" d="M386.16016,221.09326c0,2.8125-0.43457,5.33984-1.30664,7.58594
	c-0.87207,2.25-2.1084,4.17578-3.70898,5.77637c-1.60107,1.60059-3.49902,2.82324-5.69043,3.66602
	c-2.19092,0.84473-4.60986,1.26367-7.25,1.26367c-3.20264,0-5.95605-0.51855-8.25977-1.55762
	c-2.30713-1.03906-4.17383-2.44629-5.60596-4.21387c-1.43506-1.77148-2.48682-3.82227-3.16309-6.15527
	c-0.67188-2.33105-1.01123-4.79102-1.01123-7.375v-22.1709c0-2.07812,0.32227-4.18457,0.97119-6.32227
	c0.64307-2.13477,1.68506-4.0752,3.11719-5.81543c1.43408-1.74219,3.28857-3.17578,5.56592-4.30078
	c2.27295-1.12305,5.06982-1.68555,8.38574-1.68555c3.09033,0,5.75928,0.53613,8.00928,1.60156
	c2.24805,1.06836,4.11475,2.45898,5.60596,4.17188c1.48926,1.7168,2.58398,3.6543,3.28711,5.81836
	c0.70215,2.16406,1.05371,4.3418,1.05371,6.53223V221.09326z M376.38037,197.76123c0-0.73145-0.12598-1.58984-0.37891-2.57617
	c-0.25342-0.98438-0.68701-1.92871-1.30615-2.83008c-0.61914-0.90234-1.44824-1.67383-2.48584-2.32227
	c-1.04199-0.64648-2.37402-0.97266-4.00537-0.97266c-1.63086,0-2.99268,0.29688-4.08887,0.88867
	c-1.09473,0.5918-1.9668,1.32422-2.61279,2.19531c-0.646,0.87305-1.10889,1.81738-1.39111,2.83203
	c-0.28027,1.0127-0.41992,1.9707-0.41992,2.86816l0.08398,22.47168c0,2.81738,0.646,5.17969,1.93701,7.09668
	c1.29492,1.91309,3.48486,2.86914,6.57764,2.86914c2.19141,0,4.08838-0.74609,5.69043-2.2373
	c1.60059-1.49316,2.3999-3.5332,2.3999-6.125V197.76123z"/>
<path fill="#093C80" d="M431.09033,226.40576c-0.95801,4.10156-2.979,7.29102-6.07178,9.56836
	c-3.08936,2.27344-6.82715,3.41211-11.20898,3.41211c-3.03613,0-5.6792-0.47656-7.92627-1.43164
	c-2.24805-0.95605-4.12891-2.27734-5.64697-3.96191c-1.51807-1.68848-2.64307-3.66797-3.37207-5.94531
	c-0.73193-2.27441-1.09473-4.73145-1.09473-7.37402V197.9126c0-2.30371,0.36279-4.55078,1.09473-6.74512
	c0.729-2.19141,1.84082-4.13086,3.33008-5.81641c1.48779-1.68457,3.35791-3.03516,5.60498-4.04492
	c2.24805-1.01172,4.91699-1.51758,8.01025-1.51758c4.71973,0,8.55566,1.23633,11.50586,3.70898
	c2.94873,2.47266,4.90283,5.5625,5.85791,9.27148l-9.18799,3.03516c-0.16895-0.8418-0.45215-1.65625-0.8418-2.44238
	c-0.39648-0.78906-0.92822-1.50488-1.60156-2.15137c-0.67578-0.64648-1.4917-1.16504-2.44678-1.56055
	c-0.95508-0.39062-2.05078-0.58984-3.28564-0.58984c-1.46436,0-2.71338,0.25391-3.75244,0.75977
	c-1.04102,0.50586-1.89697,1.16797-2.56982,1.98047c-0.67578,0.81543-1.18213,1.72852-1.51807,2.73926
	c-0.33887,1.0127-0.50586,2.02441-0.50586,3.03613v23.35156c0,1.23438,0.16699,2.41504,0.50586,3.53809
	c0.33594,1.125,0.85596,2.10742,1.55908,2.95215c0.70215,0.8418,1.57422,1.50195,2.61279,1.98047
	c1.03809,0.47656,2.26123,0.7168,3.66846,0.7168c2.07764,0,3.84766-0.58984,5.30957-1.77148
	c1.46094-1.17871,2.38721-2.80957,2.7832-4.88965L431.09033,226.40576z"/>
<path fill="#093C80" d="M440.10938,238.88037V180.2085h9.69385v24.61523h4.63818c0.8418,0,1.71094-0.11133,2.61279-0.33691
	c0.896-0.22266,1.75439-0.63184,2.56982-1.22168c0.81348-0.58887,1.57227-1.43359,2.27441-2.5293
	c0.70312-1.0957,1.27783-2.51367,1.73096-4.25586l4.29785-16.10156h9.271l-4.5498,17.28125
	c-0.7334,2.86621-1.771,5.23926-3.12012,7.12305c-1.34814,1.88477-2.92285,3.13281-4.7207,3.75
	c2.36084,0.78809,4.18555,2.12305,5.47949,4.00391c1.29199,1.88477,2.27734,4.28711,2.9502,7.20703l4.89014,19.13672h-9.86426
	l-4.12793-16.68945c-0.90186-3.54199-2.13721-5.88867-3.71191-7.04004c-1.5708-1.15332-3.4292-1.72754-5.56299-1.72754h-5.05713
	v25.45703H440.10938z"/>
<path fill="#093C80" d="M520.13965,221.09326c0,2.8125-0.43652,5.33984-1.30469,7.58594
	c-0.87207,2.25-2.1084,4.17578-3.70898,5.77637c-1.60449,1.60059-3.49902,2.82324-5.69336,3.66602
	c-2.18994,0.84473-4.60693,1.26367-7.24707,1.26367c-3.20605,0-5.95898-0.51855-8.2627-1.55762
	c-2.3042-1.03906-4.1709-2.44629-5.60596-4.21387c-1.43213-1.77148-2.4873-3.82227-3.16016-6.15527
	c-0.6748-2.33105-1.01123-4.79102-1.01123-7.375v-22.1709c0-2.07812,0.32227-4.18457,0.96826-6.32227
	c0.646-2.13477,1.68799-4.0752,3.12012-5.81543c1.43115-1.74219,3.28857-3.17578,5.56299-4.30078
	c2.27588-1.12305,5.06982-1.68555,8.38867-1.68555c3.09033,0,5.75928,0.53613,8.00732,1.60156
	c2.24658,1.06836,4.1167,2.45898,5.60596,4.17188c1.48779,1.7168,2.58398,3.6543,3.28906,5.81836
	c0.70215,2.16406,1.05176,4.3418,1.05176,6.53223V221.09326z M510.36182,197.76123c0-0.73145-0.12598-1.58984-0.37891-2.57617
	c-0.25342-0.98438-0.68896-1.92871-1.30811-2.83008c-0.62012-0.90234-1.44629-1.67383-2.4873-2.32227
	c-1.03857-0.64648-2.37402-0.97266-4.00195-0.97266c-1.63086,0-2.99268,0.29688-4.08887,0.88867
	c-1.09766,0.5918-1.96875,1.32422-2.61279,2.19531c-0.64795,0.87305-1.11084,1.81738-1.39111,2.83203
	c-0.2832,1.0127-0.42285,1.9707-0.42285,2.86816l0.08691,22.47168c0,2.81738,0.64307,5.17969,1.93701,7.09668
	c1.29199,1.91309,3.48291,2.86914,6.57471,2.86914c2.19141,0,4.08838-0.74609,5.69043-2.2373
	c1.60059-1.49316,2.40283-3.5332,2.40283-6.125V197.76123z"/>
<path fill="#093C80" d="M566.2666,221.51514c0,5.61914-1.50488,9.91992-4.51074,12.89746
	c-3.00586,2.97949-7.03809,4.46777-12.09473,4.46777h-18.88281V180.2085h17.9541c5.56348,0,9.7373,1.43359,12.51758,4.30078
	c2.7832,2.86621,4.1748,6.77148,4.1748,11.71875c0,2.47266-0.52246,4.74609-1.56152,6.82812
	c-1.03906,2.07812-2.90625,3.73535-5.60547,4.97266v0.41992c1.4043,0.45312,2.61328,1.11133,3.625,1.98047
	c1.01172,0.87305,1.84082,1.89844,2.48633,3.07715c0.64551,1.18066,1.125,2.45996,1.43457,3.83691
	C566.11035,218.72217,566.2666,220.11084,566.2666,221.51514 M555.9834,196.56396c0-2.36035-0.63281-4.21484-1.89746-5.56348
	c-1.26562-1.35059-3.30273-2.02441-6.1123-2.02441h-7.58691v15.3418h7.66895c2.75488,0,4.76465-0.7168,6.03027-2.14746
	C555.35059,200.73584,555.9834,198.86768,555.9834,196.56396 M556.8252,220.96631c0-2.4834-0.61914-4.48828-1.85352-6.01465
	c-1.23828-1.52441-3.28906-2.28809-6.15527-2.28809h-8.42969v17.11426h8.51562c1.51465,0,2.78027-0.22559,3.79199-0.67871
	c1.01172-0.45117,1.82422-1.08594,2.44336-1.9043c0.61914-0.82129,1.05566-1.76562,1.30859-2.83984
	C556.69922,223.28369,556.8252,222.15381,556.8252,220.96631"/>
<path fill="#093C80" d="M610.60742,226.40576c-0.95898,4.10156-2.97949,7.29102-6.07227,9.56836
	c-3.08984,2.27344-6.82812,3.41211-11.20898,3.41211c-3.03613,0-5.67871-0.47656-7.92676-1.43164
	c-2.24707-0.95605-4.12793-2.27734-5.64648-3.96191c-1.51758-1.68848-2.64258-3.66797-3.37305-5.94531
	c-0.73145-2.27441-1.09473-4.73145-1.09473-7.37402V197.9126c0-2.30371,0.36328-4.55078,1.09473-6.74512
	c0.73047-2.19141,1.8418-4.13086,3.33008-5.81641c1.48828-1.68457,3.35938-3.03516,5.60645-4.04492
	c2.24707-1.01172,4.91699-1.51758,8.00977-1.51758c4.71973,0,8.55566,1.23633,11.50488,3.70898
	c2.9502,2.47266,4.9043,5.5625,5.85938,9.27148l-9.18848,3.03516c-0.16895-0.8418-0.45215-1.65625-0.8418-2.44238
	c-0.39648-0.78906-0.92871-1.50488-1.60156-2.15137c-0.67676-0.64648-1.49121-1.16504-2.44629-1.56055
	c-0.95605-0.39062-2.05078-0.58984-3.28613-0.58984c-1.46484,0-2.71289,0.25391-3.75195,0.75977
	c-1.04199,0.50586-1.89746,1.16797-2.57129,1.98047c-0.6748,0.81543-1.18066,1.72852-1.51758,2.73926
	c-0.33887,1.0127-0.50586,2.02441-0.50586,3.03613v23.35156c0,1.23438,0.16699,2.41504,0.50586,3.53809
	c0.33691,1.125,0.85547,2.10742,1.55859,2.95215c0.70312,0.8418,1.57422,1.50195,2.61328,1.98047
	c1.03906,0.47656,2.26074,0.7168,3.66895,0.7168c2.07715,0,3.84863-0.58984,5.30957-1.77148
	c1.46191-1.17871,2.3877-2.80957,2.7832-4.88965L610.60742,226.40576z"/>
<path fill="#093C80" d="M619.62598,238.88037V180.2085h9.69434v24.61523h4.63379c0.8457,0,1.71777-0.11133,2.61621-0.33691
	c0.89941-0.22266,1.75488-0.63184,2.57324-1.22168c0.8125-0.58887,1.57129-1.43359,2.27148-2.5293
	c0.70508-1.0957,1.28125-2.51367,1.72754-4.25586l4.2998-16.10156h9.27539l-4.55371,17.28125
	c-0.73145,2.86621-1.77051,5.23926-3.11621,7.12305c-1.35156,1.88477-2.92285,3.13281-4.7207,3.75
	c2.35742,0.78809,4.18262,2.12305,5.47949,4.00391c1.29199,1.88477,2.27148,4.28711,2.9502,7.20703l4.88672,19.13672h-9.86035
	l-4.13574-16.68945c-0.89746-3.54199-2.13574-5.88867-3.70703-7.04004c-1.57227-1.15332-3.42871-1.72754-5.56055-1.72754h-5.05957
	v25.45703H619.62598z"/>
<path fill="#093C80" d="M666.0918,238.88037V180.2085h9.52441v39.2832c0.05762,0,0.09766,0.0166,0.12695,0.04297
	c0.02734,0.0293,0.07031,0.04297,0.12695,0.04297c1.29199-2.41602,2.51367-4.83398,3.66504-7.25
	c1.15234-2.41797,2.32031-4.83398,3.49902-7.25c2.13672-4.1582,4.24414-8.28711,6.32227-12.3916
	c2.08008-4.10254,4.1582-8.25977,6.23828-12.47754h8.93555v58.67188h-9.6084v-38.27148h-0.16895
	c-0.95605,1.85352-1.91113,3.73828-2.86719,5.64941c-0.95508,1.91113-1.91016,3.79199-2.86621,5.64551l-13.8252,26.97656H666.0918z"
	/>
<path fill="#093C80" d="M715.96875,238.88037v-58.67285h9.52441v39.28418c0.05664,0,0.0957,0.01562,0.12695,0.04297
	c0.02637,0.0293,0.06934,0.04297,0.12598,0.04297c1.29199-2.41699,2.51367-4.83398,3.66602-7.25
	c1.15137-2.41699,2.31934-4.83398,3.49805-7.25098c2.1377-4.15723,4.24512-8.28711,6.32227-12.39062
	c2.08105-4.10254,4.1582-8.26074,6.23828-12.47852h8.93555v58.67285h-9.6084v-38.27148h-0.16992
	c-0.95508,1.85352-1.91016,3.73828-2.86523,5.64844c-0.95605,1.91211-1.91113,3.79297-2.86621,5.64746l-13.82617,26.97559H715.96875
	z M735.35742,176.49951c-2.36035,0-4.3418-0.41992-5.94531-1.26465c-1.60156-0.8418-2.89355-1.88086-3.87598-3.11621
	c-0.98535-1.23633-1.70117-2.58691-2.15039-4.04785c-0.44922-1.46191-0.70215-2.80957-0.75879-4.0459h7.25
	c0.05469,0.62012,0.20898,1.25195,0.46191,1.89453c0.25488,0.64941,0.61816,1.25195,1.09668,1.81445
	c0.47656,0.5625,1.03906,1.02539,1.6875,1.39062c0.64355,0.36719,1.38867,0.54688,2.23438,0.54688
	c0.89551,0,1.68457-0.17969,2.36035-0.54688c0.67285-0.36523,1.23535-0.82812,1.68457-1.39062s0.78613-1.16504,1.01172-1.81445
	c0.22363-0.64258,0.33691-1.27441,0.33691-1.89453h7.16406c-0.11328,1.23633-0.40625,2.58398-0.88281,4.0459
	c-0.47949,1.46094-1.19629,2.81152-2.15039,4.04785c-0.95508,1.23535-2.2207,2.27441-3.7959,3.11621
	C739.51562,176.07959,737.60156,176.49951,735.35742,176.49951"/>
<path fill="#093C80" d="M823.86816,198.33447c0,2.52832-0.36621,4.8877-1.0957,7.08105
	c-0.73242,2.19141-1.81152,4.10156-3.24609,5.73047c-1.43164,1.63086-3.24609,2.90918-5.43652,3.83789
	c-2.19043,0.92578-4.75,1.38867-7.66992,1.38867h-8.59863v22.50781h-9.61133V180.2085h17.7041
	c2.75293,0,5.22656,0.36523,7.41699,1.09766c2.19043,0.73047,4.07422,1.8418,5.64941,3.33008
	c1.57129,1.48828,2.78027,3.37207,3.62207,5.64648C823.44824,192.55908,823.86816,195.24268,823.86816,198.33447
	 M814.34277,198.12256c0-2.90723-0.70215-5.12988-2.10742-6.66895c-1.4043-1.54004-3.54102-2.30762-6.40723-2.30762h-8.00684v18.125
	h8.09277c2.86621,0,4.98633-0.82617,6.36523-2.47656C813.6543,203.14404,814.34277,200.92139,814.34277,198.12256"/>
<polygon fill="#093C80" points="832.56641,238.88037 832.56641,180.2085 865.19141,180.2085 865.19141,189.14697 
	842.17676,189.14697 842.17676,204.82373 861.98535,204.82373 861.98535,213.59229 842.17676,213.59229 842.17676,229.77783 
	865.19141,229.77783 865.19141,238.88037 "/>
<polygon fill="#093C80" points="883.78516,189.14697 883.78516,238.88037 874.1748,238.88037 874.1748,180.2085 906.45996,180.2085 
	906.45996,189.14697 "/>
<path fill="#093C80" d="M914.99219,238.88037V180.2085h9.52441v39.2832c0.05664,0,0.09668,0.0166,0.12695,0.04297
	c0.02637,0.0293,0.06934,0.04297,0.12598,0.04297c1.29199-2.41602,2.51367-4.83398,3.66602-7.25
	c1.15137-2.41797,2.31934-4.83398,3.49902-7.25c2.13672-4.1582,4.24414-8.28711,6.32129-12.3916
	c2.08105-4.10254,4.1582-8.25977,6.23926-12.47754h8.93555v58.67188h-9.6084v-38.27148h-0.16992
	c-0.95508,1.85352-1.91113,3.73828-2.86621,5.64941s-1.91113,3.79199-2.86621,5.64551l-13.82617,26.97656H914.99219z"/>
<path fill="#093C80" d="M999.81836,221.09326c0,2.8125-0.43555,5.33984-1.30566,7.58594
	c-0.87207,2.25-2.10742,4.17578-3.70801,5.77637c-1.60156,1.60059-3.49902,2.82324-5.68945,3.66602
	c-2.19434,0.84473-4.61035,1.26367-7.25098,1.26367c-3.20312,0-5.95898-0.51855-8.2627-1.55762s-4.17188-2.44629-5.60352-4.21387
	c-1.43457-1.77148-2.48633-3.82227-3.16211-6.15527c-0.67578-2.33105-1.01172-4.79102-1.01172-7.375v-22.1709
	c0-2.07812,0.32324-4.18457,0.96875-6.32227c0.64551-2.13477,1.68652-4.0752,3.11914-5.81543
	c1.43457-1.74219,3.28906-3.17578,5.56348-4.30078c2.27637-1.12305,5.07324-1.68555,8.38867-1.68555
	c3.08984,0,5.75977,0.53613,8.00977,1.60156c2.24414,1.06836,4.11523,2.45898,5.60352,4.17188
	c1.48828,1.7168,2.58594,3.6543,3.28809,5.81836c0.70312,2.16406,1.05273,4.3418,1.05273,6.53223V221.09326z M990.04102,197.76123
	c0-0.73145-0.12695-1.58984-0.37988-2.57617c-0.25293-0.98438-0.68945-1.92871-1.30664-2.83008
	c-0.61816-0.90234-1.44629-1.67383-2.48535-2.32227c-1.04199-0.64648-2.37695-0.97266-4.00488-0.97266
	c-1.63086,0-2.99316,0.29688-4.08789,0.88867c-1.0957,0.5918-1.96777,1.32422-2.61328,2.19531
	c-0.64648,0.87305-1.1123,1.81738-1.39258,2.83203c-0.28223,1.0127-0.42188,1.9707-0.42188,2.86816l0.08594,22.47168
	c0,2.81738,0.64648,5.17969,1.93848,7.09668c1.29102,1.91309,3.48535,2.86914,6.57422,2.86914
	c2.19434,0,4.08887-0.74609,5.69043-2.2373c1.60352-1.49316,2.40332-3.5332,2.40332-6.125V197.76123z"/>
<polygon fill="#093C80" points="1036.63379,238.88037 1036.63379,213.50635 1020.11133,213.50635 1020.11133,238.88037 
	1010.41699,238.88037 1010.41699,180.2085 1020.11133,180.2085 1020.11133,204.82373 1036.63379,204.82373 1036.63379,180.2085 
	1046.24414,180.2085 1046.24414,238.88037 "/>
</svg>
