<?xml version="1.0" encoding="utf-8"?>
<!-- Generator: Adobe Illustrator 24.1.1, SVG Export Plug-In . SVG Version: 6.00 Build 0)  -->
<svg version="1.1" id="Слой_1" xmlns="http://www.w3.org/2000/svg" xmlns:xlink="http://www.w3.org/1999/xlink" x="0px" y="0px"
	 viewBox="0 0 226.7 72.8" style="enable-background:new 0 0 226.7 72.8;" xml:space="preserve">
<style type="text/css">
	.st0{fill:#877850;}
</style>
<path class="st0" d="M108.7,6.2l5.4,20.9c0.3,1.3,0.5,2.6,0.6,3.9h0.1c0.2-1.3,0.4-2.7,0.7-4l5.4-20.9h5.4V33h-3V10.9
	c0-1.2,0.1-2.4,0.1-3.4h-0.1c-0.4,1.6-0.6,2.5-0.9,3.6L116.5,33h-3.6l-5.7-22.2c-0.2-0.9-0.5-1.8-0.8-3.3h-0.1
	c0,1.4,0.1,2.3,0.1,3.5v22h-3V6.2H108.7z"/>
<path class="st0" d="M137.7,6.2l6.4,18.6l5.8-18.6h3.2l-7.5,22.4c-1.3,4-2.9,5.1-5.1,5.1c-0.8,0.1-1.6,0-2.3-0.3v-2.7
	c0.6,0.3,1.3,0.4,2,0.3c1.1,0,1.7-0.5,2.3-2.5l-8-22.2L137.7,6.2L137.7,6.2z"/>
<path class="st0" d="M160.1,13.3c0.6-4.7,3.5-7.6,8.1-7.6c4.3,0,7.3,2.8,7.3,6.6c0.2,2.8-1.5,5.4-4.2,6.4c3.1,0.6,5.3,3.1,5.3,7.1
	c0,2.9-1.5,7.9-8.4,7.9c-6,0-8.1-3.6-8.5-9h3c0.2,4,1.4,6.3,5.5,6.3s5.2-2.9,5.2-5.5c0.1-2.8-2.1-5-4.9-5.1c0,0-0.1,0-0.1,0h-2.5
	v-2.7h2c3,0,4.5-1.6,4.5-4.6s-1.7-4.6-4.5-4.6c-2.5,0-4.5,1.9-4.8,4.9L160.1,13.3L160.1,13.3z"/>
<path class="st0" d="M200,6.2v2.7h-10.7v8.7h10v2.7h-10v10.1H200V33h-13.7V6.2H200z"/>
<path class="st0" d="M212.6,6.2v21.9c0,1,0,2-0.1,3h0.1c0.4-1.2,0.5-2.2,1.1-3.7l8.5-21.2h4.4V33h-3V11.7c0-1.4,0-2.8,0.1-4.1h-0.1
	c-0.2,1.5-0.6,3-1.1,4.4l-8.6,21h-4.4V6.2H212.6z M214.4,0c0.3,1.7,1.8,2.8,3.5,2.6c1.9,0,3-0.6,3.4-2.6h1.6c0,3.2-2.2,4.6-5.1,4.6
	c-2.7,0-4.9-1.4-4.9-4.6H214.4z"/>
<path class="st0" d="M119.1,39.8v26.8h-2.9V42.5h-10v24.1h-2.9V39.8H119.1z"/>
<path class="st0" d="M123.8,53.2c0-6.1,1-13.9,8.6-13.9c7.6,0,8.7,7.7,8.7,13.9c0,7.4-1,14.1-8.7,14.1S123.8,60.6,123.8,53.2z
	 M132.4,42c-4.5,0-5.5,4.7-5.5,10.7c0,7.8,0.8,11.9,5.6,11.9c4.8,0,5.7-4.1,5.7-11.8C138.1,46.8,137,42,132.4,42z"/>
<path class="st0" d="M158.9,39.8v2.7h-10.1v8.7h3.5c4.7,0,8.5,1.6,8.5,7.9c0,5.3-3.1,7.6-7.9,7.6h-7V39.8H158.9z M148.8,63.9h3.3
	c3.5,0,5.6-1.1,5.6-4.9c0-4.3-2.4-5.2-6.4-5.2h-2.5L148.8,63.9L148.8,63.9z"/>
<path class="st0" d="M178.4,39.8v2.7h-10.3v8.7h9.6v2.7h-9.6V64h10.3v2.7h-13.2V39.8H178.4z"/>
<path class="st0" d="M199.3,39.8v24.1h2.1v8.9h-2.8v-6.3h-15v6.3h-2.7v-8.9h1.8c2.5-4.4,2.8-9.3,2.8-17.3v-6.8H199.3z M188.3,42.5v7
	c0,6.3-0.8,10.9-2.6,14.5h10.7V42.5H188.3z"/>
<path class="st0" d="M207.8,51.2h3.5c4.7,0,8.5,1.6,8.5,7.9c0,5.3-3.1,7.6-7.9,7.6h-7V39.8h2.9V51.2z M207.8,63.9h3.3
	c3.5,0,5.6-1.1,5.6-4.9c0-4.3-2.4-5.2-6.4-5.2h-2.5L207.8,63.9L207.8,63.9z M226.7,66.6h-2.9V39.8h2.9V66.6z"/>
<path class="st0" d="M17.8,41.1L17,40.3c-1.4,0-2.9,0-4.4-0.1c0.4-0.5,2-2.1,2-2.2c-0.2-0.4-0.4-0.7-0.7-1.1
	c0.7-1.5,0.6-2.1,0.1-3.1c0.1-0.1,0.2-0.2,0.4-0.2c0.6,0.1,1,1.5,1.2,2c0.2,0.4,0.5,0.6,0.9,0.6c0.2,0,0.3-0.1,0.4-0.2
	c-0.3-0.1-0.5-0.3-0.6-0.6c-0.3-0.7-0.5-1.4-0.6-2.1c-0.1-0.5-0.6-0.8-1.1-0.7c-0.7,0-1.1,0.9-1.1,0.9c-0.6-0.3-1.3-0.4-1.9-0.1
	v-0.2c-0.1-0.4-0.2-0.9-0.4-1.3L11,31.6l0.1-0.1l0.1-0.1l0.2-0.2l0.2-0.2l0.2-0.2c0.1-0.1,0.1-0.2,0.2-0.3c0.1-0.1,0.1-0.3,0.1-0.4
	v-0.6c0-0.2-0.1-0.3-0.1-0.5c-0.1-0.1-0.1-0.2-0.2-0.3s-0.1-0.1-0.2-0.1h-0.1l0.7-0.5l0.3-1.6c0,0,0.2-0.2,0.2-0.3
	c0-0.2,0.1-0.3,0.1-0.5l1.3-0.6c0,0,0.1-0.1,0-0.4s-0.2-0.2-0.2-0.3s-5.1,3.2-5.1,3.2c-0.1-0.2-0.2-0.3-0.3-0.5
	C8.4,27,8.2,27,8.1,27c-0.2,0-0.3,0.2-0.4,0.2c-0.1,0.1-0.2,0.3-0.2,0.4c0,0-0.6,0.1-0.4,0.6c0.1,0.3,0.6,0.1,0.6,0.1l0.5,0.2
	l0.2,0.8c-0.2,0.2-0.3,0.5-0.5,0.7c0.1,0.7,0.2,1.4,0.3,2.1l-0.5,0.4c-0.1-0.1-0.1-0.2-0.2-0.3C7.4,32,7.2,31.8,7,31.5
	c-0.3-0.3-0.6-0.5-0.9-0.7c-0.4-0.2-0.8-0.3-1.3-0.3c-0.1,0-1,0.1-1,0.1l-0.3-0.2l0,0v0.2c0,0.1,0,0.1,0.1,0.2l-0.2,0.3
	C3.3,31,3.2,31,3.1,30.9l0,0c0,0.1,0,0.2,0.1,0.3c0,0.1,0.2,0.2,0.2,0.2s0.7,2.9,0.8,2.9h0.4l0.5-0.7l0.7,2.2c0,0-1.5,0.2-1.6,0.2
	s-1.6,3.1-1.6,3.2v0.2c-0.3,0-0.6-0.1-1-0.1v2.1C7.1,41.4,12.6,41.3,17.8,41.1z M9,27.7l3.1-1.7l0,0L12,26.2l0.1,0.1l-0.5,1.3
	c0,0-1.4,0.3-1.6,0.4c-0.3,0.1-0.6,0.3-0.8,0.5L8.9,28L9,27.7C9,27.8,9,27.7,9,27.7z M3.8,38.7l0.8-1.5l2.1,0.5
	c0.1,0,4.1-0.6,4.2-0.7c0.3-0.1,0.5-0.2,0.8-0.3c0.6,0.4,1.1,0.8,1.6,1.2c0,0.1-1.4,1.9-1.4,1.9c-0.1,0.1-0.2,0.2-0.3,0.3
	c-2.5-0.1-5.1-0.4-7.7-0.7C4,39.3,4,39.3,4,39.2v-0.1C4.2,39.1,3.8,38.7,3.8,38.7z"/>
<path class="st0" d="M64.6,28.4c-2.4-0.6-6.1-0.1-10,1.4c-3.3,1.2-6.1,3.3-8.2,6.1l-1.2,0.4l-0.4,0.6c0.4-0.1,0.9-0.2,1.4-0.3h0.1
	c0.1,0,0.2,0,0.3-0.1h0.2c0.1,0,0.2-0.1,0.3-0.1h0.1c0.2,0,0.3-0.1,0.5-0.1h0.1c0.1,0,0.2-0.1,0.3-0.1l0,0c2-0.6,4.2-1.3,6.5-2.2
	C58.1,32.4,61.4,30.5,64.6,28.4z"/>
<path class="st0" d="M56,27.9c3.9-1.1,7.6-1.3,10.1-0.6c0.1-0.1,0.1-0.2,0.1-0.3c0-0.3-0.3-0.6-0.9-0.7c-0.2-0.1-0.4-0.1-0.6-0.2
	c-1.2-0.2-2.5-0.3-3.7-0.2C58.1,26.1,55.9,27,56,27.9z"/>
<path class="st0" d="M62.1,24.8l-0.4-11.9c0-0.1,0-0.1-0.1-0.1h-0.2c-0.1,0-0.1,0-0.1,0.1l-0.4,12C61.3,24.9,61.7,24.8,62.1,24.8z"
	/>
<path class="st0" d="M72.8,57.9v-4l0,0c-0.3-0.1-0.9-4.6-1.3-8.1c-0.3-2.3-0.4-4.2-0.4-4.2c0.6-0.2,1.2-0.5,1.7-0.7l0,0V32l1.5-1.2
	v28.6c0.1,0,0.2,0.1,0.3,0.1s0.2,0.1,0.3,0.1s0.5,0.1,0.7,0.2c0.6,0.2,1.3,0.4,1.9,0.5c0.1,0,0.2,0.1,0.3,0.1s0.2,0.1,0.3,0.1v-5.3
	c-0.3-1.5-0.6-4.8-0.9-7.9l-0.5-6.5c0-0.3,0-0.6-0.1-0.9c0.5-0.3,1-0.6,1.4-1V27.4c0.6-0.6,1.1-1.2,1.6-1.9v35.6
	c0.1,0,0.2,0.1,0.3,0.1s0.2,0.1,0.3,0.1c0.3,0.1,0.7,0.2,1,0.4l0.6,0.3c0.3,0.1,0.6,0.3,0.9,0.4c0.1,0,0.2,0.1,0.3,0.1
	s0.2,0.1,0.3,0.2V57c-0.2-0.4-0.5-4.7-0.9-9.4c-0.2-2.5-0.3-5.1-0.5-7.2c0-0.8-0.1-1.5-0.1-2.1c0-0.8-0.1-1.5-0.1-1.9v-0.9
	c0.6-0.7,1.1-1.5,1.6-2.3V19.4c0.7-1.4,1.2-3,1.6-4.5v48.8c0.1,0.1,0.2,0.1,0.4,0.2c1.2,0.8,2.3,1.7,3.3,2.7h3.8V6.1L79,6
	c0,0.9,0,1.7-0.2,2.6c-0.1,1.4-0.4,2.8-0.7,4.2c-0.9,3.1-2.4,6.1-4.3,8.7c-1,1.4-2.2,2.6-3.4,3.8c-0.9,0.9-1.9,1.7-2.9,2.5
	c-2.9,2.3-6,4.2-9.4,5.7c-2.2,1.1-4.5,2-6.9,2.8c-3.7,1.3-7.5,2.4-11.4,3.2c-3.7,0.8-7.5,1.4-11.3,1.9c-4.2,0.5-8.3,0.8-12.5,1
	c-2.3,0.1-4.6,0.1-6.8,0.1c-3.4,0-5.6,0-9.2-0.2v1.4h1.2L1,47h1.8v5.6H4V47h0.8v5.7h0.6c1.1,0,2.2,0,3.3,0.1h0.6V51
	c-1-0.2-2.4-2.1-2.4-2.1h2.3v-2.2h0.9v6h0.6c1.1,0,2.1,0.1,3.2,0.1h0.6v-1.6c-0.8-0.1-2.3-2.3-2.3-2.3h2.3v-2.5c0.3,0,0.6,0,0.9-0.1
	v6.4H16c1.1,0,2.1,0.1,3.2,0.1h0.6v-1.7c-0.8-0.2-2.2-2.4-2.2-2.4h2.2v-2.8c0.3,0,0.7,0,1-0.1v7h0.6c1,0,2.1,0.1,3.1,0.2h0.6v-1.8
	c-0.8-0.3-2.1-2.7-2.1-2.7h2.1v-3.2c0.4,0,0.7-0.1,1-0.1V53h0.6c1,0.1,2,0.1,3.1,0.2h0.6v-1.9c-0.7-0.1-2.1-3-2.1-3
	c0.7,0,1.4,0,2.1-0.1v-3.6c0.4,0,0.7-0.1,1.1-0.1v8.7h0.6c1,0.1,2,0.1,3,0.2h0.6v-2c-0.7,0-2.1-3.4-2.1-3.4c0.7,0,1.4-0.1,2.1-0.1
	v-4.1c0.4-0.1,0.8-0.1,1.1-0.2v9.8h0.6c1,0.1,2,0.2,2.9,0.2h0.6v-2.2l0,0c-0.7,0-2.1-3.8-2.1-3.8c0.7,0,1.4-0.1,2.1-0.1l0,0v-4.6
	c0.4-0.1,0.8-0.1,1.2-0.2v11.2h0.6l2.9,0.3h0.6v-2.5c-0.7-0.2-2-4.5-2-4.5c0.7-0.1,1.3-0.1,2-0.2v-5.3c0.4-0.1,0.8-0.2,1.3-0.3v12.8
	h0.6l2.8,0.3h0.6v-2.8l0,0c-0.6,0-1.9-5.3-1.9-5.3c0.7-0.1,1.3-0.1,1.9-0.2l0,0v-6c0.4-0.1,0.9-0.2,1.3-0.4v14.7h0.6
	c0.9,0.1,1.9,0.2,2.8,0.4h0.6v-3.1c-0.6-0.4-1.8-6.4-1.8-6.4l1.8-0.3v-6.7c0.5-0.2,0.9-0.3,1.4-0.5V55h0.6c0.9,0.1,1.8,0.3,2.7,0.4
	h0.6v-3.3c-0.5-0.3-1.5-5.9-1.7-7.4c0-0.1,0-0.3-0.1-0.4c0.6-0.1,1.2-0.3,1.8-0.4v-7.7c0.5-0.2,1-0.4,1.4-0.6v20.1
	c0.1,0,0.2,0,0.3,0.1h0.3c0.9,0.2,1.8,0.3,2.7,0.5c0.1,0,0.2,0,0.3,0.1c0.1,0,0.2,0,0.3,0.1v-3.6c-0.4-0.3-1.1-4.9-1.5-7.7
	c-0.2-1.2-0.3-2-0.3-2c0.6-0.2,1.2-0.3,1.8-0.5V34c0.5-0.3,1-0.5,1.5-0.8v23.7l0,0c0.1,0,0.2,0,0.3,0.1c0.1,0,0.2,0,0.3,0.1h0.1
	L72.8,57.9z"/>
<path class="st0" d="M76.5,64.9c-3.2-1.7-6.6-3-10.1-3.8c-0.8-0.2-1.7-0.4-2.7-0.6c-5.1-1.1-10.2-1.9-15.3-2.4
	c-1.4-0.2-2.9-0.3-4.4-0.4c-1-0.1-2.1-0.2-3.1-0.2c-7.3-0.5-15.2-0.9-22-1.1h-1.6C9.1,56,3.1,56,3.1,56v10.6h75.2
	C77.8,65.9,77.2,65.3,76.5,64.9z M48.3,58.8c4.7,0.5,9,1.1,12.8,1.9L5.6,65.8l35.7-7.6C43.7,58.4,46.1,58.6,48.3,58.8z M19,57.1
	c5.4,0.2,12.4,0.4,19.1,0.9L5.7,64.9l12.1-7.8L19,57.1z M3.8,56.8c1.8,0,6.4,0.1,12.4,0.2L3.8,65V56.8z M14.3,65.9L64,61.4
	c1.4,0.3,2.7,0.7,3.9,1c4.8,1.4,7.2,2.6,8.2,3.3c0.1,0.1,0.3,0.2,0.4,0.3L14.3,65.9z"/>
</svg>
