<svg id="Слой_1" data-name="Слой 1" xmlns="http://www.w3.org/2000/svg" viewBox="0 0 37.62 34.84"><defs><style>.cls-1{fill:#348328;}</style></defs><polygon class="cls-1" points="11.95 0 0 0 0 6.12 11.95 6.12 11.95 28.72 0 28.72 0 34.84 11.95 34.84 18.07 34.84 18.07 28.72 18.07 6.12 18.07 0 11.95 0"/><polygon class="cls-1" points="25.67 0 37.62 0 37.62 6.12 25.67 6.12 25.67 28.72 37.62 28.72 37.62 34.84 25.67 34.84 19.55 34.84 19.55 28.72 19.55 6.12 19.55 0 25.67 0"/><polygon class="cls-1" points="31.51 7.6 27.53 7.6 27.53 11.81 31.51 11.81 31.51 13.72 37.62 13.72 37.62 11.81 37.62 7.6 31.51 7.6"/><polygon class="cls-1" points="31.51 21.45 31.51 23.36 27.53 23.36 27.53 27.57 31.51 27.57 37.62 27.57 37.62 23.36 37.62 21.45 31.51 21.45"/><polygon class="cls-1" points="10.09 11.81 10.09 7.6 6.12 7.6 0 7.6 0 11.81 0 23.36 0 27.57 6.12 27.57 10.09 27.57 10.09 23.36 6.12 23.36 6.12 11.81 10.09 11.81"/><rect class="cls-1" x="17.58" y="19.08" width="3.53" height="2.75"/></svg>