<?xml version="1.0" encoding="utf-8"?>
<!-- Generator: Adobe Illustrator 25.2.3, SVG Export Plug-In . SVG Version: 6.00 Build 0)  -->
<svg version="1.1" id="Слой_1" xmlns="http://www.w3.org/2000/svg" xmlns:xlink="http://www.w3.org/1999/xlink" x="0px" y="0px"
	 viewBox="0 0 100 125" style="enable-background:new 0 0 100 125;" xml:space="preserve">
<g>
	<g>
		<g>
			<g>
				<g>
					<path d="M91.2,85.9H8.8c-1.1,0-2-0.9-2-2V72.1c0-1.1,0.9-2,2-2h82.5c1.1,0,2,0.9,2,2v11.8C93.2,85,92.3,85.9,91.2,85.9z
						 M10.8,81.9h78.5v-7.8H10.8V81.9z"/>
				</g>
			</g>
		</g>
	</g>
</g>
<g>
	<g>
		<g>
			<g>
				<g>
					<g>
						<path d="M73.5,28.2H26.5c-1.1,0-2-0.9-2-2v-19c0-1.1,0.9-2,2-2s2,0.9,2,2v17h43.1v-17c0-1.1,0.9-2,2-2s2,0.9,2,2v19
							C75.5,27.3,74.6,28.2,73.5,28.2z"/>
					</g>
				</g>
			</g>
		</g>
	</g>
	<g>
		<g>
			<g>
				<g>
					<g>
						<path d="M73.2,15.4H26.7c-0.5,0-1-0.4-1-1s0.5-1,1-1h46.5c0.6,0,1,0.4,1,1S73.8,15.4,73.2,15.4z"/>
					</g>
				</g>
			</g>
		</g>
	</g>
</g>
<g>
	<g>
		<g>
			<g>
				<g>
					<g>
						<g>
							<path d="M31.1,84.1c0.1,0.4,0.1,0.8,0.1,1.2c0,4.1-3.3,7.4-7.5,7.4c-4.1,0-7.5-3.3-7.5-7.4c0-0.4,0-0.9,0.1-1.3"/>
						</g>
					</g>
				</g>
			</g>
			<g>
				<g>
					<g>
						<g>
							<path d="M23.8,94.8c-5.2,0-9.4-4.2-9.4-9.4c0-0.5,0.1-1.1,0.1-1.6c0.2-1.1,1.2-1.8,2.3-1.6c1.1,0.2,1.8,1.2,1.6,2.3
								c0,0.3-0.1,0.6-0.1,0.9c0,3,2.4,5.4,5.5,5.4c3,0,5.5-2.4,5.5-5.4c0-0.3,0-0.6-0.1-0.9c-0.2-1.1,0.6-2.1,1.7-2.3
								c1.1-0.2,2.1,0.6,2.3,1.7c0.1,0.5,0.1,1,0.1,1.5C33.2,90.5,29,94.8,23.8,94.8z"/>
						</g>
					</g>
				</g>
			</g>
		</g>
	</g>
	<g>
		<g>
			<g>
				<g>
					<g>
						<path d="M83.6,84.1c0.1,0.4,0.1,0.8,0.1,1.2c0,4.1-3.3,7.4-7.4,7.4c-4.1,0-7.4-3.3-7.4-7.4c0-0.4,0-0.9,0.1-1.3"/>
					</g>
				</g>
			</g>
		</g>
		<g>
			<g>
				<g>
					<g>
						<path d="M76.2,94.8c-5.2,0-9.4-4.2-9.4-9.4c0-0.5,0.1-1.1,0.1-1.6c0.2-1.1,1.2-1.8,2.3-1.6c1.1,0.2,1.8,1.2,1.6,2.3
							c-0.1,0.3-0.1,0.6-0.1,0.9c0,3,2.4,5.4,5.4,5.4c3,0,5.4-2.4,5.4-5.4c0-0.3,0-0.6-0.1-0.9c-0.2-1.1,0.6-2.1,1.7-2.3
							c1.1-0.2,2.1,0.6,2.3,1.7c0.1,0.5,0.1,1,0.1,1.5C85.7,90.5,81.5,94.8,76.2,94.8z"/>
					</g>
				</g>
			</g>
		</g>
	</g>
</g>
<g>
	<g>
		<g>
			<g>
				<g>
					<g>
						<path d="M50.3,60.6c-0.3,0-0.7-0.1-1-0.3l-15.2-8.6c-0.6-0.3-1-1-1-1.6s0.3-1.3,0.8-1.7l32.5-23.6c0.9-0.6,2.1-0.5,2.8,0.4
							c0.7,0.9,0.4,2.1-0.4,2.8l-30,21.8l12.5,7c1,0.5,1.3,1.8,0.8,2.7C51.6,60.2,51,60.6,50.3,60.6z"/>
					</g>
				</g>
			</g>
		</g>
	</g>
	<g>
		<g>
			<g>
				<g>
					<g>
						<path d="M73.9,73.9c-0.3,0-0.7-0.1-1-0.3L49.3,60.3c-1-0.5-1.3-1.8-0.8-2.7s1.8-1.3,2.7-0.8l23.7,13.3c1,0.5,1.3,1.8,0.8,2.7
							C75.3,73.6,74.7,73.9,73.9,73.9z"/>
					</g>
				</g>
			</g>
		</g>
	</g>
	<g>
		<g>
			<g>
				<g>
					<g>
						<path d="M50.2,41.3c-0.4,0-0.8-0.1-1.2-0.4L31.3,28c-0.9-0.6-1.1-1.9-0.4-2.8s1.9-1.1,2.8-0.4l17.8,12.9
							c0.9,0.7,1.1,1.9,0.4,2.8C51.5,41,50.9,41.3,50.2,41.3z"/>
					</g>
				</g>
			</g>
		</g>
	</g>
	<g>
		<g>
			<g>
				<g>
					<g>
						<path d="M26,73.9c-0.7,0-1.4-0.4-1.8-1c-0.5-1-0.2-2.2,0.8-2.7l36.2-20.4L49.1,41c-0.9-0.7-1.1-1.9-0.4-2.8s1.9-1.1,2.8-0.4
							l14.7,10.7c0.6,0.4,0.9,1,0.8,1.7s-0.4,1.3-1,1.6L27,73.7C26.7,73.8,26.4,73.9,26,73.9z"/>
					</g>
				</g>
			</g>
		</g>
	</g>
</g>
</svg>
