<?xml version="1.0" encoding="utf-8"?>
<!-- Generator: Adobe Illustrator 25.2.3, SVG Export Plug-In . SVG Version: 6.00 Build 0)  -->
<svg version="1.1" id="Слой_1" xmlns="http://www.w3.org/2000/svg" xmlns:xlink="http://www.w3.org/1999/xlink" x="0px" y="0px"
	 viewBox="0 0 100 125" style="enable-background:new 0 0 100 125;" xml:space="preserve">
<path d="M72.4,27.7V17.1c0-1.1-0.9-2-2-2H29.6c-1.1,0-2,0.9-2,2v10.6c0,1.1,0.9,2,2,2h40.7C71.5,29.7,72.4,28.8,72.4,27.7z
	 M68.4,25.7H31.6v-6.6h36.7L68.4,25.7L68.4,25.7z"/>
<path d="M64.2,47.1c0-7.9-6.4-14.2-14.2-14.2s-14.2,6.4-14.2,14.2S42.1,61.4,50,61.4S64.2,55,64.2,47.1z M50,57.4
	c-5.6,0-10.2-4.6-10.2-10.2c0-5.6,4.6-10.2,10.2-10.2c5.6,0,10.2,4.6,10.2,10.2C60.2,52.8,55.6,57.4,50,57.4z"/>
<path d="M52.1,42.2L45,49.3c-0.8,0.8-0.8,2,0,2.8c0.4,0.4,0.9,0.6,1.4,0.6s1-0.2,1.4-0.6L55,45c0.8-0.8,0.8-2,0-2.8
	C54.2,41.4,52.9,41.4,52.1,42.2z"/>
<path d="M95.9,41.6v-4.3c0-1.1-0.9-2-2-2s-2,0.9-2,2v4.3c-2,0.2-3.6,1.9-3.6,3.9v25.3c0,2,1.5,3.7,3.5,3.9C91.1,82.2,86.5,88,81,88
	c-5.1,0-9.8-1.4-13.1-3.7h9c1.1,0,2-0.9,2-2V10c0-1.1-0.9-2-2-2H23.1c-1.1,0-2,0.9-2,2v72.2c0,1.1,0.9,2,2,2h9
	c-3.4,2.3-8,3.7-13.1,3.7c-5.5,0-10.1-5.8-10.7-13.2c2-0.2,3.5-1.9,3.5-3.9V45.5c0-2-1.6-3.7-3.6-3.9v-4.3c0-1.1-0.9-2-2-2
	s-2,0.9-2,2v4.3c-2,0.2-3.6,1.9-3.6,3.9v25.3c0,2.1,1.6,3.8,3.7,3.9C5,84.4,11.3,92,19,92c8,0,15-3.1,19-7.7h24c4,4.6,11,7.7,19,7.7
	c7.7,0,14-7.6,14.8-17.2c2-0.1,3.7-1.8,3.7-3.9V45.5C99.4,43.5,97.9,41.8,95.9,41.6z M5.9,45.6c0.1,0,0.2,0,0.3,0c0.1,0,0.3,0,0.4,0
	l1.2,0v25.3l-1.3,0c-0.1,0-0.2,0-0.3,0c-0.1,0-0.3,0-0.4,0l-1.2,0L4.5,45.6L5.9,45.6z M40.5,80.2c0.5-1.1,0.8-2.2,0.9-3.4
	C43.5,76,45,74,45,71.6c0-3.1-2.5-5.6-5.6-5.6s-5.6,2.5-5.6,5.6c0,2.3,1.4,4.3,3.4,5.1c-0.2,1.2-0.6,2.4-1.3,3.5h-11V12h49.8v68.2
	h-11c-0.7-1.1-1.1-2.3-1.3-3.5c2-0.8,3.4-2.8,3.4-5.1c0-3.1-2.5-5.6-5.6-5.6S55,68.6,55,71.6c0,2.4,1.5,4.4,3.6,5.2
	c0.1,1.2,0.4,2.3,0.9,3.4C59.5,80.2,40.5,80.2,40.5,80.2z M39.5,73.2c-0.9,0-1.6-0.7-1.6-1.6s0.7-1.6,1.6-1.6c0.9,0,1.6,0.7,1.6,1.6
	C41,72.5,40.3,73.2,39.5,73.2z M60.5,73.2c-0.9,0-1.6-0.7-1.6-1.6s0.7-1.6,1.6-1.6s1.6,0.7,1.6,1.6C62.1,72.5,61.4,73.2,60.5,73.2z
	 M95.4,70.8l-1.3,0c-0.1,0-0.2,0-0.3,0c-0.1,0-0.3,0-0.4,0l-1.2,0l-0.1-25.3l1.4,0c0.1,0,0.2,0,0.3,0c0.1,0,0.3,0,0.4,0l1.2,0V70.8z
	"/>
</svg>
