<?xml version="1.0" encoding="utf-8"?>
<!-- Generator: Adobe Illustrator 25.2.3, SVG Export Plug-In . SVG Version: 6.00 Build 0)  -->
<svg version="1.1" id="Слой_1" xmlns="http://www.w3.org/2000/svg" xmlns:xlink="http://www.w3.org/1999/xlink" x="0px" y="0px"
	 viewBox="0 0 512 640" style="enable-background:new 0 0 512 640;" xml:space="preserve">
<g>
	<g>
		<path d="M397.6,103.8h-15.4V37.2c0-13.4-10.9-24.4-24.4-24.4s-24.4,10.9-24.4,24.4v66.6h-78.5V37.2c0-13.4-10.9-24.4-24.4-24.4
			c-13.4,0-24.4,10.9-24.4,24.4v66.6h-15.4c-2.2,0-4,1.8-4,4v90.7c0,38.7,23.3,72,56.6,86.6c-0.1,1.4-0.2,2.7-0.2,4
			c0,27.1,21.3,49.4,48.1,50.9c1.7,6,5.6,21.8,4.9,41.1c-1.1,32.6-13.8,59.3-37.7,79.3c-30.1,25.1-67,31.1-92.6,31.7
			c-28,0.6-49.1-4.8-49.3-4.9c-2.1-0.6-4.3,0.7-4.9,2.8c-0.6,2.1,0.7,4.3,2.8,4.9c0.8,0.2,19.9,5.2,46.6,5.2c1.5,0,3.1,0,4.7-0.1
			c27-0.6,65.8-6.9,97.8-33.6c32.2-26.9,39.9-61.3,40.6-85.4c0.6-18.5-2.7-33.7-4.7-41.3c25.7-2.6,45.8-24.4,45.8-50.7
			c0-1.4,0-2.7-0.1-4c33.3-14.7,56.6-48,56.6-86.7v-90.7C401.6,105.6,399.8,103.8,397.6,103.8z M294.1,332.1c-23.7,0-43-19.3-43-43
			c0-0.3,0-0.6,0-0.9c7.2,2.4,14.7,4,22.5,4.6c0,0,0,0,0,0c1.2,0.1,2.4,0.2,3.6,0.2c0.2,0,0.4,0,0.6,0c1.2,0,2.3,0.1,3.5,0.1H307
			c1.2,0,2.3,0,3.5-0.1c0.2,0,0.4,0,0.6,0c9.1-0.4,17.8-2.1,26.1-4.8c0,0.3,0,0.6,0,0.9C337.1,312.8,317.8,332.1,294.1,332.1z
			 M393.6,170.5H194.6v-58.8h15.4h40.7h86.5h40.8h15.4L393.6,170.5L393.6,170.5z"/>
		<path d="M243.2,123.3c-10.8,0-19.6,8.8-19.6,19.6c0,10.8,8.8,19.6,19.6,19.6c10.8,0,19.6-8.8,19.6-19.6
			C262.8,132.1,254,123.3,243.2,123.3z"/>
		<path d="M349.2,123.3c-10.8,0-19.6,8.8-19.6,19.6c0,10.8,8.8,19.6,19.6,19.6c10.8,0,19.6-8.8,19.6-19.6
			C368.8,132.1,360,123.3,349.2,123.3z"/>
	</g>
</g>
</svg>
