<?xml version="1.0" encoding="utf-8"?>
<!-- Generator: Adobe Illustrator 25.2.3, SVG Export Plug-In . SVG Version: 6.00 Build 0)  -->
<svg fill="#c1a205" version="1.1" id="Слой_1" xmlns="http://www.w3.org/2000/svg" xmlns:xlink="http://www.w3.org/1999/xlink" x="0px" y="0px"
	 viewBox="0 0 100 125" style="enable-background:new 0 0 100 125;" xml:space="preserve">
<path d="M50,25.3c-13.6,0-24.7,11.1-24.7,24.7S36.4,74.7,50,74.7S74.7,63.6,74.7,50S63.6,25.3,50,25.3z M50,28.9
	c2.2,0,4.3,0.3,6.3,1c-0.6,3-3.2,5.2-6.3,5.2s-5.8-2.3-6.3-5.2C45.7,29.2,47.8,28.9,50,28.9z M40.2,31.3c1.7,2.5,1.4,5.9-0.8,8.2
	s-5.7,2.5-8.2,0.8C33.3,36.4,36.4,33.3,40.2,31.3z M28.9,50c0-2.2,0.3-4.3,1-6.3c3,0.6,5.2,3.2,5.2,6.3s-2.3,5.8-5.2,6.3
	C29.2,54.3,28.9,52.2,28.9,50z M40.2,68.7c-3.8-2-7-5.1-9-9c2.5-1.7,5.9-1.4,8.2,0.8S41.9,66.2,40.2,68.7z M50,71.1
	c-2.2,0-4.3-0.3-6.3-1c0.6-3,3.2-5.2,6.3-5.2s5.8,2.3,6.3,5.2C54.3,70.8,52.2,71.1,50,71.1z M50,60.4c-5.8,0-10.4-4.7-10.4-10.4
	c0-5.8,4.7-10.4,10.4-10.4S60.4,44.2,60.4,50C60.4,55.8,55.8,60.4,50,60.4z M59.8,68.7c-1.7-2.5-1.4-6,0.8-8.2
	c2.2-2.2,5.7-2.5,8.2-0.8C66.7,63.6,63.6,66.7,59.8,68.7z M71.1,50c0,2.2-0.3,4.3-1,6.3c-3-0.6-5.2-3.2-5.2-6.3s2.3-5.8,5.2-6.3
	C70.8,45.7,71.1,47.8,71.1,50z M60.6,39.4c-2.2-2.2-2.5-5.7-0.8-8.2c3.8,2,7,5.1,9,9C66.2,41.9,62.8,41.7,60.6,39.4z M95.4,54
	c0.1-1.3,0.2-2.7,0.2-4c0-1.1,0-2.2-0.1-3.3l-1.6,0.1l-0.1-1.5l1.6-0.1c-0.3-2.5-0.7-5-1.4-7.3l-1.5,0.5l-0.4-1.5l1.5-0.5
	c-0.7-2.3-1.6-4.4-2.6-6.5l-1.4,0.7l-0.7-1.4l1.4-0.7c-1.2-2.3-2.7-4.5-4.2-6.5l-1.2,1l-1-1.2l1.2-1c-1.6-1.9-3.3-3.6-5.1-5.2
	l-1,1.2l-1.2-1l1-1.2c-1.9-1.6-4-3-6.2-4.2l-0.8,1.4L70.4,11l0.8-1.4c-2.1-1.1-4.2-2-6.5-2.8l-0.5,1.5l-1.5-0.5l0.5-1.5
	c-2.5-0.7-5-1.3-7.6-1.6l-0.2,1.6l-1.5-0.2L54,4.6c-1.3-0.1-2.7-0.2-4-0.2c-1.1,0-2.2,0-3.3,0.1l0.1,1.6l-1.5,0.1l-0.1-1.6
	c-2.5,0.3-5,0.7-7.3,1.4l0.5,1.5l-1.5,0.4l-0.5-1.5c-2.3,0.7-4.4,1.6-6.5,2.6l0.7,1.4l-1.4,0.7l-0.7-1.4c-2.3,1.2-4.5,2.7-6.5,4.3
	l1,1.2l-1.2,1l-1-1.2c-1.9,1.6-3.6,3.3-5.2,5.1l1.2,1l-1,1.2l-1.2-1c-1.6,1.9-3,4-4.2,6.2l1.4,0.8L11,29.6l-1.4-0.8
	c-1.1,2.1-2,4.2-2.8,6.5l1.5,0.5l-0.5,1.5l-1.5-0.5c-0.7,2.5-1.3,5-1.6,7.6l1.6,0.2l-0.2,1.5L4.6,46c-0.1,1.3-0.2,2.7-0.2,4
	c0,1.1,0,2.2,0.1,3.3l1.6-0.1l0.1,1.5l-1.6,0.1c0.3,2.5,0.7,5,1.4,7.3l1.5-0.5l0.4,1.5l-1.5,0.5c0.7,2.3,1.6,4.4,2.6,6.5l1.4-0.7
	l0.7,1.4l-1.4,0.7c1.2,2.3,2.7,4.5,4.3,6.5l1.2-1l1,1.2l-1.2,1c1.6,1.9,3.3,3.6,5.1,5.2l1-1.2l1.2,1l-1,1.2c1.9,1.6,4,3,6.2,4.2
	l0.8-1.4l1.3,0.7l-0.8,1.4c2.1,1.1,4.2,2,6.5,2.8l0.5-1.5l1.5,0.5l-0.5,1.5c2.5,0.7,5,1.3,7.6,1.6l0.2-1.6l1.5,0.2L46,95.4
	c1.3,0.1,2.7,0.2,4,0.2c1.1,0,2.2,0,3.3-0.1l-0.1-1.6l1.5-0.1l0.1,1.6c2.5-0.3,5-0.7,7.3-1.4l-0.5-1.5l1.5-0.4l0.5,1.5
	c2.3-0.7,4.4-1.6,6.5-2.6l-0.7-1.4l1.4-0.7l0.7,1.4c2.3-1.2,4.5-2.7,6.5-4.2l-1-1.2l1.2-1l1,1.2c1.9-1.6,3.6-3.3,5.2-5.1l-1.2-1
	l1-1.2l1.2,1c1.6-1.9,3-4,4.2-6.2l-1.4-0.8l0.7-1.3l1.4,0.8c1.1-2.1,2-4.2,2.8-6.5l-1.5-0.5l0.5-1.5l1.5,0.5c0.7-2.5,1.3-5,1.6-7.6
	l-1.6-0.2l0.2-1.5L95.4,54z M50,79.6c-16.3,0-29.6-13.2-29.6-29.6c0-16.3,13.2-29.6,29.6-29.6c16.3,0,29.6,13.2,29.6,29.6
	C79.6,66.3,66.3,79.6,50,79.6z"/>
</svg>
