<?xml version="1.0" encoding="utf-8"?>
<!-- Generator: Adobe Illustrator 25.2.3, SVG Export Plug-In . SVG Version: 6.00 Build 0)  -->
<svg version="1.1" id="Слой_1" xmlns="http://www.w3.org/2000/svg" xmlns:xlink="http://www.w3.org/1999/xlink" x="0px" y="0px"
	 viewBox="0 0 100 125" style="enable-background:new 0 0 100 125;" xml:space="preserve">
<path d="M70,28H53V18h-6v10H30c-3.9,0-7,3.1-7,7v12c0,3.9,3.1,7,7,7h17v5.6c-0.1,3,1.8,5.7,4.6,6.7c2.6,0.9,4,3.7,3.2,6.3
	c-0.9,2.6-3.7,4-6.3,3.2c-2-0.7-3.4-2.6-3.4-4.7h-6c0,6.1,4.9,11,11,11c6.1,0,11-4.9,11-11c0-4.7-3-8.9-7.5-10.4
	c-0.3-0.2-0.5-0.6-0.5-1V54h17c3.9,0,7-3.1,7-7V35C77,31.1,73.9,28,70,28z M37.2,48l14-14h11.5l-14,14H37.2z M29,35c0-0.6,0.4-1,1-1
	h12.8L29.2,47.6C29.1,47.4,29,47.2,29,47V35z M71,47c0,0.6-0.4,1-1,1H57.2l13.6-13.6c0.1,0.2,0.2,0.4,0.2,0.6V47z"/>
</svg>
